<?xml version="1.0" encoding="UTF-8"?>
<svg width="188px" height="109px" viewBox="0 0 188 109" version="1.1" xmlns="http://www.w3.org/2000/svg" xmlns:xlink="http://www.w3.org/1999/xlink">
    <!-- Generator: sketchtool 59.1 (101010) - https://sketch.com -->
    <title>FE5C9EDD-F41D-414A-B7CF-EF87EFC2D41A</title>
    <desc>Created with sketchtool.</desc>
    <defs>
        <path d="M24.4186027,0.25147698 C36.9072315,0.25147698 47.0458291,1.55944916 54.483761,7.98108971 C59.5534598,12.3552419 62.5815578,19.0763901 62.5815578,26.4614472 C62.5815578,34.4161778 59.1334185,41.3891074 52.5481705,46.259517 C61.2958312,49.0252152 69.575846,55.5669024 72.6701504,65.2675438 C76.1160895,51.5142949 87.7468339,38.467933 106.669896,38.467933 C118.841894,38.467933 127.832778,43.1655778 133.385525,50.6079797 C136.094391,54.2303187 137.971176,58.2238769 138.951072,63.0416901 L138.951072,63.0416901 L138.951072,0.784868594 L157.079456,0.784868594 L157.079456,107.295297 L138.951072,107.295297 L138.951072,79.1228202 L90.5563104,79.1228202 C91.0445584,86.7779212 96.5096961,94.7383741 108.903716,94.7822045 C115.224938,94.7822045 120.851891,92.8074015 125.229122,89.4540106 L125.229122,89.4540106 L133.929378,99.8357278 C127.85118,105.389161 118.953104,109.012596 106.646694,109.012596 C96.6499099,109.012596 86.7245333,106.021658 79.8782597,98.3703315 C76.5199292,94.6182057 73.945876,89.6734061 72.6097445,83.6048438 C68.7149613,97.2541173 56.5459639,106.335533 38.7688147,107.056786 C33.152062,107.2858 27.1294694,107.324882 20.9614625,107.295297 C14.0307806,107.265711 6.91828073,107.295297 1.0658141e-14,107.295297 L1.0658141e-14,107.295297 L1.0658141e-14,0.25147698 Z M187,0.780972558 L187,107.295297 L169.180247,107.295297 L169.180247,0.780972558 L187,0.780972558 Z M30.4353947,57.2183344 L18.6272328,57.2183344 L18.6256327,92.1367964 L31.8215311,92.1367964 C34.0761529,92.1367964 36.851226,92.0423175 39.1222495,91.627268 C49.4558662,89.7412215 53.8390975,82.7738925 53.8390975,74.5062616 C53.8390975,66.5201193 49.0824295,60.4888128 40.7962142,58.2840219 C38.3831767,57.6420283 34.1611613,57.2183344 30.4353947,57.2183344 L30.4353947,57.2183344 Z M106.530082,52.4014953 C98.1630588,52.4014953 92.4861002,58.019822 90.8893431,65.8170066 L90.8893431,65.8170066 L121.918396,65.8170066 C120.473654,57.4321294 114.904706,52.4014953 106.530082,52.4014953 Z M23.6653286,14.7078386 L18.6272328,14.7097866 L18.6272328,42.8974819 L24.5714177,42.8974819 C27.8587412,42.8974819 30.1821698,42.7124202 31.7979288,42.3784569 C41.4482783,40.3760164 43.2016509,33.0547569 43.1960503,28.4010642 C43.1960503,22.8876869 40.6007949,18.4829752 35.1376574,16.3306591 C32.3709852,15.2430564 28.5286071,14.7078386 23.6653286,14.7078386 L23.6653286,14.7078386 Z" id="path-1"></path>
    </defs>
    <g id="Brand" stroke="none" stroke-width="1" fill="none" fill-rule="evenodd">
        <g id="Logo" transform="translate(-736.000000, -502.000000)">
            <g id="Group" transform="translate(278.000000, 429.000000)">
                <g id="Group-13">
                    <g id="LOGO-/-Bell" transform="translate(458.500000, 73.000000)">
                        <mask id="mask-2" fill="white">
                            <use xlink:href="#path-1"></use>
                        </mask>
                        <use id="Combined-shape-16079" fill="#FFFFFF" xlink:href="#path-1"></use>
                        <g id="Tint-/-White-Tint-/-Blue" mask="url(#mask-2)" fill="#00549A">
                            <rect id="Tint-/-White" x="0" y="0" width="187" height="109"></rect>
                        </g>
                    </g>
                </g>
            </g>
        </g>
    </g>
</svg>