<?xml version="1.0" encoding="UTF-8"?>
<svg width="271px" height="99px" viewBox="0 0 271 99" version="1.1" xmlns="http://www.w3.org/2000/svg" xmlns:xlink="http://www.w3.org/1999/xlink">
    <!-- Generator: sketchtool 53.2 (72643) - https://sketchapp.com -->
    <title>229482C3-2B9F-4ED5-9ED4-EDAD0B889109</title>
    <desc>Created with sketchtool.</desc>
    <g id="Page-1" stroke="none" stroke-width="1" fill="none" fill-rule="evenodd">
        <g id="Logo-tagline" transform="translate(-477.000000, -1142.000000)">
            <g id="Group-2" transform="translate(300.000000, 0.000000)">
                <g id="Group-3" transform="translate(87.000000, 642.000000)">
                    <g id="logo" transform="translate(2.000000, 450.000000)">
                        <g id="logo-aliant_taglineEN" transform="translate(88.000000, 49.000000)">
                            <path d="M48.3961702,38.8323404 C49.2387234,34.7812766 52.2365957,31.8621277 56.6493617,31.8621277 C61.0706383,31.8621277 64.0131915,34.4791489 64.7748936,38.8323404 L48.3961702,38.8323404 Z M17.9195745,52.5153191 L10.2578723,52.5153191 L10.2578723,34.3642553 L16.4897872,34.3642553 C18.4578723,34.3642553 20.6855319,34.5812766 21.96,34.9174468 C26.3280851,36.0642553 28.8429787,39.1982979 28.8429787,43.3514894 C28.8429787,48.4025532 25.647234,52.5153191 17.9195745,52.5153191 L17.9195745,52.5153191 Z M10.2578723,12.2706383 L12.9174468,12.266383 C15.4855319,12.266383 17.5110638,12.5451064 18.972766,13.1131915 C21.853617,14.2302128 23.2259574,16.5238298 23.2259574,19.3876596 C23.2259574,21.8068085 22.3046809,25.6131915 17.2068085,26.653617 C16.3578723,26.8280851 15.1302128,26.9195745 13.3961702,26.9195745 L10.2578723,26.9195745 L10.2578723,12.2706383 Z M73.76,5.03021277 L73.76,37.3919149 C73.2429787,34.8855319 72.253617,32.8131915 70.8238298,30.9323404 C67.8940426,27.0642553 63.1429787,24.6195745 56.7259574,24.6195745 C46.7365957,24.6195745 40.5961702,31.4004255 38.7812766,38.5493617 C37.147234,33.5068085 32.7791489,30.1110638 28.1621277,28.6748936 C31.6387234,26.1365957 33.4557447,22.5131915 33.4557447,18.3791489 C33.4557447,14.5408511 31.8578723,11.0429787 29.1812766,8.76851064 C25.2578723,5.43446809 19.9046809,4.75148936 13.3153191,4.75148936 L0.428085106,4.75148936 L0.428085106,60.3961702 C4.0812766,60.3961702 7.83021277,60.3812766 11.4897872,60.3961702 C14.747234,60.4089362 17.9280851,60.3919149 20.8897872,60.272766 C30.2706383,59.8961702 36.6940426,55.172766 38.7493617,48.0834043 C39.4557447,51.2344681 40.8131915,53.8068085 42.5834043,55.7578723 C46.1982979,59.7344681 51.4387234,61.2876596 56.7110638,61.2876596 C63.2068085,61.2876596 67.9025532,59.4068085 71.1110638,56.5153191 L66.5174468,51.1217021 C64.2089362,52.8621277 61.2387234,53.8940426 57.9046809,53.8940426 C51.36,53.8685106 48.4791489,49.7302128 48.2195745,45.7514894 L73.76,45.7514894 L73.76,60.3961702 L83.3323404,60.3961702 L83.3323404,5.03021277 L73.76,5.03021277 Z" id="Fill-1" fill="#00549A"></path>
                            <polygon id="Fill-3" fill="#00549A" points="89.7148936 60.3961702 99.1212766 60.3961702 99.1212766 5.03234043 89.7148936 5.03234043"></polygon>
                            <polygon id="Fill-5" fill="#00549A" points="28.4419149 90.0438298 28.4419149 68.3204255 31.2674468 68.3204255 31.2674468 99.0310638 28.4419149 99.0310638"></polygon>
                            <path d="M12.6829787,71.0008511 C12.2468085,71.0008511 12.2042553,71.4838298 12.0297872,72.0476596 L7.97659574,83.9902128 L17.3021277,83.9902128 L13.3361702,72.0476596 C13.1617021,71.526383 13.1191489,71.0008511 12.6829787,71.0008511 L12.6829787,71.0008511 Z M18.1744681,86.607234 L7.14468085,86.607234 L3.09361702,99.0306383 L0,99.0306383 L9.32765957,71.1774468 C9.84893617,69.6540426 10.7659574,68.3455319 12.6829787,68.3455319 C14.6893617,68.3455319 15.4744681,69.6540426 15.9978723,71.1774468 L25.3234043,99.0306383 L22.2297872,99.0306383 L18.1744681,86.607234 Z" id="Fill-6" fill="#00549A"></path>
                            <path d="M36.8553191,99.0302128 L39.7042553,99.0302128 L39.7042553,79.2046809 L36.8553191,79.2046809 L36.8553191,99.0302128 Z M38.2191489,75.2834043 C37.0191489,75.2834043 36.4404255,74.66 36.4404255,73.4642553 C36.4404255,72.266383 37.0191489,71.6897872 38.2191489,71.6897872 C39.4170213,71.6897872 39.9510638,72.266383 39.9510638,73.4642553 C39.9510638,74.66 39.4170213,75.2834043 38.2191489,75.2834043 L38.2191489,75.2834043 Z" id="Fill-7" fill="#00549A"></path>
                            <path d="M53.9365957,81.573617 C48.9855319,81.573617 46.7217021,85.1204255 46.7217021,89.5097872 C46.7217021,93.9395745 49.0259574,96.9629787 53.8153191,96.9629787 C56.1110638,96.9629787 58.366383,96.2374468 59.9365957,95.3502128 L59.9365957,87.6182979 C59.9365957,83.7480851 57.1982979,81.573617 53.9365957,81.573617 L53.9365957,81.573617 Z M62.8110638,79.7225532 L62.8110638,99.0523404 L60.2195745,99.0523404 L60.1812766,98.892766 C60.0174468,98.0459574 59.3748936,98.0459574 58.8514894,98.2055319 C58.0068085,98.4523404 57.1982979,98.7310638 56.353617,98.973617 C55.5089362,99.173617 54.6217021,99.3353191 53.5748936,99.3353191 C47.6961702,99.3353191 43.8706383,95.5502128 43.8706383,89.5885106 C43.8706383,83.9097872 47.5748936,79.1991489 53.8153191,79.1991489 C56.5940426,79.1991489 58.6897872,80.167234 60.0578723,81.7374468 L60.0578723,79.7225532 L62.8110638,79.7225532 Z" id="Fill-8" fill="#00549A"></path>
                            <path d="M81.7040426,86.9904255 C81.7040426,83.262766 79.6891489,81.65 75.7125532,81.65 C73.7253191,81.65 71.463617,82.2989362 70.2444681,83.1117021 L70.2444681,99.0478723 L67.363617,99.0478723 L67.3614894,81.8521277 C69.6338298,80.2308511 72.9997872,79.1776596 75.8359574,79.1776596 C81.2317021,79.1776596 84.5423404,81.45 84.5423404,86.5180851 L84.5380851,99.0478723 L81.7019149,99.0478723 L81.7040426,86.9904255 Z" id="Fill-9" fill="#00549A"></path>
                            <path d="M88.336383,73.9034043 L91.1704255,73.9034043 L91.1704255,79.2076596 L97.7087234,79.2076596 L97.7087234,81.9714894 L91.1704255,81.9714894 L91.1704255,92.8502128 C91.1704255,95.3693617 92.3810638,96.8523404 94.9406383,96.8523404 C96.3448936,96.8523404 97.8725532,96.4842553 99.1512766,96.0289362 L99.1512766,98.3395745 C97.83,98.9587234 96.0151064,99.2480851 94.5278723,99.2480851 C90.6491489,99.2480851 88.336383,96.8970213 88.336383,93.0161702 L88.336383,73.9034043 Z" id="Fill-10" fill="#00549A"></path>
                            <path d="M149.779787,4.68382979 L152.081915,4.68382979 L152.081915,9.25191489 L157.75,9.25191489 L157.75,11.413617 L152.081915,11.413617 L152.081915,20.9412766 C152.081915,23.1029787 153.179787,24.3774468 155.375532,24.3774468 C156.579787,24.3774468 157.890426,24.0582979 158.988298,23.6689362 L158.988298,25.6519149 C157.854255,26.1838298 156.296809,26.4306383 155.02234,26.4306383 C151.692553,26.4306383 149.779787,24.4114894 149.779787,21.0838298 L149.779787,4.68382979 Z" id="Fill-11" fill="#231F20"></path>
                            <path d="M176.555319,17.6119149 C176.555319,13.9991489 174.004255,10.7757447 170.214894,10.7757447 C166.319149,10.7757447 163.944681,13.892766 163.944681,17.6119149 C163.944681,21.367234 166.282979,24.5544681 170.214894,24.5544681 C174.040426,24.5544681 176.555319,21.5438298 176.555319,17.6119149 M178.857447,17.6480851 C178.857447,22.7119149 175.351064,26.5374468 170.214894,26.5374468 C165.185106,26.5374468 161.642553,22.6055319 161.642553,17.6480851 C161.642553,12.7587234 165.221277,8.79276596 170.214894,8.79276596 C175.351064,8.79276596 178.857447,12.6182979 178.857447,17.6480851" id="Fill-12" fill="#231F20"></path>
                            <path d="M191.534255,10.8819149 C187.532128,10.8819149 185.26617,13.856383 185.26617,17.6478723 C185.26617,21.4010638 187.249149,24.5180851 191.427872,24.5180851 C193.942766,24.5180851 195.608723,23.6691489 197.025745,22.6414894 L197.025745,15.9478723 C197.025745,13.043617 194.79383,10.8819149 191.534255,10.8819149 L191.534255,10.8819149 Z M199.327872,26.2542553 L197.20234,26.2542553 L197.20234,25.7946809 C197.20234,25.0159574 196.564043,25.156383 196.068298,25.3691489 C194.75766,25.9712766 192.987447,26.4670213 191.287447,26.4670213 C185.90234,26.4670213 182.964043,22.7138298 182.964043,17.6819149 C182.964043,12.7244681 186.364043,8.89893617 191.427872,8.89893617 C194.119362,8.89893617 195.925745,9.78404255 197.20234,11.0585106 L197.20234,0.99893617 L199.327872,0.99893617 L199.327872,26.2542553 Z" id="Fill-13" fill="#231F20"></path>
                            <path d="M213.385319,10.7759574 C209.03,10.7759574 206.868298,13.9993617 206.868298,17.8610638 C206.868298,21.7568085 209.064043,24.5185106 213.278936,24.5185106 C215.298085,24.5185106 217.281064,23.7738298 218.661915,22.9951064 L218.661915,16.1951064 C218.661915,12.7951064 216.255532,10.7759574 213.385319,10.7759574 L213.385319,10.7759574 Z M220.93,9.25255319 L220.93,26.2546809 L218.910851,26.2546809 L218.876809,26.1121277 C218.734255,25.3695745 218.168298,25.3695745 217.706596,25.51 C216.964043,25.722766 216.255532,25.9717021 215.510851,26.1844681 C214.76617,26.3610638 213.987447,26.503617 213.06617,26.503617 C207.895957,26.503617 204.53,23.1738298 204.53,17.9312766 C204.53,12.9376596 207.789574,8.79297872 213.278936,8.79297872 C215.723617,8.79297872 217.564043,9.64191489 218.768298,11.0248936 L218.768298,9.25255319 L220.93,9.25255319 Z" id="Fill-14" fill="#231F20"></path>
                            <path d="M239.806383,23.3144681 L239.806383,9.25276596 L242.07234,9.25276596 L242.07234,26.2548936 C242.07234,31.6378723 239.380851,35.1804255 234.031915,35.1804255 C232.085106,35.1804255 230.455319,34.8612766 228.931915,34.0123404 L229.42766,32.027234 C230.880851,32.7719149 232.191489,33.1612766 233.997872,33.1612766 C237.96383,33.1612766 239.806383,30.4697872 239.806383,26.5740426 L239.806383,25.5102128 C238.353191,26.1485106 236.617021,26.5740426 234.529787,26.5740426 C229.959574,26.5740426 227.055319,24.0931915 227.055319,19.4548936 L227.055319,9.25276596 L229.321277,9.25276596 L229.321277,19.3485106 C229.321277,22.146383 230.774468,24.5187234 234.529787,24.5187234 C236.051064,24.5187234 238.070213,24.1634043 239.806383,23.3144681" id="Fill-15" fill="#231F20"></path>
                            <path d="M153.215532,38.9653191 C153.215532,37.9376596 152.719787,37.4419149 151.728298,37.4419149 C150.700638,37.4419149 150.204894,37.9376596 150.204894,38.9653191 C150.204894,39.9929787 150.700638,40.522766 151.728298,40.522766 C152.719787,40.522766 153.215532,39.9929787 153.215532,38.9653191 L153.215532,38.9653191 Z M145.138936,67.0887234 C150.451702,67.6908511 150.594255,64.6440426 150.594255,62.5185106 L150.594255,43.8887234 L152.82617,43.8887234 L152.82617,62.6270213 C152.82617,66.2738298 151.338936,69.8865957 144.96234,69.2142553 L145.138936,67.0887234 Z" id="Fill-16" fill="#231F20"></path>
                            <path d="M171.029574,58.6940426 L171.029574,43.9238298 L173.33383,43.9238298 L173.33383,60.2876596 C171.455106,60.9259574 169.223191,61.3153191 166.814681,61.3153191 C161.465745,61.3153191 158.952979,58.8706383 158.952979,54.4791489 L158.952979,43.9238298 L161.218936,43.9238298 L161.218936,54.4089362 C161.218936,57.2068085 162.67,59.2259574 166.921064,59.2259574 C168.018936,59.2259574 170.004043,59.0493617 171.029574,58.6940426" id="Fill-17" fill="#231F20"></path>
                            <path d="M185.619787,51.1142553 C188.772979,51.9631915 191.711277,53.31 191.711277,56.6057447 C191.711277,59.297234 190.260213,61.3142553 184.628298,61.3142553 C181.724043,61.3142553 179.032553,60.5717021 177.934681,58.2334043 L179.91766,57.2419149 C180.766596,58.8717021 182.149574,59.403617 184.804894,59.403617 C188.381489,59.403617 189.51766,58.3397872 189.51766,56.8525532 C189.51766,54.9738298 187.602766,53.9844681 185.05383,53.2759574 C181.085745,52.1780851 178.713404,50.8653191 178.713404,47.8568085 C178.713404,44.916383 181.121915,43.5334043 184.911277,43.5334043 C187.000638,43.5334043 189.834681,43.6759574 191.181489,46.3695745 L189.302766,47.3248936 C188.45383,45.7653191 186.71766,45.4121277 184.770851,45.4121277 C183.068723,45.4121277 180.979362,45.8717021 180.979362,47.6780851 C180.979362,49.0248936 181.65383,50.016383 185.619787,51.1142553" id="Fill-18" fill="#231F20"></path>
                            <path d="M196.384681,39.3197872 L198.686809,39.3197872 L198.686809,43.8878723 L204.354894,43.8878723 L204.354894,46.0495745 L198.686809,46.0495745 L198.686809,55.577234 C198.686809,57.7389362 199.784681,59.0134043 201.980426,59.0134043 C203.184681,59.0134043 204.495319,58.6942553 205.593191,58.3048936 L205.593191,60.2878723 C204.459149,60.8197872 202.901702,61.0665957 201.627234,61.0665957 C198.297447,61.0665957 196.384681,59.0474468 196.384681,55.7197872 L196.384681,39.3197872 Z" id="Fill-19" fill="#231F20"></path>
                            <path d="M231.624043,50.476383 C231.624043,47.3253191 229.358085,45.5168085 226.204894,45.5168085 C222.272979,45.5168085 220.041064,48.5997872 220.041064,52.3189362 C220.041064,56.0721277 221.847447,59.1912766 226.204894,59.1912766 C228.364468,59.1912766 230.243191,58.3742553 231.624043,57.5253191 L231.624043,50.476383 Z M226.381489,43.5338298 C231.198511,43.5338298 233.92617,46.3678723 233.92617,50.1934043 L233.92617,60.9955319 C234.138936,66.3444681 231.16234,69.9231915 225.815532,69.9231915 C223.830426,69.9231915 221.847447,69.5678723 220.324043,68.7529787 L220.819787,66.77 C222.272979,67.4785106 223.972979,67.9040426 225.779362,67.9040426 C229.711277,67.9040426 231.694255,65.2104255 231.694255,61.3146809 L231.694255,60.9253191 C231.694255,59.8976596 231.055957,59.97 230.45383,60.2168085 C228.79,60.8551064 227.409149,61.1742553 225.955957,61.1742553 C220.607021,61.1742553 217.632553,57.3848936 217.632553,52.3529787 C217.632553,47.4295745 220.892128,43.5338298 226.381489,43.5338298 L226.381489,43.5338298 Z" id="Fill-20" fill="#231F20"></path>
                            <path d="M253.935532,52.2476596 C253.935532,48.6348936 251.384468,45.4114894 247.595106,45.4114894 C243.699362,45.4114894 241.324894,48.5285106 241.324894,52.2476596 C241.324894,56.0029787 243.663191,59.1902128 247.595106,59.1902128 C251.420638,59.1902128 253.935532,56.1795745 253.935532,52.2476596 M256.23766,52.2838298 C256.23766,57.3476596 252.731277,61.1731915 247.595106,61.1731915 C242.565319,61.1731915 239.022766,57.2412766 239.022766,52.2838298 C239.022766,47.3944681 242.601489,43.4285106 247.595106,43.4285106 C252.731277,43.4285106 256.23766,47.2540426 256.23766,52.2838298" id="Fill-21" fill="#231F20"></path>
                            <path d="M261.228511,39.3197872 L263.530638,39.3197872 L263.530638,43.8878723 L269.198723,43.8878723 L269.198723,46.0495745 L263.530638,46.0495745 L263.530638,55.577234 C263.530638,57.7389362 264.628511,59.0134043 266.824255,59.0134043 C268.028511,59.0134043 269.339149,58.6942553 270.437021,58.3048936 L270.437021,60.2878723 C269.302979,60.8197872 267.745532,61.0665957 266.471064,61.0665957 C263.141277,61.0665957 261.228511,59.0474468 261.228511,55.7197872 L261.228511,39.3197872 Z" id="Fill-22" fill="#231F20"></path>
                            <path d="M152.011489,90.4251064 L152.011489,95.7017021 C153.464681,96.7293617 155.377447,97.6868085 157.749787,97.6868085 C161.928511,97.6868085 163.94766,94.533617 163.94766,90.6740426 C163.94766,87.0591489 162.071064,84.0846809 158.102979,84.0846809 C154.668936,84.0846809 152.011489,86.6357447 152.011489,90.4251064 M153.109362,98.5017021 C152.366809,98.146383 152.011489,98.4655319 152.011489,99.0676596 L152.011489,99.4229787 L149.815745,99.4229787 L149.815745,74.2017021 L152.011489,74.2017021 L152.011489,84.9719149 C153.464681,82.9868085 155.694468,82.0314894 158.245532,82.0314894 C163.168936,82.0314894 166.285957,85.5719149 166.285957,90.6740426 C166.285957,95.7017021 162.99234,99.6357447 157.926383,99.6357447 C155.837021,99.6357447 154.596596,99.2080851 153.109362,98.5017021" id="Fill-23" fill="#231F20"></path>
                            <path d="M171.985319,89.256383 L183.285319,89.256383 C182.89383,86.1393617 181.087447,83.9074468 177.79383,83.9074468 C174.642766,83.9074468 172.444894,86.3159574 171.985319,89.256383 M178.361915,97.7223404 C180.627872,97.7223404 182.470426,97.0138298 184.204468,95.737234 L185.268298,97.4393617 C183.285319,98.962766 181.053404,99.7414894 178.185319,99.7414894 C172.69383,99.7414894 169.542766,95.9861702 169.542766,90.85 C169.542766,85.856383 172.942766,81.9606383 177.79383,81.9606383 C182.400213,81.9606383 185.444894,85.0414894 185.691702,89.5755319 C185.691702,89.5755319 185.800213,90.9202128 185.800213,91.2053191 L171.915106,91.2053191 C172.021489,95.0287234 174.287447,97.7223404 178.361915,97.7223404" id="Fill-24" fill="#231F20"></path>
                            <path d="M190.754894,77.8512766 L193.057021,77.8512766 L193.057021,82.4193617 L198.725106,82.4193617 L198.725106,84.5810638 L193.057021,84.5810638 L193.057021,94.1087234 C193.057021,96.2704255 194.154894,97.5448936 196.350638,97.5448936 C197.554894,97.5448936 198.865532,97.2257447 199.963404,96.836383 L199.963404,98.8193617 C198.829362,99.3512766 197.271915,99.5980851 195.997447,99.5980851 C192.66766,99.5980851 190.754894,97.5789362 190.754894,94.2512766 L190.754894,77.8512766 Z" id="Fill-25" fill="#231F20"></path>
                            <path d="M204.531702,77.8512766 L206.83383,77.8512766 L206.83383,82.4193617 L212.501915,82.4193617 L212.501915,84.5810638 L206.83383,84.5810638 L206.83383,94.1087234 C206.83383,96.2704255 207.931702,97.5448936 210.127447,97.5448936 C211.331702,97.5448936 212.64234,97.2257447 213.740213,96.836383 L213.740213,98.8193617 C212.60617,99.3512766 211.048723,99.5980851 209.774255,99.5980851 C206.444468,99.5980851 204.531702,97.5789362 204.531702,94.2512766 L204.531702,77.8512766 Z" id="Fill-26" fill="#231F20"></path>
                            <path d="M218.980851,89.256383 L230.280851,89.256383 C229.889362,86.1393617 228.082979,83.9074468 224.789362,83.9074468 C221.638298,83.9074468 219.440426,86.3159574 218.980851,89.256383 M225.357447,97.7223404 C227.623404,97.7223404 229.465957,97.0138298 231.2,95.737234 L232.26383,97.4393617 C230.280851,98.962766 228.048936,99.7414894 225.180851,99.7414894 C219.689362,99.7414894 216.538298,95.9861702 216.538298,90.85 C216.538298,85.856383 219.938298,81.9606383 224.789362,81.9606383 C229.395745,81.9606383 232.440426,85.0414894 232.687234,89.5755319 C232.687234,89.5755319 232.795745,90.9202128 232.795745,91.2053191 L218.910638,91.2053191 C219.017021,95.0287234 221.282979,97.7223404 225.357447,97.7223404" id="Fill-27" fill="#231F20"></path>
                            <path d="M249.439149,84.0846809 L247.739149,85.4655319 C246.958298,84.4038298 245.364681,84.0485106 244.126383,84.0485106 C243.205106,84.0485106 242.28383,84.1570213 241.434894,84.5102128 C240.264681,85.0059574 239.981702,85.5378723 239.981702,86.7421277 L239.981702,99.4208511 L237.679574,99.4208511 L237.679574,85.8910638 C237.679574,82.8102128 241.681702,81.9953191 244.126383,81.9953191 C246.073191,81.9953191 248.234894,82.3846809 249.439149,84.0846809" id="Fill-28" fill="#231F20"></path>
                            <path d="M124.482766,98.8640426 L124.482766,5.03212766" id="Stroke-29" stroke="#231F20" stroke-width="0.406"></path>
                        </g>
                    </g>
                </g>
            </g>
        </g>
    </g>
</svg>