<?xml version="1.0" encoding="UTF-8"?>
<svg width="128px" height="35px" viewBox="0 0 128 35" version="1.1" xmlns="http://www.w3.org/2000/svg" xmlns:xlink="http://www.w3.org/1999/xlink">
    <!-- Generator: sketchtool 53.2 (72643) - https://sketchapp.com -->
    <title>69298E56-45E6-42AE-B537-64166CA641DD</title>
    <desc>Created with sketchtool.</desc>
    <g id="Page-1" stroke="none" stroke-width="1" fill="none" fill-rule="evenodd">
        <g id="Logo-tagline" transform="translate(-929.000000, -2889.000000)">
            <g id="Group-2" transform="translate(300.000000, 0.000000)">
                <g id="Group-10-Copy" transform="translate(90.000000, 2753.000000)">
                    <g id="Group-3" transform="translate(0.000000, 94.000000)">
                        <g id="logo" transform="translate(488.000000, 0.000000)">
                            <g id="logo_taglineFR_blue" transform="translate(51.000000, 42.000000)">
                                <path d="M0.156893004,34.1277263 L0.156893004,23.1404578 L1.16013374,23.1404578 L1.16013374,34.1277263 L0.156893004,34.1277263 Z M10.3551916,26.7106199 L10.3551916,34.1292541 L9.47671939,34.1292541 L9.46016847,34.0668699 C9.39778421,33.7409439 9.15079347,33.7409439 8.94963606,33.802055 C8.62625643,33.8975412 8.31433513,34.0044856 7.99222865,34.0974254 C7.66757587,34.1750874 7.32764532,34.2361986 6.92660365,34.2361986 C4.66931199,34.2361986 3.20264532,32.7835365 3.20264532,30.4956893 C3.20264532,28.3173328 4.62347865,26.5094624 7.01827032,26.5094624 C8.08516847,26.5094624 8.88852495,26.8799486 9.41433513,27.4834208 L9.41433513,26.7106199 L10.3551916,26.7106199 Z M7.06410365,27.3752032 C5.16583976,27.3752032 4.22116384,28.7807587 4.22116384,30.4651337 C4.22116384,32.1647865 5.18111754,33.3704578 7.01827032,33.3704578 C7.89801569,33.3704578 8.76375643,33.045805 9.3685018,32.7058745 L9.3685018,29.7394393 C9.3685018,28.2562217 8.31433513,27.3752032 7.06410365,27.3752032 Z M19.6154347,34.22143 C18.8426337,34.22143 18.5485365,33.6179578 18.2709902,32.9228189 L15.845643,26.7111291 L16.9405504,26.7111291 L19.1978421,32.6452726 C19.3366152,33.000481 19.4766615,33.3085828 19.6154347,33.3085828 C19.7860365,33.3085828 19.9082587,33.0157587 20.048305,32.6452726 L22.2253884,26.7111291 L23.2770087,26.7111291 L20.958606,32.9380967 C20.7128884,33.5708513 20.3716847,34.22143 19.6154347,34.22143 Z M25.6280041,25.2429347 C25.1785828,25.2429347 24.9646939,25.0112217 24.9646939,24.5618004 C24.9646939,24.1136523 25.1785828,23.8984902 25.6280041,23.8984902 C26.0774254,23.8984902 26.2785828,24.1136523 26.2785828,24.5618004 C26.2785828,25.0112217 26.0774254,25.2429347 25.6280041,25.2429347 Z M25.1174717,34.1295087 L25.1174717,26.7108745 L26.1232587,26.7108745 L26.1232587,34.1295087 L25.1174717,34.1295087 Z M32.1355736,33.3871361 C33.1222634,33.3871361 33.926893,33.0777611 34.6844162,32.5201222 L35.1478421,33.2623675 C34.2833745,33.928224 33.3094162,34.2668814 32.0566384,34.2668814 C29.6631199,34.2668814 28.2868467,32.6296129 28.2868467,30.387599 C28.2868467,28.2092425 29.7700643,26.5095898 31.8885828,26.5095898 C33.8963374,26.5095898 35.2255041,27.8540342 35.3337217,29.8325064 C35.3337217,29.8325064 35.379555,30.4194277 35.379555,30.5429231 L29.320643,30.5429231 C29.3677495,32.2120203 30.3582587,33.3871361 32.1355736,33.3871361 Z M29.3511986,29.6937333 L34.2833745,29.6937333 C34.1127726,28.3327379 33.3246939,27.3600527 31.8885828,27.3600527 C30.5123097,27.3600527 29.5549023,28.4091268 29.3511986,29.6937333 Z M45.0559902,33.3871361 C46.0439532,33.3871361 46.8473097,33.0777611 47.6048328,32.5201222 L48.0682587,33.2623675 C47.2037912,33.928224 46.231106,34.2668814 44.9783282,34.2668814 C42.5848097,34.2668814 41.2098097,32.6296129 41.2098097,30.387599 C41.2098097,28.2092425 42.6917541,26.5095898 44.8102726,26.5095898 C46.8180273,26.5095898 48.1471939,27.8540342 48.2554115,29.8325064 C48.2554115,29.8325064 48.3012449,30.4194277 48.3012449,30.5429231 L42.2423328,30.5429231 C42.2894393,32.2120203 43.2786754,33.3871361 45.0559902,33.3871361 Z M42.2728884,29.6937333 L47.2037912,29.6937333 C47.0331893,28.3327379 46.2463837,27.3600527 44.8102726,27.3600527 C43.4339995,27.3600527 42.4765921,28.4091268 42.2728884,29.6937333 Z M53.1386986,29.8624254 C54.5149717,30.2341847 55.7970319,30.821106 55.7970319,32.2584902 C55.7970319,33.4323328 55.1642773,34.3146245 52.7058282,34.3146245 C51.4390458,34.3146245 50.2652032,33.9874254 49.7852263,32.9689069 L50.6509671,32.5373097 C51.0227263,33.2477263 51.6261986,33.4807124 52.7834902,33.4807124 C54.3443699,33.4807124 54.8396245,33.0160134 54.8396245,32.3667078 C54.8396245,31.5468004 54.0057124,31.11393 52.8917078,30.8058282 C51.1614995,30.3271245 50.12643,29.755481 50.12643,28.4403189 C50.12643,27.1595319 51.1755041,26.5560597 52.8305967,26.5560597 C53.7421708,26.5560597 54.9783976,26.6171708 55.5653189,27.7935597 L54.7466847,28.208606 C54.3749254,27.5287449 53.6174023,27.3746939 52.7669393,27.3746939 C52.0259671,27.3746939 51.114393,27.5758513 51.114393,28.36393 C51.114393,28.9508513 51.4084902,29.3837217 53.1386986,29.8624254 Z M57.6059208,24.7176337 L58.6104347,24.7176337 L58.6104347,26.7101106 L61.0828884,26.7101106 L61.0828884,27.6522402 L58.6104347,27.6522402 L58.6104347,31.8103421 C58.6104347,32.7524717 59.0891384,33.3088374 60.0478189,33.3088374 C60.5736291,33.3088374 61.1439995,33.1700643 61.6239763,32.9994624 L61.6239763,33.8652032 C61.131268,34.0969162 60.4488606,34.2051337 59.893768,34.2051337 C58.4398328,34.2051337 57.6059208,33.3241152 57.6059208,31.8714532 L57.6059208,24.7176337 Z" id="Combined-Shape" fill="#020303"></path>
                                <g id="Group-20" transform="translate(3.073560, 0.260712)" fill="#00549A">
                                    <path d="M108.685972,19.9375 L108.685972,0.388310185 L114.464792,0.388310185 L114.464792,33.8364583 L108.685972,33.8364583 L108.685972,24.9880787 L93.2566898,24.9880787 C93.4107407,27.3930556 95.1536806,29.8935185 99.1055324,29.90625 C101.120926,29.90625 102.916065,29.2849537 104.308889,28.2333333 L107.083079,31.4938657 C105.14662,33.2368056 102.308773,34.375 98.3849306,34.375 C95.1969676,34.375 92.0331944,33.4354167 89.8497454,31.0329861 C88.7790278,29.8540509 87.9603935,28.3008102 87.5326157,26.3974537 C86.2912963,30.6815972 82.4107407,33.5347222 76.7426852,33.7626157 C74.9526389,33.833912 73.0301852,33.8453704 71.0631713,33.8364583 C68.8542593,33.8275463 66.5867824,33.8364583 64.3791435,33.8364583 L64.3791435,0.22025463 L72.1657176,0.22025463 C76.148125,0.22025463 79.379375,0.630208333 81.7537963,2.64814815 C83.3681481,4.02060185 84.3344676,6.13275463 84.3344676,8.45243056 C84.3344676,10.9490741 83.2370139,13.140162 81.1350463,14.669213 C83.925787,15.5375 86.5650231,17.5923611 87.5504398,20.6377315 C88.6504398,16.3179398 92.3616667,12.2209491 98.3925694,12.2209491 C102.273125,12.2209491 105.141528,13.6990741 106.909931,16.0353009 C107.774398,17.1734954 108.374051,18.4262731 108.685972,19.9375 Z M70.3196528,4.76157407 L70.3196528,13.6137731 L72.2153704,13.6137731 C73.2631713,13.6137731 74.0066898,13.5552083 74.5184954,13.449537 C77.5969676,12.821875 78.1571528,10.5225694 78.1558796,9.06099537 C78.1558796,7.33206019 77.325787,5.94560185 75.5841204,5.26956019 C74.7031019,4.92708333 73.4796065,4.76030093 71.9263657,4.76030093 L70.3196528,4.76157407 Z M76.8547222,28.9170139 C80.1509028,28.3224537 81.5488194,26.1351852 81.5488194,23.537963 C81.5488194,21.0298611 80.0299537,19.1366898 77.3894444,18.4428241 C76.6191898,18.2416667 75.2747454,18.1079861 74.085625,18.1079861 L70.3196528,18.1079861 L70.3196528,29.0748843 L74.5286806,29.0748843 C75.2467361,29.0748843 76.1315741,29.0456019 76.8547222,28.9170139 Z M93.361088,20.8096065 L103.254722,20.8096065 C102.795116,18.1780093 101.019074,16.5980324 98.3480093,16.5980324 C95.6794907,16.5980324 93.8690741,18.3600694 93.361088,20.8096065 Z M118.325231,33.8351852 L118.325231,0.387037037 L124.006019,0.387037037 L124.006019,33.8351852 L118.325231,33.8351852 Z" id="Combined-Shape"></path>
                                </g>
                            </g>
                        </g>
                    </g>
                </g>
            </g>
        </g>
    </g>
</svg>