<?xml version="1.0" encoding="UTF-8"?>
<svg width="281px" height="61px" viewBox="0 0 281 61" version="1.1" xmlns="http://www.w3.org/2000/svg" xmlns:xlink="http://www.w3.org/1999/xlink">
    <!-- Generator: sketchtool 53.2 (72643) - https://sketchapp.com -->
    <title>409927A8-0282-47F9-A5C7-0D7623C4E70F</title>
    <desc>Created with sketchtool.</desc>
    <g id="Page-1" stroke="none" stroke-width="1" fill="none" fill-rule="evenodd">
        <g id="Logo-tagline" transform="translate(-484.000000, -2558.000000)">
            <g id="Group-2" transform="translate(300.000000, 0.000000)">
                <g id="Group-10" transform="translate(87.000000, 2417.000000)">
                    <g id="Group-3-Copy-6" transform="translate(2.000000, 91.000000)">
                        <g id="logo">
                            <g id="logo_minimumwidth_taglineEN" transform="translate(95.000000, 50.000000)">
                                <text id="Print:-0.375”" font-family="BellSlimBold, Bell Slim Bold" font-size="16" font-weight="bold" line-spacing="20" fill="#555555">
                                    <tspan x="153" y="19">Print: 0.375”</tspan>
                                </text>
                                <text id="On-screen:-46-px" font-family="BellSlimBold, Bell Slim Bold" font-size="16" font-weight="bold" line-spacing="20" fill="#555555">
                                    <tspan x="153" y="49.126">On-screen: 46 px</tspan>
                                </text>
                                <g id="Group-25" transform="translate(0.000000, 32.000000)">
                                    <path d="M23.1220772,17.3917632 L30.8973543,17.3917632 C30.5363593,15.3247197 29.1392392,14.0837993 27.0426913,14.0837993 C24.9461434,14.0837993 23.52299,15.467035 23.1220772,17.3917632 Z M10.1505548,23.7612424 C12.7417353,23.2943786 13.8386047,21.5761813 13.8386047,19.535171 C13.8386047,17.5653185 12.6462799,16.0744785 10.5705586,15.5347216 C9.96485061,15.3750507 8.90963444,15.2674464 7.97417141,15.2674464 L5.0150537,15.2674464 L5.0150537,23.8844666 L8.32301755,23.8844666 C8.88707225,23.8844666 9.58302897,23.86364 10.1505548,23.7612424 Z M5.0150537,4.77950017 L5.0150537,11.7355962 L6.50589365,11.7355962 C7.32854573,11.7355962 7.91169151,11.6904719 8.31607534,11.6089009 C10.7337005,11.1142683 11.174531,9.31102882 11.1727954,8.15862169 C11.1727954,6.7979482 10.5219631,5.71149208 9.15261184,5.18214844 C8.46012623,4.91140219 7.49689436,4.77950017 6.27853622,4.77950017 L5.0150537,4.77950017 Z M35.1650789,16.7044842 L35.1650789,1.34484095 L39.7087564,1.34484095 L39.7087564,27.6263187 L35.1650789,27.6263187 L35.1650789,20.6771649 L23.0387707,20.6771649 C23.1602594,22.5619753 24.5313462,24.5283568 27.6362504,24.5387701 C29.2208102,24.5387701 30.6300791,24.0528153 31.7269486,23.223221 L33.906803,25.7883682 C32.3829876,27.1577194 30.1545376,28.0532647 27.0704601,28.0532647 C24.5660573,28.0532647 22.0790099,27.3139192 20.3625481,25.4256376 C19.5225405,24.5005879 18.8769148,23.2804942 18.5419531,21.779241 C17.5665724,25.1479492 14.5172059,27.3920191 10.0620416,27.5690455 C8.65450816,27.6245832 7.14631268,27.6332609 5.59993503,27.6263187 C3.86264656,27.6228476 2.08196927,27.6263187 0.348151914,27.6263187 L0.348151914,1.21293893 L6.46597593,1.21293893 C9.59691339,1.21293893 12.1360273,1.53228067 14.0000111,3.11857603 C15.2704359,4.19635439 16.0288725,5.85727853 16.0288725,7.67787353 C16.0288725,9.64078388 15.1663027,11.3624524 13.5157919,12.5686616 C15.7077952,13.2472628 17.7817809,14.8630626 18.5575731,17.2563901 C19.4201429,13.8633841 22.3358718,10.6404624 27.0756668,10.6404624 C30.1267688,10.6404624 32.3777809,11.7998117 33.7714299,13.6394978 C34.4482956,14.5350431 34.9203659,15.517366 35.1650789,16.7044842 Z M42.739726,27.62736 L42.739726,1.34241118 L47.2053037,1.34241118 L47.2053037,27.62736 L42.739726,27.62736 Z" id="Combined-Shape" fill="#00549A"></path>
                                    <path d="M51.6578647,1.30075791 L52.2410105,1.30075791 L52.2410105,2.45663615 L53.6763127,2.45663615 L53.6763127,3.00333532 L52.2410105,3.00333532 L52.2410105,5.41748942 C52.2410105,5.96592414 52.5186989,6.29047253 53.0740759,6.29047253 C53.3795332,6.29047253 53.7144949,6.20716599 53.9939189,6.10997503 L53.9939189,6.61675648 C53.7058171,6.7486585 53.3083755,6.81287396 52.9872982,6.81287396 C52.1420839,6.81287396 51.6578647,6.30088585 51.6578647,5.45740713 L51.6578647,1.30075791 Z M58.4440501,4.57522559 C58.4440501,3.6605892 57.7984244,2.84314378 56.8351926,2.84314378 C55.8493985,2.84314378 55.2471617,3.6310848 55.2471617,4.57522559 C55.2471617,5.52804414 55.8407208,6.33854735 56.8351926,6.33854735 C57.8071022,6.33854735 58.4440501,5.57316851 58.4440501,4.57522559 Z M59.0289315,4.58563891 C59.0289315,5.86821251 58.1368573,6.84012214 56.8351926,6.84012214 C55.5630323,6.84012214 54.6622803,5.84044366 54.6622803,4.58563891 C54.6622803,3.34818968 55.5717101,2.34156899 56.8351926,2.34156899 C58.1368573,2.34156899 59.0289315,3.31000751 59.0289315,4.58563891 Z M62.2405721,2.87004485 C61.2270092,2.87004485 60.6508057,3.62674592 60.6508057,4.58303558 C60.6508057,5.53585413 61.1558516,6.3255307 62.2145388,6.3255307 C62.8514868,6.3255307 63.2732261,6.10858659 63.6324856,5.85346031 L63.6324856,4.15261845 C63.6324856,3.41674402 63.0666953,2.87004485 62.2405721,2.87004485 Z M64.2156313,6.76636114 L63.6776099,6.76636114 L63.6776099,6.6500791 C63.6776099,6.45049051 63.5162035,6.49040823 63.3895082,6.53900371 C63.0580176,6.69520347 62.6085093,6.82016328 62.1780922,6.82016328 C60.8122121,6.82016328 60.0693954,5.87081584 60.0693954,4.59344889 C60.0693954,3.33864414 60.9302297,2.36847006 62.2145388,2.36847006 C62.8966111,2.36847006 63.3547971,2.59235639 63.6776099,2.91516923 L63.6776099,0.365641998 L64.2156313,0.365641998 L64.2156313,6.76636114 Z M67.7794157,2.84123467 C66.675604,2.84123467 66.1271693,3.66041565 66.1271693,4.63753194 C66.1271693,5.62506155 66.6842818,6.32796048 67.7516468,6.32796048 C68.263635,6.32796048 68.7669453,6.1353141 69.117527,5.93919662 L69.117527,4.21752813 C69.117527,3.35495834 68.5048768,2.84123467 67.7794157,2.84123467 Z M69.691995,2.45420637 L69.691995,6.76879092 L69.1800069,6.76879092 L69.1713291,6.7288732 C69.1348825,6.54143348 68.9908316,6.54143348 68.8745496,6.57614454 C68.6836388,6.63341779 68.5048768,6.69763325 68.3174371,6.74622873 C68.1299974,6.79308866 67.9321444,6.82953527 67.6995803,6.82953527 C66.3875023,6.82953527 65.5353458,5.98605655 65.5353458,4.65662302 C65.5353458,3.38966939 66.3597334,2.34139543 67.7516468,2.34139543 C68.3712392,2.34139543 68.838103,2.55833955 69.1435603,2.90545013 L69.1435603,2.45420637 L69.691995,2.45420637 Z M74.4758731,6.02267672 L74.4758731,2.45437993 L75.0503411,2.45437993 L75.0503411,6.76896447 C75.0503411,8.13137351 74.3682688,9.02691881 73.012802,9.02691881 C72.5199049,9.02691881 72.1051078,8.94881893 71.719815,8.73361037 L71.8447748,8.22856447 C72.2127121,8.41947529 72.5459382,8.51666625 73.0041242,8.51666625 C74.0090093,8.51666625 74.4758731,7.83632951 74.4758731,6.85053546 L74.4758731,6.5763181 C74.1079358,6.73946007 73.668841,6.85053546 73.1377618,6.85053546 C71.980148,6.85053546 71.2442735,6.21705864 71.2442735,5.04382488 L71.2442735,2.45437993 L71.8187415,2.45437993 L71.8187415,5.01605603 C71.8187415,5.72242606 72.1866788,6.32813403 73.1377618,6.32813403 C73.5247901,6.32813403 74.0367782,6.23441417 74.4758731,6.02267672 Z M52.5324098,11.0495322 C52.5324098,11.3081296 52.40745,11.4435027 52.1540593,11.4435027 C51.8954619,11.4435027 51.7705021,11.3081296 51.7705021,11.0495322 C51.7705021,10.7891992 51.8954619,10.6607683 52.1540593,10.6607683 C52.40745,10.6607683 52.5324098,10.7891992 52.5324098,11.0495322 Z M50.4827218,18.1757124 C51.832982,18.3284411 51.8659575,17.5578556 51.8659575,17.0163631 L51.8659575,12.2973947 L52.4317477,12.2973947 L52.4317477,17.0441319 C52.4317477,17.9691816 52.0568683,18.8872891 50.4410685,18.7172049 L50.4827218,18.1757124 Z M56.9221438,16.047751 L56.9221438,12.3076345 L57.5052896,12.3076345 L57.5052896,16.4503993 C57.0297481,16.6135413 56.4622223,16.7142033 55.8547787,16.7142033 C54.4993119,16.7142033 53.8588929,16.0911398 53.8588929,14.9821215 L53.8588929,12.3076345 L54.4333609,12.3076345 L54.4333609,14.9630304 C54.4333609,15.671136 54.8012981,16.1831241 55.8790765,16.1831241 C56.1602361,16.1831241 56.6618108,16.1414709 56.9221438,16.047751 Z M60.6016895,14.1275353 C61.4017794,14.3444794 62.1463316,14.6811766 62.1463316,15.5211843 C62.1463316,16.1997854 61.7783944,16.7117736 60.3482988,16.7117736 C59.6158955,16.7117736 58.9303521,16.5243338 58.6543991,15.9325103 L59.1577095,15.6808551 C59.372918,16.0939167 59.7217642,16.2292898 60.3968943,16.2292898 C61.3011173,16.2292898 61.5874836,15.9585436 61.5874836,15.5819286 C61.5874836,15.1046516 61.1032643,14.8564675 60.4593742,14.6742344 C59.4527535,14.396546 58.8505166,14.0667909 58.8505166,13.3014121 C58.8505166,12.5585954 59.4614312,12.2062782 60.421192,12.2062782 C60.9505356,12.2062782 61.6690546,12.2409893 62.0109585,12.9247971 L61.535417,13.166039 C61.3184729,12.7720684 60.879378,12.6835552 60.386481,12.6835552 C59.9560638,12.6835552 59.4249846,12.7963662 59.4249846,13.2545522 C59.4249846,13.5964561 59.5968044,13.8498468 60.6016895,14.1275353 Z M63.3287638,11.1359627 L63.9136451,11.1359627 L63.9136451,12.2970476 L65.3489474,12.2970476 L65.3489474,12.8437468 L63.9136451,12.8437468 L63.9136451,15.2579009 C63.9136451,15.8028645 64.1913336,16.130884 64.7467105,16.130884 C65.0521678,16.130884 65.3871296,16.0475775 65.664818,15.9486509 L65.664818,16.4519613 C65.3784518,16.58907 64.9810102,16.6532854 64.6599329,16.6532854 C63.8147186,16.6532854 63.3287638,16.1412973 63.3287638,15.2943475 L63.3287638,11.1359627 Z M72.2606133,13.966476 C72.2606133,13.1663861 71.6878809,12.7082001 70.887791,12.7082001 C69.8933191,12.7082001 69.3275289,13.4909345 69.3275289,14.4333397 C69.3275289,15.3826871 69.7822438,16.1723637 70.887791,16.1723637 C71.4344901,16.1723637 71.9117672,15.9658329 72.2606133,15.7488888 L72.2606133,13.966476 Z M70.9311798,12.2031542 C72.153009,12.2031542 72.8472302,12.9216731 72.8472302,13.8918472 L72.8472302,16.6305497 C72.8975612,17.9860165 72.1460668,18.8971818 70.7888644,18.8971818 C70.2855541,18.8971818 69.7822438,18.8034619 69.3986866,18.5986667 L69.5253819,18.0970919 C69.8933191,18.2741183 70.3237363,18.3851937 70.7784511,18.3851937 C71.7781296,18.3851937 72.28144,17.6979147 72.28144,16.7121207 L72.28144,16.6131941 C72.28144,16.3528612 72.1165624,16.3719523 71.9638338,16.4361678 C71.5455655,16.5993097 71.1949838,16.6774096 70.8270466,16.6774096 C69.4715798,16.6774096 68.7148787,15.7176488 68.7148787,14.4402819 C68.7148787,13.1958905 69.5427375,12.2031542 70.9311798,12.2031542 Z M77.6470753,14.4139015 C77.6470753,13.5010007 76.9997141,12.6835552 76.0399533,12.6835552 C75.0541593,12.6835552 74.4501869,13.4714963 74.4501869,14.4139015 C74.4501869,15.3684556 75.043746,16.1754877 76.0399533,16.1754877 C77.011863,16.1754877 77.6470753,15.4101089 77.6470753,14.4139015 Z M78.2319567,14.4260504 C78.2319567,15.7051529 77.341618,16.6770625 76.0399533,16.6770625 C74.7677931,16.6770625 73.8670411,15.6791196 73.8670411,14.4260504 C73.8670411,13.1833945 74.7764708,12.1819805 76.0399533,12.1819805 C77.341618,12.1819805 78.2319567,13.1486834 78.2319567,14.4260504 Z M79.3791571,11.1359627 L79.9640385,11.1359627 L79.9640385,12.2970476 L81.3993407,12.2970476 L81.3993407,12.8437468 L79.9640385,12.8437468 L79.9640385,15.2579009 C79.9640385,15.8028645 80.2417269,16.130884 80.7971039,16.130884 C81.1025612,16.130884 81.4375229,16.0475775 81.7152114,15.9486509 L81.7152114,16.4519613 C81.4288451,16.58907 81.0314035,16.6532854 80.7103262,16.6532854 C79.8633764,16.6532854 79.3791571,16.1412973 79.3791571,15.2943475 L79.3791571,11.1359627 Z M52.2272996,25.2017513 L52.2272996,26.538127 C52.5952368,26.79846 53.0811916,27.0431729 53.6816929,27.0431729 C54.7421158,27.0431729 55.2541039,26.243083 55.2541039,25.2607601 C55.2541039,24.3478593 54.7768268,23.5894226 53.7719417,23.5894226 C52.9006941,23.5894226 52.2272996,24.2367839 52.2272996,25.2017513 Z M52.5067236,27.2497037 C52.3175483,27.1577194 52.2272996,27.2392904 52.2272996,27.3920191 L52.2272996,27.4787967 L51.6701871,27.4787967 L51.6701871,21.0902264 L52.2272996,21.0902264 L52.2272996,23.8167801 C52.5952368,23.3117342 53.1610271,23.0704923 53.8083883,23.0704923 C55.0545153,23.0704923 55.8441919,23.9712443 55.8441919,25.2607601 C55.8441919,26.538127 55.0111265,27.5343344 53.7268173,27.5343344 C53.1974737,27.5343344 52.881603,27.423259 52.5067236,27.2497037 Z M57.2899074,24.9035833 L60.1518342,24.9035833 C60.0563788,24.1139067 59.5964573,23.5481165 58.7633919,23.5481165 C57.9650375,23.5481165 57.4061895,24.15556 57.2899074,24.9035833 Z M58.9074428,27.0469912 C59.4819108,27.0469912 59.9453034,26.8699648 60.3861338,26.5454164 L60.6551445,26.9758335 C60.1518342,27.3645973 59.5877795,27.5589793 58.8605828,27.5589793 C57.4704049,27.5589793 56.6720506,26.6061607 56.6720506,25.304496 C56.6720506,24.0427491 57.5346204,23.056955 58.7633919,23.056955 C59.9296834,23.056955 60.7020045,23.8362183 60.7627488,24.9851543 C60.7627488,24.9851543 60.7922532,25.3253227 60.7922532,25.3964803 L57.2708164,25.3964803 C57.3003208,26.36839 57.8747888,27.0469912 58.9074428,27.0469912 Z M62.0474051,22.0137141 L62.6305509,22.0137141 L62.6305509,23.1695924 L64.0675887,23.1695924 L64.0675887,23.7180271 L62.6305509,23.7180271 L62.6305509,26.1321812 C62.6305509,26.6806159 62.9099749,27.0034288 63.4653518,27.0034288 C63.7708091,27.0034288 64.1040353,26.9218578 64.3817238,26.8229313 L64.3817238,27.3279772 C64.093622,27.4633503 63.6996515,27.5275658 63.3751031,27.5275658 C62.5333599,27.5275658 62.0474051,27.0155776 62.0474051,26.1720989 L62.0474051,22.0137141 Z M65.5405524,22.0137141 L66.1236982,22.0137141 L66.1236982,23.1695924 L67.5590005,23.1695924 L67.5590005,23.7180271 L66.1236982,23.7180271 L66.1236982,26.1321812 C66.1236982,26.6806159 66.3996511,27.0034288 66.9567636,27.0034288 C67.2622209,27.0034288 67.5971826,26.9218578 67.8748711,26.8229313 L67.8748711,27.3279772 C67.5867693,27.4633503 67.1910633,27.5275658 66.8682504,27.5275658 C66.0230361,27.5275658 65.5405524,27.0155776 65.5405524,26.1720989 L65.5405524,22.0137141 Z M69.0607744,24.9271868 L71.9122878,24.9271868 C71.8150969,24.1409814 71.3569109,23.5786622 70.5273166,23.5786622 C69.7306978,23.5786622 69.1735854,24.1861057 69.0607744,24.9271868 Z M70.669632,27.0636525 C71.2423644,27.0636525 71.7057571,26.8866261 72.1431164,26.5620777 L72.4138626,26.9924948 C71.9122878,27.376052 71.3482332,27.5721695 70.622772,27.5721695 C69.2395364,27.5721695 68.4429176,26.6262931 68.4429176,25.3280995 C68.4429176,24.0698237 69.3020163,23.0840296 70.5273166,23.0840296 C71.6901371,23.0840296 72.4555159,23.8632929 72.5197314,25.0087578 C72.5197314,25.0087578 72.5475002,25.3454551 72.5475002,25.4166127 L69.0399478,25.4166127 C69.0694522,26.3850513 69.6404491,27.0636525 70.669632,27.0636525 Z M76.7487532,23.620489 L76.318336,23.9693352 C76.1222185,23.7037956 75.7195703,23.6135468 75.4071707,23.6135468 C75.1746067,23.6135468 74.9420426,23.6395801 74.726834,23.7280933 C74.4335256,23.8565242 74.3623679,23.9884263 74.3623679,24.2938836 L74.3623679,27.490772 L73.7809577,27.490772 L73.7809577,24.0804106 C73.7809577,23.2976762 74.7910495,23.0946165 75.4071707,23.0946165 C75.8983322,23.0946165 76.4450314,23.1952786 76.7487532,23.620489 Z" id="Combined-Shape" fill="#231F20"></path>
                                </g>
                                <polyline id="Stroke-24" stroke="#9D9FA2" points="46.6137931 18.1759483 46.6137931 0.612258621 0.613793103 0.612258621 0.613793103 18.1759483"></polyline>
                            </g>
                        </g>
                    </g>
                </g>
            </g>
        </g>
    </g>
</svg>