<?xml version="1.0" encoding="UTF-8"?>
<svg width="290px" height="60px" viewBox="0 0 290 60" version="1.1" xmlns="http://www.w3.org/2000/svg" xmlns:xlink="http://www.w3.org/1999/xlink">
    <!-- Generator: sketchtool 53.2 (72643) - https://sketchapp.com -->
    <title>844818AA-8316-496E-B7EB-6495939A0899</title>
    <desc>Created with sketchtool.</desc>
    <g id="Page-1" stroke="none" stroke-width="1" fill="none" fill-rule="evenodd">
        <g id="Logo-tagline" transform="translate(-968.000000, -2557.000000)">
            <g id="Group-2" transform="translate(300.000000, 0.000000)">
                <g id="Group-10" transform="translate(87.000000, 2417.000000)">
                    <g id="Group-3-Copy-7" transform="translate(490.000000, 91.000000)">
                        <g id="logo">
                            <g id="logo_minimumwidth_taglineFR" transform="translate(91.000000, 49.000000)">
                                <text id="Print:-0.375”" font-family="BellSlimBold, Bell Slim Bold" font-size="16" font-weight="bold" line-spacing="20" fill="#555555">
                                    <tspan x="162" y="22">Print: 0.375”</tspan>
                                </text>
                                <text id="On-screen:-46-px" font-family="BellSlimBold, Bell Slim Bold" font-size="16" font-weight="bold" line-spacing="20" fill="#555555">
                                    <tspan x="162" y="52.126">On-screen: 46 px</tspan>
                                </text>
                                <g id="Group-22" transform="translate(0.000000, 32.000000)">
                                    <path d="M0.562015504,26.725312 L0.562015504,18.1444012 L1.34680233,18.1444012 L1.34680233,26.725312 L0.562015504,26.725312 Z M8.52768798,20.9303081 L8.52768798,26.7239322 L7.84121512,26.7239322 L7.82741667,26.6773624 C7.77739729,26.4220911 7.58421899,26.4220911 7.42726163,26.4686609 C7.17716473,26.5428275 6.93224225,26.627343 6.68214535,26.6980601 C6.42514922,26.7618779 6.16297868,26.8084477 5.84561434,26.8084477 C4.08631202,26.8084477 2.9410407,25.6735252 2.9410407,23.8883508 C2.9410407,22.1842422 4.04836628,20.771626 5.91978101,20.771626 C6.75458721,20.771626 7.37896705,21.0613934 7.78947093,21.5339903 L7.78947093,20.9303081 L8.52768798,20.9303081 Z M5.95772674,21.4494748 C4.4709438,21.4494748 3.73617636,22.5464516 3.73617636,23.8607539 C3.73617636,25.1888547 4.48301744,26.1323236 5.91978101,26.1323236 C6.60970349,26.1323236 7.28237791,25.8787771 7.75497481,25.613157 L7.75497481,23.2950174 C7.75497481,22.1359477 6.93224225,21.4494748 5.95772674,21.4494748 Z M15.7570407,26.7953391 C15.1516337,26.7953391 14.9256841,26.3244671 14.7100833,25.7846027 L12.8127965,20.9309981 L13.6683004,20.9309981 L15.4327771,25.5655523 C15.5397151,25.8415213 15.6501027,26.084719 15.7570407,26.084719 C15.8898508,26.084719 15.9881647,25.8553198 16.0933779,25.5655523 L17.7992112,20.9309981 L18.6184942,20.9309981 L16.8057229,25.7949516 C16.6142694,26.2865213 16.350374,26.7953391 15.7570407,26.7953391 Z M20.4529981,19.7850368 C20.106312,19.7850368 19.9355562,19.6039322 19.9355562,19.2520717 C19.9355562,18.901936 20.106312,18.7346298 20.4529981,18.7346298 C20.8014089,18.7346298 20.9618159,18.901936 20.9618159,19.2520717 C20.9618159,19.6039322 20.8014089,19.7850368 20.4529981,19.7850368 Z M20.0562926,26.7239322 L20.0562926,20.9303081 L20.8410795,20.9303081 L20.8410795,26.7239322 L20.0562926,26.7239322 Z M25.5365194,26.1452597 C26.3057829,26.1452597 26.9353372,25.902062 27.5252209,25.4674109 L27.889155,26.0469457 C27.2147558,26.5661124 26.4506667,26.8317326 25.4761512,26.8317326 C23.6064612,26.8317326 22.531907,25.555376 22.531907,23.8046977 C22.531907,22.0988643 23.6909767,20.7724884 25.3450659,20.7724884 C26.9111899,20.7724884 27.9460736,21.8228953 28.0305891,23.3700465 C28.0305891,23.3700465 28.0702597,23.8271202 28.0702597,23.9219845 L23.3408411,23.9219845 C23.377062,25.225938 24.1463256,26.1452597 25.5365194,26.1452597 Z M23.3615388,23.2579341 L27.2147558,23.2579341 C27.0802209,22.1971783 26.4644651,21.4365388 25.3450659,21.4365388 C24.2705116,21.4365388 23.5219457,22.2575465 23.3615388,23.2579341 Z M35.6259457,26.1452597 C36.3986589,26.1452597 37.0264884,25.902062 37.6146473,25.4674109 L37.9785814,26.0469457 C37.3041822,26.5661124 36.5435426,26.8317326 35.5655775,26.8317326 C33.6958876,26.8317326 32.6213333,25.555376 32.6213333,23.8046977 C32.6213333,22.0988643 33.7804031,20.7724884 35.4344922,20.7724884 C37.0040659,20.7724884 38.0389496,21.8228953 38.1234651,23.3700465 C38.1234651,23.3700465 38.1631357,23.8271202 38.1631357,23.9219845 L33.4302674,23.9219845 C33.4664884,25.225938 34.2357519,26.1452597 35.6259457,26.1452597 Z M33.4509651,23.2579341 L37.3041822,23.2579341 C37.1713721,22.1971783 36.5538915,21.4365388 35.4344922,21.4365388 C34.359938,21.4365388 33.6113721,22.2575465 33.4509651,23.2579341 Z M41.9390814,23.3929864 C43.0136357,23.6827539 44.0140233,24.1415523 44.0140233,25.266126 C44.0140233,26.1785484 43.5224535,26.8701957 41.6027442,26.8701957 C40.6109806,26.8701957 39.6933837,26.6131996 39.3191008,25.818064 L39.9969496,25.4817267 C40.2884419,26.0336647 40.7558643,26.2199438 41.6631124,26.2199438 C42.8825504,26.2199438 43.268907,25.8560097 43.268907,25.3471919 C43.268907,24.7072888 42.6169302,24.3692267 41.7476279,24.1277539 C40.393655,23.7534709 39.5881705,23.3084709 39.5881705,22.2804864 C39.5881705,21.2800988 40.4057287,20.8126764 41.6976085,20.8126764 C42.4099535,20.8126764 43.375845,20.8557965 43.8363682,21.776843 L43.1964651,22.0993818 C42.9066977,21.5698663 42.3150891,21.4491298 41.649314,21.4491298 C41.0697791,21.4491298 40.3574341,21.6043624 40.3574341,22.2235678 C40.3574341,22.6823663 40.5885581,23.0187035 41.9390814,23.3929864 Z M45.4290543,19.3740155 L46.2121163,19.3740155 L46.2121163,20.9297907 L48.1421744,20.9297907 L48.1421744,21.6645581 L46.2121163,21.6645581 L46.2121163,24.9123682 C46.2121163,25.6505853 46.588124,26.0852364 47.3332403,26.0852364 C47.7471938,26.0852364 48.1939186,25.973124 48.5647519,25.8420388 L48.5647519,26.5198876 C48.181845,26.6975426 47.647155,26.7820581 47.2142287,26.7820581 C46.081031,26.7820581 45.4290543,26.0938605 45.4290543,24.958938 L45.4290543,19.3740155 Z" id="Combined-Shape" fill="#020303"></path>
                                    <path d="M87.7221647,15.8435097 L87.7221647,0.578974806 L92.2342578,0.578974806 L92.2342578,26.6977151 L87.7221647,26.6977151 L87.7221647,19.7881415 L75.6709438,19.7881415 C75.7916802,21.6681802 77.1508275,23.618936 80.2365058,23.6327345 C81.8095291,23.6327345 83.2135213,23.1428895 84.3053236,22.3218818 L86.4682306,24.8676957 C84.9555756,26.2285678 82.7391996,27.1185678 79.6759438,27.1185678 C77.1870484,27.1185678 74.717126,26.38725 73.0130174,24.5072112 C72.1747616,23.5878895 71.5314089,22.3753508 71.2002461,20.8902926 C70.230905,24.2346919 67.2021453,26.4614167 62.772843,26.6407965 C61.37575,26.6977151 59.8734438,26.708064 58.3400911,26.6977151 C56.6135601,26.6908159 54.8439089,26.6977151 53.1191027,26.6977151 L53.1191027,0.447889535 L59.2007694,0.447889535 C62.310595,0.447889535 64.8339864,0.768703488 66.6898779,2.34172674 C67.9472616,3.41628101 68.7044516,5.06347093 68.7044516,6.87624225 C68.7044516,8.82699806 67.8454981,10.5345562 66.2052074,11.7298469 C68.3819128,12.4076957 70.4430562,14.0134903 71.2174942,16.3919981 C72.0764477,13.0200019 74.9706725,9.82048643 79.682843,9.82048643 C82.7150523,9.82048643 84.952126,10.972657 86.3336957,12.7975019 C87.0098198,13.6875019 87.4755174,14.6637422 87.7221647,15.8435097 Z M57.7588314,3.99581589 L57.7588314,10.9053895 L59.2369903,10.9053895 C60.0562733,10.9053895 60.6375329,10.8605446 61.0359632,10.7794787 C63.4420678,10.2879089 63.8801686,8.49238566 63.876719,7.35056395 C63.876719,6.0000407 63.2299167,4.91858721 61.8707694,4.38907171 C61.1791221,4.12345155 60.2253043,3.99236628 59.0110407,3.99236628 L57.7588314,3.99581589 Z M62.8625329,22.8565717 C65.434219,22.3960484 66.5277461,20.6850407 66.5277461,18.6566686 C66.5277461,16.6990136 65.3393547,15.2208547 63.2782112,14.6775407 C62.6762539,14.5188585 61.6258469,14.4153702 60.699626,14.4153702 L57.7588314,14.4153702 L57.7588314,22.9790329 L61.0428624,22.9790329 C61.6034244,22.9790329 62.2967965,22.9583353 62.8625329,22.8565717 Z M75.7554593,16.5265329 L83.4791415,16.5265329 C83.1221066,14.4722888 81.7319128,13.2356027 79.6466221,13.2356027 C77.5613314,13.2356027 76.1521647,14.6137229 75.7554593,16.5265329 Z M95.2487016,26.6977151 L95.2487016,0.575525194 L99.6849031,0.575525194 L99.6849031,26.6977151 L95.2487016,26.6977151 Z" id="Combined-Shape" fill="#00549A"></path>
                                </g>
                                <polyline id="Stroke-20" stroke="#9D9FA2" points="99.36634 17.53497 99.36634 0.559703333 53.36634 0.559703333 53.36634 17.53497"></polyline>
                            </g>
                        </g>
                    </g>
                </g>
            </g>
        </g>
    </g>
</svg>