<?xml version="1.0" encoding="UTF-8"?>
<svg width="103px" height="35px" viewBox="0 0 103 35" version="1.1" xmlns="http://www.w3.org/2000/svg" xmlns:xlink="http://www.w3.org/1999/xlink">
    <!-- Generator: sketchtool 53.2 (72643) - https://sketchapp.com -->
    <title>CB3C1E40-1A7C-4AB9-A6E8-A9F4B2AA68E9</title>
    <desc>Created with sketchtool.</desc>
    <g id="Page-1" stroke="none" stroke-width="1" fill="none" fill-rule="evenodd">
        <g id="Logo-tagline" transform="translate(-453.000000, -2889.000000)">
            <g id="Group-2" transform="translate(300.000000, 0.000000)">
                <g id="Group-10-Copy" transform="translate(90.000000, 2753.000000)">
                    <g id="Group-3" transform="translate(0.000000, 94.000000)">
                        <g id="logo">
                            <g id="logo_taglineEN_blue" transform="translate(63.000000, 42.000000)">
                                <path d="M28.7286328,21.4774233 C29.2340404,19.0502032 31.029501,17.3014928 33.6740464,17.3014928 C36.3198553,17.3014928 38.0812009,18.86952 38.5385948,21.4774233 L28.7286328,21.4774233 Z M12.366061,29.514668 C11.6496457,29.6448105 10.7727635,29.6726079 10.0601387,29.6726079 L5.88799881,29.6726079 L5.88799881,18.8000264 L9.6204341,18.8000264 C10.7992974,18.8000264 12.13231,18.9339594 12.8954755,19.1335954 C15.513487,19.8196863 17.0170747,21.6972756 17.0170747,24.1838811 C17.0170747,26.7564059 15.6335213,28.9258681 12.366061,29.514668 L12.366061,29.514668 Z M5.88799881,5.56971836 L7.48129634,5.56845484 C9.01773551,5.56845484 10.2332408,5.73397583 11.107596,6.07259894 C12.8335631,6.74100052 13.6548505,8.11697278 13.6548505,9.83156814 C13.656114,11.282088 13.1014291,13.5589494 10.0512941,14.1831278 C9.54209592,14.2867363 8.80672783,14.3435947 7.76811516,14.3435947 L5.88799881,14.3435947 L5.88799881,5.56971836 Z M43.9211859,20.6157033 L43.9211859,1.23332095 L49.6512449,1.23332095 L49.6512449,34.3918516 L43.9211859,34.3918516 L43.9211859,25.6217658 L28.6237607,25.6217658 C28.77791,28.0047627 30.5051406,30.4825236 34.4220497,30.4951588 C36.4209368,30.4951588 38.1999717,29.879825 39.583525,28.8361583 L42.3329425,32.0695035 C40.413657,33.7979976 37.5998001,34.9263201 33.7106884,34.9263201 C30.5506273,34.9263201 27.4120459,33.9963701 25.2489013,31.6133732 C24.1875453,30.444618 23.373839,28.9056518 22.9518237,27.0166908 C21.7211561,31.2646419 17.8737406,34.0923976 12.2536078,34.3185675 C10.4783635,34.3893245 8.57550384,34.4006962 6.62589394,34.3918516 C4.43368837,34.3817434 2.18715149,34.3918516 0,34.3918516 L0,1.06653644 L7.71883792,1.06653644 C11.6660715,1.06653644 14.8703558,1.47591661 17.2217647,3.47354024 C18.8239069,4.83435026 19.7803908,6.92800134 19.7803908,9.22760603 C19.7803908,11.7041034 18.6925009,13.8735656 16.6102215,15.391052 C19.3748012,16.252772 21.9915492,18.2883012 22.9707765,21.3081117 C24.0599299,17.0260456 27.7367703,12.9650954 33.717006,12.9650954 C37.5644216,12.9650954 40.4073394,14.4269869 42.1623674,16.7442809 C43.0177698,17.8738669 43.6116238,19.1133791 43.9211859,20.6157033 Z M53.4759171,34.3918516 L53.4759171,1.23332095 L59.108685,1.23332095 L59.108685,34.3918516 L53.4759171,34.3918516 Z" id="Fill-1" fill="#00549A"></path>
                                <path d="M64.7246482,1.17772611 L65.4612798,1.17772611 L65.4612798,2.63835414 L67.2731661,2.63835414 L67.2731661,3.32949907 L65.4612798,3.32949907 L65.4612798,6.37458 C65.4612798,7.06572492 65.8125381,7.47384158 66.5137912,7.47384158 C66.8991645,7.47384158 67.3186528,7.37149653 67.6711746,7.24767166 L67.6711746,7.88195823 C67.3072811,8.05126978 66.8094546,8.132135 66.401338,8.132135 C65.3374549,8.132135 64.7246482,7.48647677 64.7246482,6.4213302 L64.7246482,1.17772611 Z M73.2861269,5.31069695 C73.2861269,4.15710405 72.4698936,3.1260725 71.2581789,3.1260725 C70.0123491,3.1260725 69.2555012,4.12298904 69.2555012,5.31069695 C69.2555012,6.51104005 70.0022409,7.53069993 71.2581789,7.53069993 C72.4825288,7.53069993 73.2861269,6.56916193 73.2861269,5.31069695 Z M74.0227586,5.32333214 C74.0227586,6.94190005 72.9007536,8.1649865 71.2581789,8.1649865 C69.6509826,8.1649865 68.517606,6.90778504 68.517606,5.32333214 C68.517606,3.75909555 69.6610908,2.49178593 71.2581789,2.49178593 C72.9007536,2.49178593 74.0227586,3.71360886 74.0227586,5.32333214 Z M78.0754959,3.16006116 C76.7955511,3.16006116 76.0715547,4.11149101 76.0715547,5.32320579 C76.0715547,6.52228537 76.7058413,7.51920191 78.0426444,7.51920191 C78.8462426,7.51920191 79.3781841,7.24754531 79.8317874,6.92029388 L79.8317874,4.77862907 C79.8317874,3.84994257 79.1178992,3.16006116 78.0754959,3.16006116 Z M80.5671555,8.07388678 L79.8873823,8.07388678 L79.8873823,7.92731856 C79.8873823,7.67840531 79.6839557,7.723892 79.5247523,7.79085851 C79.1065275,7.98417692 78.5404709,8.14338032 77.9958942,8.14338032 C76.2737178,8.14338032 75.3361866,6.9417737 75.3361866,5.33457746 C75.3361866,3.74759752 76.4215495,2.52451108 78.0426444,2.52451108 C78.9031009,2.52451108 79.4792656,2.80753935 79.8873823,3.21691952 L79.8873823,4.19220214e-13 L80.5671555,4.19220214e-13 L80.5671555,8.07388678 Z M85.0625036,3.12544074 C83.6688421,3.12544074 82.9789607,4.15647229 82.9789607,5.38966689 C82.9789607,6.6367602 83.6802138,7.51996002 85.0283886,7.51996002 C85.6727833,7.51996002 86.3070699,7.28241844 86.7505651,7.03224166 L86.7505651,4.85898889 C86.7505651,3.77109898 85.9785549,3.12544074 85.0625036,3.12544074 Z M87.4745615,2.63772238 L87.4745615,8.07338137 L86.8289033,8.07338137 L86.8175316,8.0291582 C86.7720449,7.7903531 86.5900982,7.7903531 86.4447935,7.8371033 C86.2059884,7.90533333 85.9785549,7.98493503 85.7410134,8.05063802 C85.5047353,8.1087599 85.2545585,8.15298307 84.9601586,8.15298307 C83.3074756,8.15298307 82.2322209,7.08910002 82.2322209,5.41367375 C82.2322209,3.81658566 83.2720971,2.49115417 85.0283886,2.49115417 C85.8092434,2.49115417 86.3993068,2.76281077 86.7834166,3.20377892 L86.7834166,2.63772238 L87.4745615,2.63772238 Z M93.5098866,7.13446036 L93.5098866,2.63759603 L94.2351466,2.63759603 L94.2351466,8.07325502 C94.2351466,9.79416797 93.3746901,10.9275446 91.6638853,10.9275446 C91.0409704,10.9275446 90.519137,10.826463 90.0339457,10.5535429 L90.1918856,9.92051988 C90.6555971,10.1580615 91.0750854,10.2818863 91.6525136,10.2818863 C92.9210867,10.2818863 93.5098866,9.42269337 93.5098866,8.17686358 L93.5098866,7.83697695 C93.0449116,8.04040352 92.4902267,8.17686358 91.8230887,8.17686358 C90.3611971,8.17686358 89.4337741,7.38337361 89.4337741,5.90000224 L89.4337741,2.63759603 L90.1590341,2.63759603 L90.1590341,5.86715074 C90.1590341,6.76045872 90.6227456,7.51983367 91.8230887,7.51983367 C92.3095435,7.51983367 92.9552018,7.40738047 93.5098866,7.13446036 Z M65.8278267,13.477326 C65.8278267,13.8045775 65.6698868,13.9751525 65.3527435,13.9751525 C65.0242285,13.9751525 64.8650251,13.8045775 64.8650251,13.477326 C64.8650251,13.1475475 65.0242285,12.9896077 65.3527435,12.9896077 C65.6698868,12.9896077 65.8278267,13.1475475 65.8278267,13.477326 Z M63.2451937,22.4697912 C64.9446268,22.6618461 64.98885,21.6876729 64.98885,21.0078996 L64.98885,15.0504072 L65.7040018,15.0504072 L65.7040018,21.0420146 C65.7040018,22.2082427 65.2263916,23.3630991 63.1895989,23.1483009 L63.2451937,22.4697912 Z M71.3649462,19.7850659 L71.3649462,15.0620316 L72.1015778,15.0620316 L72.1015778,20.2955276 C71.5001428,20.4976906 70.787518,20.622779 70.0180349,20.622779 C68.3084936,20.622779 67.503632,19.8419242 67.503632,18.436891 L67.503632,15.0620316 L68.2288919,15.0620316 L68.2288919,18.4141477 C68.2288919,19.3099827 68.6926034,19.9543774 70.0508864,19.9543774 C70.4034082,19.9543774 71.0364313,19.8975191 71.3649462,19.7850659 Z M76.0068625,17.3604991 C77.0151507,17.6334193 77.9552089,18.0630157 77.9552089,19.1167906 C77.9552089,19.9772471 77.4902339,20.6229053 75.6909828,20.6229053 C74.7622963,20.6229053 73.9005763,20.3853638 73.5505815,19.6373605 L74.1848681,19.3202172 C74.4552611,19.8420506 74.8987563,20.0113621 75.7478411,20.0113621 C76.8925894,20.0113621 77.2526923,19.670212 77.2526923,19.1963923 C77.2526923,18.5962208 76.6411491,18.2790775 75.8274428,18.0516441 C74.5576062,17.7016493 73.7994947,17.282161 73.7994947,16.3193594 C73.7994947,15.3793013 74.5689778,14.9383331 75.7819561,14.9383331 C76.4490942,14.9383331 77.3550374,14.9838198 77.7858974,15.8442763 L77.1857258,16.1500479 C76.9128057,15.6509579 76.3581208,15.5385047 75.7364695,15.5385047 C75.1918927,15.5385047 74.5247547,15.6863364 74.5247547,16.2637646 C74.5247547,16.6920976 74.7395529,17.0105044 76.0068625,17.3604991 Z M79.4489412,13.5896529 L80.1855728,13.5896529 L80.1855728,15.0502809 L81.9974591,15.0502809 L81.9974591,15.7426893 L80.1855728,15.7426893 L80.1855728,18.7877703 C80.1855728,19.4789152 80.5368311,19.8857683 81.2393477,19.8857683 C81.6234574,19.8857683 82.0442093,19.7846868 82.3942041,19.6595984 L82.3942041,20.296412 C82.0315741,20.4644601 81.5337476,20.5440618 81.1256309,20.5440618 C80.0617479,20.5440618 79.4489412,19.8984035 79.4489412,18.833257 L79.4489412,13.5896529 Z M90.716246,17.1574516 C90.716246,16.1491634 89.9909861,15.5717352 88.9839614,15.5717352 C87.7267599,15.5717352 87.0128716,16.5560166 87.0128716,17.7462515 C87.0128716,18.9465946 87.5902998,19.9435112 88.9839614,19.9435112 C89.6751063,19.9435112 90.2752778,19.6832262 90.716246,19.4115696 L90.716246,17.1574516 Z M89.0395562,14.9374486 C90.5810495,14.9374486 91.4541411,15.8446553 91.4541411,17.0677418 L91.4541411,20.5209394 C91.5198441,22.2304806 90.5684143,23.3752289 88.858873,23.3752289 C88.2258499,23.3752289 87.5902998,23.2615122 87.103845,23.0012273 L87.2630484,22.3669407 C87.7267599,22.5943741 88.2700731,22.7295707 88.8475013,22.7295707 C90.1059663,22.7295707 90.7402529,21.8691142 90.7402529,20.6232844 L90.7402529,20.498196 C90.7402529,20.1696811 90.5355628,20.1924244 90.3422443,20.2707626 C89.8115663,20.4754527 89.3693347,20.5777977 88.9056232,20.5777977 C87.1948184,20.5777977 86.2433885,19.3660829 86.2433885,17.7576232 C86.2433885,16.1832784 87.2845282,14.9374486 89.0395562,14.9374486 Z M97.5108197,17.7238872 C97.5108197,16.5677673 96.6945864,15.5379993 95.4841352,15.5379993 C94.2383054,15.5379993 93.4789304,16.5349158 93.4789304,17.7238872 C93.4789304,18.9254938 94.2269337,19.9438902 95.4841352,19.9438902 C96.7072216,19.9438902 97.5108197,18.9810887 97.5108197,17.7238872 Z M98.2474513,17.7339954 C98.2474513,19.3538268 97.1267099,20.5769133 95.4841352,20.5769133 C93.8769389,20.5769133 92.7435623,19.3197118 92.7435623,17.7339954 C92.7435623,16.1710223 93.8870471,14.9049762 95.4841352,14.9049762 C97.1267099,14.9049762 98.2474513,16.1255356 98.2474513,17.7339954 Z M99.6960759,13.5896529 L100.431444,13.5896529 L100.431444,15.0502809 L102.24333,15.0502809 L102.24333,15.7426893 L100.431444,15.7426893 L100.431444,18.7877703 C100.431444,19.4789152 100.782702,19.8857683 101.486482,19.8857683 C101.870592,19.8857683 102.290081,19.7846868 102.640075,19.6595984 L102.640075,20.296412 C102.278709,20.4644601 101.779619,20.5440618 101.372766,20.5440618 C100.307619,20.5440618 99.6960759,19.8984035 99.6960759,18.833257 L99.6960759,13.5896529 Z M65.4440959,31.3294604 L65.4440959,33.0162584 C65.9090709,33.3460368 66.5206142,33.6505449 67.2787256,33.6505449 C68.6155288,33.6505449 69.261187,32.6435203 69.261187,31.4077986 C69.261187,30.2542057 68.6610154,29.3015123 67.3924423,29.3015123 C66.2931807,29.3015123 65.4440959,30.1177457 65.4440959,31.3294604 Z M65.7953542,33.9120934 C65.5578126,33.7983767 65.4440959,33.9007217 65.4440959,34.0927766 L65.4440959,34.2064933 L64.7415793,34.2064933 L64.7415793,26.1427147 L65.4440959,26.1427147 L65.4440959,29.5858041 C65.9090709,28.9515176 66.6216957,28.645746 67.437929,28.645746 C69.0110102,28.645746 70.0079268,29.777859 70.0079268,31.4077986 C70.0079268,33.0162584 68.9554154,34.2734598 67.3355839,34.2734598 C66.6671824,34.2734598 66.2704374,34.1382633 65.7953542,33.9120934 Z M71.8314375,30.9555851 L75.4425749,30.9555851 C75.3187501,29.9586686 74.7413218,29.2447803 73.687547,29.2447803 C72.6805223,29.2447803 71.9780057,30.015527 71.8314375,30.9555851 Z M73.8694937,33.6633065 C74.5934901,33.6633065 75.1810265,33.4358731 75.7369749,33.0277564 L76.0768615,33.5723331 C75.4425749,34.0600515 74.7299502,34.3089647 73.8126353,34.3089647 C72.0563439,34.3089647 71.0480556,33.1073581 71.0480556,31.4647833 C71.0480556,29.8676952 72.1372091,28.6218654 73.687547,28.6218654 C75.1608102,28.6218654 76.1324563,29.6086738 76.2133215,31.0566667 C76.2133215,31.0566667 76.246173,31.4887902 76.246173,31.5797636 L71.8074306,31.5797636 C71.8415456,32.8015865 72.5668055,33.6633065 73.8694937,33.6633065 Z M77.8318895,27.3094482 L78.5685211,27.3094482 L78.5685211,28.7700762 L80.3804074,28.7700762 L80.3804074,29.4612212 L78.5685211,29.4612212 L78.5685211,32.5063021 C78.5685211,33.1987105 78.9185158,33.6055637 79.6197689,33.6055637 C80.0064058,33.6055637 80.4246306,33.5044821 80.7758889,33.3793937 L80.7758889,34.0136803 C80.4132589,34.1817284 79.9154324,34.2625936 79.5073157,34.2625936 C78.4446962,34.2625936 77.8318895,33.6169353 77.8318895,32.5530523 L77.8318895,27.3094482 Z M82.2368959,27.3094482 L82.972264,27.3094482 L82.972264,28.7700762 L84.7841504,28.7700762 L84.7841504,29.4612212 L82.972264,29.4612212 L82.972264,32.5063021 C82.972264,33.1987105 83.3235223,33.6055637 84.0260389,33.6055637 C84.4114122,33.6055637 84.8309006,33.5044821 85.1808954,33.3793937 L85.1808954,34.0136803 C84.8170019,34.1817284 84.3204389,34.2625936 83.9123222,34.2625936 C82.8484392,34.2625936 82.2368959,33.6169353 82.2368959,32.5530523 L82.2368959,27.3094482 Z M86.6777864,30.9852778 L90.2750251,30.9852778 C90.1524638,29.9934154 89.5750356,29.2833177 88.5275783,29.2833177 C87.5218171,29.2833177 86.8230911,30.0502737 86.6777864,30.9852778 Z M88.706998,33.682891 C89.4297309,33.682891 90.0160037,33.4567211 90.5694251,33.049868 L90.9067847,33.5919177 C90.2750251,34.077109 89.5649274,34.3260222 88.6514031,34.3260222 C86.9039563,34.3260222 85.8981951,33.1294697 85.8981951,31.494476 C85.8981951,29.9037055 86.981031,28.6616663 88.5275783,28.6616663 C89.9945239,28.6616663 90.9623795,29.6446841 91.0432447,31.0876229 C91.0432447,31.0876229 91.0748327,31.5159558 91.0748327,31.6056657 L86.6537795,31.6056657 C86.6878945,32.8249616 87.4106274,33.682891 88.706998,33.682891 Z M96.3768114,29.3404287 L95.8347617,29.7801334 C95.587112,29.4415103 95.0791773,29.3277935 94.6849593,29.3277935 C94.3918229,29.3277935 94.0986865,29.360645 93.8270299,29.4743618 C93.4542918,29.6335652 93.3658455,29.8016132 93.3658455,30.1844595 L93.3658455,34.2239299 L92.6317409,34.2239299 L92.6317409,29.9140664 C92.6317409,28.9348391 93.9066316,28.6745542 94.6849593,28.6745542 C95.3040837,28.6745542 95.9927016,28.7983791 96.3768114,29.3404287 Z" id="Combined-Shape" fill="#231F20"></path>
                            </g>
                        </g>
                    </g>
                </g>
            </g>
        </g>
    </g>
</svg>