<?xml version="1.0" encoding="UTF-8"?>
<svg width="262px" height="126px" viewBox="0 0 262 126" version="1.1" xmlns="http://www.w3.org/2000/svg" xmlns:xlink="http://www.w3.org/1999/xlink">
    <!-- Generator: sketchtool 53.2 (72643) - https://sketchapp.com -->
    <title>BC706B7C-3290-49F4-9E42-3CECDFDDAC3A</title>
    <desc>Created with sketchtool.</desc>
    <g id="Page-1" stroke="none" stroke-width="1" fill="none" fill-rule="evenodd">
        <g id="Logo-tagline" transform="translate(-493.000000, -2160.000000)">
            <g id="Group-2" transform="translate(300.000000, 0.000000)">
                <g id="Group-8" transform="translate(87.000000, 2032.000000)">
                    <g id="Group-3-Copy-4" transform="translate(2.000000, 91.000000)">
                        <g id="logo">
                            <g id="logo_clearspaceEN" transform="translate(105.000000, 37.000000)">
                                <g id="Group-28" transform="translate(0.000000, 0.158430)">
                                    <polygon id="Stroke-23" stroke="#9D9FA2" points="0.427590628 30.1451393 30.0886187 30.1451393 30.0886187 0.481653811 0.427590628 0.481653811"></polygon>
                                    <polygon id="Stroke-24" stroke="#9D9FA2" points="115.87706 30.1451393 145.543003 30.1451393 145.543003 0.484111228 115.87706 0.484111228"></polygon>
                                    <polygon id="Stroke-25" stroke="#9D9FA2" points="230.569645 124.900697 260.233131 124.900697 260.233131 95.2372114 230.569645 95.2372114"></polygon>
                                    <polygon id="Stroke-26" stroke="#9D9FA2" points="0.427590628 124.900697 260.233131 124.900697 260.233131 0.479196393 0.427590628 0.479196393"></polygon>
                                    <polygon id="Stroke-27" stroke="#9D9FA2" points="30.0886187 95.234754 230.569645 95.234754 230.569645 30.1451393 30.0886187 30.1451393"></polygon>
                                    <path d="M86.2030078,70.0098558 C87.1908896,65.2645828 90.6976242,61.8610597 95.8631156,61.8610597 C101.031064,61.8610597 104.471449,64.918087 105.361034,70.0098558 L86.2030078,70.0098558 Z M54.2442945,85.7078382 C52.8435666,85.9584948 51.1307466,86.0174728 49.737391,86.0174728 L41.5910523,86.0174728 L41.5910523,64.7804716 L48.8822097,64.7804716 C51.1823524,64.7804716 53.7872149,65.0434153 55.2764098,65.4316872 C60.3927528,66.7709797 63.3293666,70.4423613 63.3293666,75.2933033 C63.3293666,80.3211793 60.6262075,84.5602243 54.2442945,85.7078382 L54.2442945,85.7078382 Z M41.5910523,38.9358128 L44.6996853,38.9358128 C47.7026494,38.9358128 50.0765146,39.2528196 51.7844197,39.9212372 C55.1559964,41.2261258 56.7606899,43.912083 56.7606899,47.2590855 C56.7631473,50.0949452 55.6794263,54.5453281 49.7201891,55.7617497 C48.7273924,55.9657154 47.2922607,56.0738418 45.2599765,56.0738418 L41.5910523,56.0738418 L41.5910523,38.9358128 Z M115.87878,68.3240675 C115.271798,65.3899111 114.111897,62.9718124 112.440853,60.7625942 C109.012756,56.2409461 103.458993,53.3805123 95.9466678,53.3805123 C84.2641055,53.3805123 77.0835318,61.3179705 74.9578658,69.6781045 C73.045995,63.7803027 67.9321094,59.8066588 62.5331634,58.1208704 C66.5977318,55.1621399 68.7258552,50.9206375 68.7258552,46.08444 C68.7258552,41.592281 66.8557606,37.500681 63.7274683,34.839298 C59.1345551,30.9442914 52.875513,30.1431733 45.1641372,30.1431733 L30.0903389,30.1431733 L30.0903389,95.2377029 C34.3613303,95.2377029 38.7502778,95.220501 43.0310989,95.2377029 C46.8376384,95.24999 50.555711,95.232788 54.0231269,95.0951727 C65.0028679,94.6479227 72.5151929,89.1236484 74.9185471,80.8274072 C75.7442393,84.5135333 77.3341884,87.5238697 79.4033339,89.8092678 C83.6325492,94.461159 89.7613482,96.2771904 95.9319233,96.2771904 C103.530258,96.2771904 109.025043,94.0802593 112.775062,90.6963955 L107.405605,84.3857476 C104.702446,86.4229467 101.227658,87.6246238 97.3228215,87.6246238 C89.6728812,87.5951348 86.2988471,82.7564799 85.9990422,78.1045888 L115.87878,78.1045888 L115.87878,95.2377029 L127.069859,95.2377029 L127.069859,30.4675524 L115.87878,30.4675524 L115.87878,68.3240675 Z" id="Fill-1" fill="#00549A"></path>
                                    <polygon id="Fill-3" fill="#00549A" points="134.541145 95.234754 145.543003 95.234754 145.543003 30.4695184 134.541145 30.4695184"></polygon>
                                    <path d="M156.511931,30.3626207 L157.949521,30.3626207 L157.949521,33.2132249 L161.488202,33.2132249 L161.488202,34.5648045 L157.949521,34.5648045 L157.949521,40.514212 C157.949521,41.8633341 158.637597,42.6619948 160.006379,42.6619948 C160.758349,42.6619948 161.579126,42.4604866 162.264745,42.2147448 L162.264745,43.4508258 C161.557009,43.787492 160.583872,43.9423093 159.785211,43.9423093 C157.708694,43.9423093 156.511931,42.6816541 156.511931,40.602679 L156.511931,30.3626207 Z" id="Fill-5" fill="#231F20"></path>
                                    <path d="M173.23392,38.4330252 C173.23392,36.177116 171.641513,34.1669486 169.272563,34.1669486 C166.839719,34.1669486 165.360354,36.1132232 165.360354,38.4330252 C165.360354,40.774944 166.82006,42.7703669 169.272563,42.7703669 C171.66363,42.7703669 173.23392,40.8879852 173.23392,38.4330252 M174.671509,38.455142 C174.671509,41.6202956 172.479492,44.0113627 169.272563,44.0113627 C166.131983,44.0113627 163.91785,41.5539453 163.91785,38.455142 C163.91785,35.4030295 166.1541,32.9259528 169.272563,32.9259528 C172.479492,32.9259528 174.671509,35.3121051 174.671509,38.455142" id="Fill-6" fill="#231F20"></path>
                                    <path d="M182.588325,34.2332989 C180.089131,34.2332989 178.673659,36.088649 178.673659,38.455142 C178.673659,40.8019756 179.914654,42.7482502 182.524432,42.7482502 C184.094721,42.7482502 185.134209,42.217448 186.018879,41.5711472 L186.018879,37.3910802 C186.018879,35.582421 184.625524,34.2332989 182.588325,34.2332989 L182.588325,34.2332989 Z M187.454011,43.8295138 L186.127006,43.8295138 L186.127006,43.541996 C186.127006,43.0578847 185.731361,43.1438944 185.419269,43.2790523 C184.603407,43.6550372 183.497569,43.9671292 182.435965,43.9671292 C179.069303,43.9671292 177.23607,41.6202956 177.23607,38.4821735 C177.23607,35.3833702 179.359278,32.9898456 182.524432,32.9898456 C184.205305,32.9898456 185.33326,33.545222 186.127006,34.3414252 L186.127006,28.0578089 L187.454011,28.0578089 L187.454011,43.8295138 Z" id="Fill-7" fill="#231F20"></path>
                                    <path d="M196.236084,34.1637539 C193.515723,34.1637539 192.1666,36.1763788 192.1666,38.5895627 C192.1666,41.0199485 193.535382,42.7450555 196.169733,42.7450555 C197.427931,42.7450555 198.668927,42.2855185 199.53148,41.7915776 L199.53148,37.5500751 C199.53148,35.4293239 198.025084,34.1637539 196.236084,34.1637539 L196.236084,34.1637539 Z M200.946953,33.2127334 L200.946953,43.8336914 L199.686298,43.8336914 L199.664181,43.7378521 C199.573256,43.2758577 199.221846,43.2758577 198.936785,43.3643247 C198.469876,43.4994827 198.025084,43.6518425 197.563089,43.7845431 C197.098637,43.9000417 196.612069,43.9860513 196.037033,43.9860513 C192.807986,43.9860513 190.706894,41.9046188 190.706894,38.6313388 C190.706894,35.5153335 192.739179,32.9227582 196.169733,32.9227582 C197.69579,32.9227582 198.845861,33.4584751 199.597831,34.3185712 L199.597831,33.2127334 L200.946953,33.2127334 Z" id="Fill-8" fill="#231F20"></path>
                                    <path d="M212.734938,41.9945602 L212.734938,33.2166653 L214.152868,33.2166653 L214.152868,43.830251 C214.152868,47.191998 212.469537,49.4085885 209.129907,49.4085885 C207.913485,49.4085885 206.896115,49.2095377 205.945094,48.6787356 L206.254729,47.4377398 C207.159058,47.8972768 207.979836,48.1479334 209.10779,48.1479334 C211.584867,48.1479334 212.734938,46.4621451 212.734938,44.0317593 L212.734938,43.3682566 C211.825694,43.7688156 210.74443,44.0317593 209.439542,44.0317593 C206.58648,44.0317593 204.775363,42.4786715 204.775363,39.5887486 L204.775363,33.2166653 L206.188378,33.2166653 L206.188378,39.5174835 C206.188378,41.2622498 207.095165,42.7489874 209.439542,42.7489874 C210.390562,42.7489874 211.651217,42.5278198 212.734938,41.9945602" id="Fill-9" fill="#231F20"></path>
                                    <path d="M158.665858,54.384613 C158.665858,53.7383123 158.358681,53.4311351 157.739411,53.4311351 C157.095568,53.4311351 156.785933,53.7383123 156.785933,54.384613 C156.785933,55.025999 157.095568,55.3577503 157.739411,55.3577503 C158.358681,55.3577503 158.665858,55.025999 158.665858,54.384613 L158.665858,54.384613 Z M153.62078,71.9453178 C156.940751,72.3237601 157.029218,70.4168042 157.029218,69.0897988 L157.029218,57.4588422 L158.422573,57.4588422 L158.422573,69.1610639 C158.422573,71.4366324 157.49367,73.6900841 153.512653,73.2747806 L153.62078,71.9453178 Z" id="Fill-10" fill="#231F20"></path>
                                    <path d="M169.481689,66.7006976 L169.481689,57.4780101 L170.919278,57.4780101 L170.919278,67.698409 C169.74709,68.0965106 168.356192,68.3422524 166.852252,68.3422524 C163.510165,68.3422524 161.939875,66.8161962 161.939875,64.0737184 L161.939875,57.4780101 L163.355347,57.4780101 L163.355347,64.02457 C163.355347,65.7742512 164.262134,67.0398212 166.916145,67.0398212 C167.601765,67.0398212 168.840303,66.92678 169.481689,66.7006976" id="Fill-11" fill="#231F20"></path>
                                    <path d="M178.54833,61.9682031 C180.519179,62.5039201 182.35487,63.3443569 182.35487,65.3987578 C182.35487,67.0771739 181.445626,68.3452013 177.931519,68.3452013 C176.117945,68.3452013 174.434614,67.8733771 173.748994,66.4210435 L174.98999,65.7993169 C175.518335,66.8166877 176.383346,67.1435242 178.042102,67.1435242 C180.278352,67.1435242 180.983631,66.4824789 180.983631,65.5560325 C180.983631,64.3789296 179.789326,63.7596604 178.19692,63.3222401 C175.717386,62.6341632 174.23802,61.8158433 174.23802,59.9359189 C174.23802,58.1026856 175.739502,57.2352172 178.108453,57.2352172 C179.413341,57.2352172 181.182682,57.3212268 182.023119,59.0094726 L180.850931,59.6017102 C180.317671,58.6334877 179.236407,58.4123202 178.019986,58.4123202 C176.958381,58.4123202 175.651035,58.699838 175.651035,59.8277926 C175.651035,60.6657719 176.071254,61.2850411 178.54833,61.9682031" id="Fill-12" fill="#231F20"></path>
                                    <path d="M185.271333,54.6079923 L186.708922,54.6079923 L186.708922,57.456139 L190.250061,57.456139 L190.250061,58.8077186 L186.708922,58.8077186 L186.708922,64.7595836 C186.708922,66.1087057 187.396999,66.904909 188.76578,66.904909 C189.51775,66.904909 190.340985,66.7034007 191.024147,66.457659 L191.024147,67.6986548 C190.316411,68.0328635 189.343274,68.1876808 188.54707,68.1876808 C186.465638,68.1876808 185.271333,66.9270257 185.271333,64.8455932 L185.271333,54.6079923 Z" id="Fill-13" fill="#231F20"></path>
                                    <path d="M207.27898,61.5745249 C207.27898,59.6012187 205.863508,58.4757215 203.897574,58.4757215 C201.442614,58.4757215 200.046801,60.3974219 200.046801,62.7245962 C200.046801,65.066515 201.174755,67.0127896 203.897574,67.0127896 C205.246696,67.0127896 206.416427,66.5041042 207.27898,65.9708446 L207.27898,61.5745249 Z M204.0057,57.2347257 C207.016037,57.2347257 208.719027,59.0065237 208.719027,61.3975908 L208.719027,68.145659 C208.84927,71.4828318 206.991462,73.7166242 203.651832,73.7166242 C202.415751,73.7166242 201.174755,73.4979141 200.223735,72.9892287 L200.535827,71.7482329 C201.442614,72.1881106 202.501761,72.4584265 203.629715,72.4584265 C206.087133,72.4584265 207.325671,70.7726382 207.325671,68.3447098 L207.325671,68.0965106 C207.325671,67.4575821 206.92757,67.4993582 206.549127,67.6566329 C205.512097,68.057192 204.649544,68.2537854 203.742757,68.2537854 C200.400669,68.2537854 198.542861,65.884835 198.542861,62.746713 C198.542861,59.6724838 200.575146,57.2347257 204.0057,57.2347257 L204.0057,57.2347257 Z" id="Fill-14" fill="#231F20"></path>
                                    <path d="M220.551246,62.6783968 C220.551246,60.4224876 218.958839,58.4123202 216.592346,58.4123202 C214.157046,58.4123202 212.675223,60.3585947 212.675223,62.6783968 C212.675223,65.022773 214.137386,67.0132811 216.592346,67.0132811 C218.980956,67.0132811 220.551246,65.1333567 220.551246,62.6783968 M221.986378,62.7005135 C221.986378,65.8656671 219.799276,68.2542768 216.592346,68.2542768 C213.451767,68.2542768 211.237634,65.7993169 211.237634,62.7005135 C211.237634,59.6484011 213.471426,57.1713244 216.592346,57.1713244 C219.799276,57.1713244 221.986378,59.5550192 221.986378,62.7005135" id="Fill-15" fill="#231F20"></path>
                                    <path d="M224.81806,54.6079923 L226.255649,54.6079923 L226.255649,57.456139 L229.79433,57.456139 L229.79433,58.8077186 L226.255649,58.8077186 L226.255649,64.7595836 C226.255649,66.1087057 226.943726,66.904909 228.314965,66.904909 C229.066934,66.904909 229.885254,66.7034007 230.568416,66.457659 L230.568416,67.6986548 C229.863138,68.0328635 228.89,68.1876808 228.093797,68.1876808 C226.014822,68.1876808 224.81806,66.9270257 224.81806,64.8455932 L224.81806,54.6079923 Z" id="Fill-16" fill="#231F20"></path>
                                    <path d="M157.917083,89.2492224 L157.917083,92.5519914 C158.826327,93.1909199 160.018174,93.7929872 161.499997,93.7929872 C164.112232,93.7929872 165.372887,91.819681 165.372887,89.4040397 C165.372887,87.150588 164.198241,85.2952378 161.721165,85.2952378 C159.575839,85.2952378 157.917083,86.8827295 157.917083,89.2492224 M158.602702,94.3016726 C158.135793,94.080505 157.917083,94.2770984 157.917083,94.6481684 L157.917083,94.869336 L156.543386,94.869336 L156.543386,79.1222053 L157.917083,79.1222053 L157.917083,85.8456993 C158.826327,84.6071609 160.217225,84.0100085 161.809632,84.0100085 C164.883861,84.0100085 166.830136,86.226599 166.830136,89.4040397 C166.830136,92.5519914 164.775735,95.0069514 161.610581,95.0069514 C160.305692,95.0069514 159.531606,94.7366355 158.602702,94.3016726" id="Fill-17" fill="#231F20"></path>
                                    <path d="M170.392408,88.5220726 L177.445196,88.5220726 C177.201911,86.575798 176.076414,85.1873572 174.017098,85.1873572 C172.051165,85.1873572 170.679926,86.6888392 170.392408,88.5220726 M174.370967,93.8104349 C175.786439,93.8104349 176.93651,93.3705571 178.020231,92.5694391 L178.686192,93.6359582 C177.445196,94.5845213 176.054297,95.0735474 174.260383,95.0735474 C170.832286,95.0735474 168.863894,92.7267138 168.863894,89.5173267 C168.863894,86.4013214 170.98956,83.9660207 174.017098,83.9660207 C176.894734,83.9660207 178.794318,85.892636 178.951593,88.7211234 C178.951593,88.7211234 179.015485,89.566475 179.015485,89.7384942 L170.345717,89.7384942 C170.412067,92.1295614 171.82754,93.8104349 174.370967,93.8104349" id="Fill-18" fill="#231F20"></path>
                                    <path d="M182.112077,81.4019514 L183.552124,81.4019514 L183.552124,84.2525556 L187.088347,84.2525556 L187.088347,85.6041352 L183.552124,85.6041352 L183.552124,91.5535427 C183.552124,92.9075797 184.235286,93.7013255 185.606525,93.7013255 C186.360952,93.7013255 187.179272,93.5047321 187.862434,93.2589904 L187.862434,94.4950713 C187.154698,94.8268227 186.18156,94.98164 185.385357,94.98164 C183.308839,94.98164 182.112077,93.7258997 182.112077,91.6444672 L182.112077,81.4019514 Z" id="Fill-19" fill="#231F20"></path>
                                    <path d="M190.717707,81.4019514 L192.152839,81.4019514 L192.152839,84.2525556 L195.693977,84.2525556 L195.693977,85.6041352 L192.152839,85.6041352 L192.152839,91.5535427 C192.152839,92.9075797 192.838458,93.7013255 194.209697,93.7013255 C194.964124,93.7013255 195.782444,93.5047321 196.468064,93.2589904 L196.468064,94.4950713 C195.75787,94.8268227 194.78719,94.98164 193.990987,94.98164 C191.912012,94.98164 190.717707,93.7258997 190.717707,91.6444672 L190.717707,81.4019514 Z" id="Fill-20" fill="#231F20"></path>
                                    <path d="M199.39067,88.5822793 L206.416427,88.5822793 C206.178057,86.6482918 205.05256,85.2549362 203.003074,85.2549362 C201.039597,85.2549362 199.675731,86.7564182 199.39067,88.5822793 M203.354485,93.8509822 C204.7675,93.8509822 205.912656,93.4135619 206.991462,92.6198161 L207.65005,93.6715908 C206.416427,94.6201539 205.030443,95.1042651 203.246358,95.1042651 C199.830548,95.1042651 197.867072,92.7697186 197.867072,89.5701611 C197.867072,86.4689004 199.982908,84.0434294 203.003074,84.0434294 C205.868423,84.0434294 207.760634,85.9626724 207.915451,88.7788727 C207.915451,88.7788727 207.981802,89.6193095 207.981802,89.7937861 L199.343979,89.7937861 C199.41033,92.1750236 200.820887,93.8509822 203.354485,93.8509822" id="Fill-21" fill="#231F20"></path>
                                    <path d="M218.33613,85.3687146 L217.276983,86.2263533 C216.792872,85.5628506 215.800075,85.341683 215.030903,85.341683 C214.458325,85.341683 213.885747,85.4129481 213.354945,85.6292008 C212.627549,85.9388354 212.453073,86.2681294 212.453073,87.0176417 L212.453073,94.9059515 L211.020398,94.9059515 L211.020398,86.4892969 C211.020398,84.5774262 213.509762,84.0662834 215.030903,84.0662834 C216.24241,84.0662834 217.586618,84.3046529 218.33613,85.3687146" id="Fill-22" fill="#231F20"></path>
                                </g>
                                <text id="X" font-family="BellSlimBold, Bell Slim Bold" font-size="15" font-weight="bold" fill="#9D9FA2">
                                    <tspan x="10.5951551" y="20.3187583">X</tspan>
                                </text>
                                <text id="X" font-family="BellSlimBold, Bell Slim Bold" font-size="15" font-weight="bold" fill="#9D9FA2">
                                    <tspan x="240.737408" y="115.268946">X</tspan>
                                </text>
                                <text id="X" font-family="BellSlimBold, Bell Slim Bold" font-size="15" font-weight="bold" fill="#9D9FA2">
                                    <tspan x="126.047931" y="20.2328562">X</tspan>
                                </text>
                            </g>
                        </g>
                    </g>
                </g>
            </g>
        </g>
    </g>
</svg>