<?xml version="1.0" encoding="UTF-8"?>
<svg width="306px" height="126px" viewBox="0 0 306 126" version="1.1" xmlns="http://www.w3.org/2000/svg" xmlns:xlink="http://www.w3.org/1999/xlink">
    <!-- Generator: sketchtool 53.2 (72643) - https://sketchapp.com -->
    <title>1AF4BBBD-24B1-41A4-B3CF-0E9F1155EF89</title>
    <desc>Created with sketchtool.</desc>
    <g id="Page-1" stroke="none" stroke-width="1" fill="none" fill-rule="evenodd">
        <g id="Logo-tagline" transform="translate(-960.000000, -2160.000000)">
            <g id="Group-2" transform="translate(300.000000, 0.000000)">
                <g id="Group-8" transform="translate(87.000000, 2032.000000)">
                    <g id="Group-3-Copy-5" transform="translate(490.000000, 91.000000)">
                        <g id="logo">
                            <g id="logo_clearspaceFR" transform="translate(84.000000, 37.000000)">
                                <g id="Group-25" transform="translate(0.000000, 0.388577)">
                                    <polygon id="Stroke-20" stroke="#9D9FA2" points="244.6655 29.9646731 274.146596 29.9646731 274.146596 0.481134615 244.6655 0.481134615"></polygon>
                                    <polygon id="Stroke-21" stroke="#9D9FA2" points="274.146596 124.132731 303.630135 124.132731 303.630135 94.6516346 274.146596 94.6516346"></polygon>
                                    <polygon id="Stroke-22" stroke="#9D9FA2" points="0.424961538 29.9646731 29.9060577 29.9646731 29.9060577 0.481134615 0.424961538 0.481134615"></polygon>
                                    <polygon id="Stroke-23" stroke="#9D9FA2" points="0.427403846 124.132731 303.630135 124.132731 303.630135 0.478692308 0.427403846 0.478692308"></polygon>
                                    <polygon id="Stroke-24" stroke="#9D9FA2" points="29.9085 94.6516346 274.146596 94.6516346 274.146596 29.9646731 29.9085 29.9646731"></polygon>
                                    <polygon id="Fill-1" fill="#020303" points="29.9060577 94.7126923 31.8403654 94.7126923 31.8403654 73.5671923 29.9060577 73.5671923"></polygon>
                                    <path d="M49.5348846,80.4364269 L49.5348846,94.7141577 L47.8423654,94.7141577 L47.8081731,94.5969269 C47.6909423,93.9716962 47.2146923,93.9716962 46.8288077,94.0864846 C46.2060192,94.2696577 45.6100962,94.4772538 44.9873077,94.6555423 C44.3596346,94.8045231 43.7050962,94.9217538 42.9333269,94.9217538 C38.5933462,94.9217538 35.7651538,92.1277538 35.7651538,87.7242731 C35.7651538,83.5283885 38.5005385,80.0505423 43.1140577,80.0505423 C45.1655962,80.0505423 46.7115769,80.7636962 47.7226923,81.9262346 L47.7226923,80.4364269 L49.5348846,80.4364269 Z M43.1995385,81.7137538 C39.5434038,81.7137538 37.7287692,84.4198308 37.7287692,87.6656577 C37.7287692,90.9359077 39.5727115,93.2561 43.1140577,93.2561 C44.8065769,93.2561 46.4697885,92.6308692 47.6323269,91.9787731 L47.6323269,86.2686577 C47.6323269,83.4136 45.6100962,81.7137538 43.1995385,81.7137538 L43.1995385,81.7137538 Z" id="Fill-2" fill="#020303"></path>
                                    <path d="M67.351275,94.8924462 C65.8663519,94.8924462 65.2997365,93.73235 64.7648712,92.3939654 L60.0951788,80.4364269 L62.207775,80.4364269 L66.5501981,91.8591 C66.8164096,92.5429462 67.0850635,93.1364269 67.351275,93.1364269 C67.6809865,93.1364269 67.9154481,92.5722538 68.1841019,91.8591 L72.3775442,80.4364269 L74.399775,80.4364269 L69.9401212,92.4232731 C69.4638712,93.6419846 68.8093327,94.8924462 67.351275,94.8924462" id="Fill-4" fill="#020303"></path>
                                    <path d="M78.9212192,77.6138519 C78.0566423,77.6138519 77.6463346,77.1669096 77.6463346,76.3023327 C77.6463346,75.4401981 78.0566423,75.0250058 78.9212192,75.0250058 C79.7857962,75.0250058 80.1716808,75.4401981 80.1716808,76.3023327 C80.1716808,77.1669096 79.7857962,77.6138519 78.9212192,77.6138519 L78.9212192,77.6138519 Z M77.9394115,94.7148904 L79.8737192,94.7148904 L79.8737192,80.4371596 L77.9394115,80.4371596 L77.9394115,94.7148904 Z" id="Fill-6" fill="#020303"></path>
                                    <path d="M91.4429308,93.2861404 C93.3454885,93.2861404 94.8914692,92.6926596 96.3470846,91.6204865 L97.2434115,93.0492365 C95.5753154,94.3265635 93.7020654,94.9835442 91.2915077,94.9835442 C86.6828731,94.9835442 84.0354115,91.8280827 84.0354115,87.5174096 C84.0354115,83.321525 86.8904692,80.051275 90.9691231,80.051275 C94.8328538,80.051275 97.38995,82.6401212 97.5975462,86.4476788 C97.5975462,86.4476788 97.6879115,87.576025 97.6879115,87.8153712 L86.0283346,87.8153712 C86.1187,91.0294481 88.0237,93.2861404 91.4429308,93.2861404 M86.0893923,86.1814673 L95.5753154,86.1814673 C95.2480462,83.5633135 93.7313731,81.6851788 90.9691231,81.6851788 C88.3192192,81.6851788 86.4752769,83.7074096 86.0893923,86.1814673" id="Fill-8" fill="#020303"></path>
                                    <path d="M116.307088,93.2861404 C118.209646,93.2861404 119.755627,92.6926596 121.213685,91.6204865 L122.107569,93.0492365 C120.437031,94.3265635 118.568665,94.9835442 116.155665,94.9835442 C111.551915,94.9835442 108.904454,91.8280827 108.904454,87.5174096 C108.904454,83.321525 111.759512,80.051275 115.833281,80.051275 C119.697012,80.051275 122.254108,82.6401212 122.464146,86.4476788 C122.464146,86.4476788 122.552069,87.576025 122.552069,87.8153712 L110.892492,87.8153712 C110.982858,91.0294481 112.8903,93.2861404 116.307088,93.2861404 M110.955992,86.1814673 L120.437031,86.1814673 C120.112204,83.5633135 118.595531,81.6851788 115.833281,81.6851788 C113.185819,81.6851788 111.344319,83.7074096 110.955992,86.1814673" id="Fill-10" fill="#020303"></path>
                                    <path d="M131.862635,86.5040962 C134.510096,87.2221346 136.979269,88.3504808 136.979269,91.1151731 C136.979269,93.3743077 135.760558,95.0692692 131.027365,95.0692692 C128.589942,95.0692692 126.330808,94.4440385 125.405173,92.4853077 L127.075712,91.6500385 C127.788865,93.0201731 128.948962,93.4646731 131.176346,93.4646731 C134.180385,93.4646731 135.135327,92.5707885 135.135327,91.3227692 C135.135327,89.7450385 133.528288,88.9146538 131.386385,88.3187308 C128.055077,87.4004231 126.062154,86.2965 126.062154,83.7687115 C126.062154,81.2995385 128.084385,80.1418846 131.269154,80.1418846 C133.025173,80.1418846 135.401538,80.2566731 136.529885,82.5206923 L134.957038,83.3217692 C134.241442,82.0126923 132.783385,81.7147308 131.147038,81.7147308 C129.718288,81.7147308 127.964712,82.1006154 127.964712,83.6197308 C127.964712,84.7480769 128.531327,85.5833462 131.862635,86.5040962" id="Fill-12" fill="#020303"></path>
                                    <path d="M140.458337,76.6012712 L142.390202,76.6012712 L142.390202,80.4356942 L147.15026,80.4356942 L147.15026,82.2503288 L142.390202,82.2503288 L142.390202,90.2513288 C142.390202,92.0659635 143.310952,93.1356942 145.154894,93.1356942 C146.16601,93.1356942 147.26749,92.871925 148.193125,92.5422135 L148.193125,94.205425 C147.23574,94.6523673 145.929106,94.8624058 144.859375,94.8624058 C142.065375,94.8624058 140.458337,93.1650019 140.458337,90.3734442 L140.458337,76.6012712 Z" id="Fill-14" fill="#020303"></path>
                                    <path d="M244.666721,67.9078769 C244.063471,64.9990885 242.910702,62.5860885 241.249933,60.3953385 C237.842913,55.9014923 232.32574,53.0586462 224.859606,53.0586462 C213.251317,53.0586462 206.112452,60.9399731 203.994971,69.2511462 C202.097298,63.39205 197.017298,59.4403962 191.651548,57.7698577 C195.691125,54.8219923 197.806163,50.6090115 197.806163,45.8049923 C197.806163,41.3428962 195.947567,37.2764538 192.83851,34.6314346 C188.273837,30.75305 182.053279,29.9641846 174.389317,29.9641846 L159.408202,29.9641846 L159.408202,94.6560308 C163.652933,94.6560308 168.017337,94.63405 172.269394,94.6560308 C176.052529,94.6706846 179.750183,94.6462615 183.198721,94.5094923 C194.103625,94.0747615 201.56976,88.5844538 203.960779,80.3367808 C204.781394,84.0026846 206.361567,86.9896269 208.420433,89.2609731 C212.61876,93.8842615 218.709875,95.6891269 224.844952,95.6891269 C232.394125,95.6891269 237.852683,93.5008192 241.582087,90.1426462 L236.245644,83.8708 C233.561548,85.8954731 230.108125,87.0897615 226.227298,87.0897615 C218.624394,87.0653385 215.271106,82.2539923 214.973144,77.6258192 L244.666721,77.6258192 L244.666721,94.6560308 L255.786548,94.6560308 L255.786548,30.2865692 L244.666721,30.2865692 L244.666721,67.9078769 Z M170.838202,38.7027615 L173.930163,38.7003192 C176.914663,38.7003192 179.27149,39.0227038 180.966452,39.6796846 C184.322183,40.9814346 185.914567,43.6459923 185.914567,46.9748577 C185.91701,49.7883962 184.839952,54.2114154 178.917356,55.4203577 C177.930663,55.6230692 176.499471,55.7354154 174.48701,55.7354154 L170.838202,55.7354154 L170.838202,38.7027615 Z M183.413644,85.1896462 C182.021529,85.4338769 180.31924,85.4924923 178.934452,85.4924923 L170.838202,85.4924923 L170.838202,64.3836269 L178.084529,64.3836269 C180.370529,64.3836269 182.959375,64.6449538 184.441856,65.0308385 C189.521856,66.3643385 192.442856,70.0082615 192.442856,74.8342615 C192.442856,79.8312231 189.756317,84.0442038 183.413644,85.1896462 L183.413644,85.1896462 Z M215.175856,69.5857423 C216.155221,64.8696462 219.637952,61.4797231 224.771683,61.4797231 C229.910298,61.4797231 233.329529,64.5203962 234.216087,69.5857423 L215.175856,69.5857423 Z" id="Fill-16" fill="#00549A"></path>
                                    <polygon id="Fill-18" fill="#00549A" points="263.212385 94.6516346 274.146596 94.6516346 274.146596 30.2846154 263.212385 30.2846154"></polygon>
                                </g>
                                <text id="X" font-family="BellSlimBold, Bell Slim Bold" font-size="15" font-weight="bold" fill="#9D9FA2">
                                    <tspan x="10.5348942" y="20.9131295">X</tspan>
                                </text>
                                <text id="X" font-family="BellSlimBold, Bell Slim Bold" font-size="15" font-weight="bold" fill="#9D9FA2">
                                    <tspan x="284.917261" y="113.515619">X</tspan>
                                </text>
                                <text id="X" font-family="BellSlimBold, Bell Slim Bold" font-size="15" font-weight="bold" fill="#9D9FA2">
                                    <tspan x="254.368971" y="20.8334319">X</tspan>
                                </text>
                            </g>
                        </g>
                    </g>
                </g>
            </g>
        </g>
    </g>
</svg>