<?xml version="1.0" encoding="UTF-8"?>
<svg width="320px" height="109px" viewBox="0 0 320 109" version="1.1" xmlns="http://www.w3.org/2000/svg" xmlns:xlink="http://www.w3.org/1999/xlink">
    <!-- Generator: sketchtool 53.2 (72643) - https://sketchapp.com -->
    <title>0A2FB9C6-5996-4538-A30B-BA660C59DF9A</title>
    <desc>Created with sketchtool.</desc>
    <g id="Page-1" stroke="none" stroke-width="1" fill="none" fill-rule="evenodd">
        <g id="Logo-tagline" transform="translate(-707.000000, -770.000000)">
            <g id="Group-2" transform="translate(300.000000, 0.000000)">
                <g id="Group-3" transform="translate(87.000000, 642.000000)">
                    <g id="Group-4">
                        <g id="Group-13" transform="translate(0.000000, 54.000000)">
                            <g id="logo_taglineEN" transform="translate(320.000000, 74.000000)">
                                <path d="M89.4691707,66.8868325 C91.0431545,59.3277756 96.6347317,53.8817919 104.870602,53.8817919 C113.110407,53.8817919 118.59574,58.7650764 120.020195,66.8868325 L89.4691707,66.8868325 Z M38.5114472,91.9171089 C36.2803252,92.3224098 33.5494634,92.4089789 31.3301463,92.4089789 L18.3369106,92.4089789 L18.3369106,58.5486537 L29.9607805,58.5486537 C33.6320976,58.5486537 37.7834797,58.9657593 40.1601951,59.5874829 C48.3134309,61.7241659 52.9960325,67.5715154 52.9960325,75.3155154 C52.9960325,83.3270927 48.687252,90.0834179 38.5114472,91.9171089 L38.5114472,91.9171089 Z M18.3369106,17.3456943 L23.2988943,17.3417593 C28.0838049,17.3417593 31.8692358,17.857239 34.5922276,18.9118081 C39.9673821,20.9934016 42.5251057,25.2785724 42.5251057,30.6183122 C42.5290407,35.1356455 40.8015935,42.2264423 31.3026016,44.1703122 C29.716813,44.4929789 27.4266667,44.670052 24.1921301,44.670052 L18.3369106,44.670052 L18.3369106,17.3456943 Z M136.783122,64.2031902 C135.819057,59.5245236 133.969626,55.6643285 131.305659,52.1464748 C125.84,44.9297593 116.986341,40.3770114 105.00439,40.3770114 C86.3802276,40.3770114 74.9294959,53.0239707 71.537561,66.359548 C68.4879675,56.9549951 60.3386667,50.6157756 51.7289756,47.9321333 C58.2137886,43.2062472 61.6017886,36.449922 61.6017886,28.7374016 C61.6017886,21.5757756 58.6230244,15.055548 53.6334959,10.8175967 C46.3105366,4.59642602 36.3314797,3.32149919 24.0386667,3.32149919 L0,3.32149919 L0,107.106052 C6.81141463,107.106052 13.8077724,107.074572 20.6349268,107.106052 C26.7065691,107.133597 32.6326179,107.098182 38.1612358,106.877824 C55.663935,106.173467 67.6458862,97.3670276 71.4785366,84.1376943 C72.792813,90.0204585 75.3269268,94.813239 78.6322927,98.4530764 C85.3689431,105.87441 95.1433821,108.77054 104.984715,108.77054 C117.09652,108.77054 125.859675,105.256621 131.836878,99.8735967 L123.274407,89.8040358 C118.965626,93.0543122 113.425203,94.9706374 107.200098,94.9706374 C95.0017236,94.9312878 89.6226341,87.2148325 89.1425691,79.7934992 L136.783122,79.7934992 L136.783122,107.106052 L154.628163,107.106052 L154.628163,3.84091382 L136.783122,3.84091382 L136.783122,64.2031902 Z" id="Fill-1" fill="#00549A"></path>
                                <polygon id="Fill-3" fill="#00549A" points="166.539285 107.106052 184.081333 107.106052 184.081333 3.84091382 166.539285 3.84091382"></polygon>
                                <path d="M201.571047,3.66777561 L203.865128,3.66777561 L203.865128,8.21658862 L209.50786,8.21658862 L209.50786,10.3690114 L203.865128,10.3690114 L203.865128,19.8522634 C203.865128,22.0046862 204.959047,23.275678 207.14295,23.275678 C208.343112,23.275678 209.649519,22.9569463 210.747372,22.5713203 L210.747372,24.5466699 C209.614104,25.0739545 208.06373,25.3257919 206.792738,25.3257919 C203.479502,25.3257919 201.571047,23.3150276 201.571047,19.9978569 L201.571047,3.66777561 Z" id="Fill-5" fill="#231F20"></path>
                                <path d="M228.233938,16.5390276 C228.233938,12.9464098 225.691954,9.73548293 221.918328,9.73548293 C218.038459,9.73548293 215.681418,12.8401659 215.681418,16.5390276 C215.681418,20.277239 218.006979,23.4527512 221.918328,23.4527512 C225.731304,23.4527512 228.233938,20.4582472 228.233938,16.5390276 M230.52802,16.5783772 C230.52802,21.6190602 227.033776,25.4281008 221.918328,25.4281008 C216.91306,25.4281008 213.383402,21.5128163 213.383402,16.5783772 C213.383402,11.7068976 216.94454,7.76013333 221.918328,7.76013333 C227.033776,7.76013333 230.52802,11.565239 230.52802,16.5783772" id="Fill-6" fill="#231F20"></path>
                                <path d="M243.149402,9.84133333 C239.163288,9.84133333 236.908556,12.8043577 236.908556,16.5779837 C236.908556,20.3122602 238.883906,23.4169431 243.047093,23.4169431 C245.549727,23.4169431 247.206345,22.5709268 248.618995,21.5517724 L248.618995,14.8820163 C248.618995,11.9898211 246.395743,9.84133333 243.149402,9.84133333 L243.149402,9.84133333 Z M250.909141,25.1443902 L248.792133,25.1443902 L248.792133,24.687935 C248.792133,23.912748 248.158605,24.0544065 247.6628,24.2629593 C246.360328,24.8650081 244.597467,25.360813 242.901499,25.360813 C237.53815,25.360813 234.61841,21.6186667 234.61841,16.6133984 C234.61841,11.6710894 237.99854,7.86204878 243.047093,7.86204878 C245.7268,7.86204878 247.521141,8.74347967 248.792133,10.0184065 L248.792133,0 L250.909141,0 L250.909141,25.1443902 Z" id="Fill-7" fill="#231F20"></path>
                                <path d="M264.90894,9.73351545 C260.56868,9.73351545 258.420192,12.9444423 258.420192,16.7849626 C258.420192,20.6687675 260.604094,23.4193041 264.802696,23.4193041 C266.809525,23.4193041 268.784875,22.6795317 270.166046,21.9004098 L270.166046,15.1322797 C270.166046,11.7442797 267.761785,9.73351545 264.90894,9.73351545 L264.90894,9.73351545 Z M272.420777,8.21462114 L272.420777,25.1428163 L270.410013,25.1428163 L270.374598,25.0050927 C270.23294,24.2613854 269.666306,24.2613854 269.213785,24.4069789 C268.470078,24.6194667 267.761785,24.8673691 267.022013,25.071987 C266.286176,25.2529951 265.507054,25.3907187 264.590208,25.3907187 C259.443281,25.3907187 256.094631,22.0774829 256.094631,16.8597268 C256.094631,11.8859382 259.333102,7.75816585 264.802696,7.75816585 C267.234501,7.75816585 269.072127,8.60418211 270.268354,9.97748293 L270.268354,8.21462114 L272.420777,8.21462114 Z" id="Fill-8" fill="#231F20"></path>
                                <path d="M291.216504,22.218748 L291.216504,8.21422764 L293.475171,8.21422764 L293.475171,25.1424228 C293.475171,30.5018374 290.795463,34.0314959 285.467528,34.0314959 C283.527593,34.0314959 281.902455,33.7166992 280.391431,32.866748 L280.883301,30.8953333 C282.327431,31.6351057 283.633837,32.0207317 285.432114,32.0207317 C289.382813,32.0207317 291.216504,29.3449593 291.216504,25.4650894 L291.216504,24.4065854 C289.768439,25.0401138 288.040992,25.4650894 285.963333,25.4650894 C281.410585,25.4650894 278.522325,22.993935 278.522325,18.3742927 L278.522325,8.21422764 L280.780992,8.21422764 L280.780992,18.2719837 C280.780992,21.054 282.225122,23.4189106 285.963333,23.4189106 C287.478293,23.4189106 289.489057,23.0686992 291.216504,22.218748" id="Fill-9" fill="#231F20"></path>
                                <path d="M205.00666,41.9722439 C205.00666,40.9452195 204.51479,40.4533496 203.527115,40.4533496 C202.504026,40.4533496 202.008221,40.9452195 202.008221,41.9722439 C202.008221,42.9913984 202.504026,43.5226179 203.527115,43.5226179 C204.51479,43.5226179 205.00666,42.9913984 205.00666,41.9722439 L205.00666,41.9722439 Z M196.963603,69.9773496 C202.256124,70.5754634 202.393847,67.5416098 202.393847,65.4246016 L202.393847,46.8712683 L204.621034,46.8712683 L204.621034,65.5308455 C204.621034,69.162813 203.13362,72.7593659 196.790465,72.0904228 L196.963603,69.9773496 Z" id="Fill-10" fill="#231F20"></path>
                                <path d="M222.250833,61.616348 L222.250833,46.9074699 L224.544914,46.9074699 L224.544914,63.2060715 C222.671873,63.835665 220.452556,64.225226 218.056166,64.225226 C212.732166,64.225226 210.225597,61.7934211 210.225597,57.4177463 L210.225597,46.9074699 L212.484263,46.9074699 L212.484263,57.3469171 C212.484263,60.1368033 213.928393,62.1436325 218.158475,62.1436325 C219.256328,62.1436325 221.227743,61.9665593 222.250833,61.616348" id="Fill-11" fill="#231F20"></path>
                                <path d="M236.707086,54.0655545 C239.847184,54.9155057 242.774793,56.2533919 242.774793,59.535148 C242.774793,62.2148553 241.326728,64.2256195 235.723346,64.2256195 C232.831151,64.2256195 230.147509,63.4858472 229.057525,61.1563512 L231.032875,60.1686764 C231.874956,61.7938146 233.256127,62.3210992 235.90042,62.3210992 C239.465493,62.3210992 240.586956,61.2586602 240.586956,59.7830504 C240.586956,57.9139447 238.682436,56.9262699 236.148322,56.2179772 C232.193688,55.1279935 229.832712,53.821587 229.832712,50.823148 C229.832712,47.8955382 232.229102,46.5222374 236.006663,46.5222374 C238.084322,46.5222374 240.905688,46.6638959 242.247509,49.3436033 L240.378403,50.2958634 C239.528452,48.7415545 237.801005,48.3913431 235.865005,48.3913431 C234.169037,48.3913431 232.091379,48.8517333 232.091379,50.6500098 C232.091379,51.983961 232.760322,52.9755707 236.707086,54.0655545" id="Fill-12" fill="#231F20"></path>
                                <path d="M247.426702,42.3220618 L249.720784,42.3220618 L249.720784,46.8708748 L255.363515,46.8708748 L255.363515,49.0272325 L249.720784,49.0272325 L249.720784,58.5104846 C249.720784,60.6629073 250.814702,61.9299642 253.00254,61.9299642 C254.198767,61.9299642 255.509109,61.6151675 256.599093,61.2256065 L256.599093,63.208826 C255.469759,63.7321756 253.919385,63.980078 252.648393,63.980078 C249.335158,63.980078 247.426702,61.9693138 247.426702,58.6521431 L247.426702,42.3220618 Z" id="Fill-13" fill="#231F20"></path>
                                <path d="M282.516309,53.4332065 C282.516309,50.2931089 280.257642,48.4948325 277.12148,48.4948325 C273.206195,48.4948325 270.982943,51.5601659 270.982943,55.2668976 C270.982943,59.0051089 272.78122,62.1097919 277.12148,62.1097919 C279.273902,62.1097919 281.143008,61.2991902 282.516309,60.453174 L282.516309,53.4332065 Z M277.294618,46.5194829 C282.095268,46.5194829 284.814325,49.3447837 284.814325,53.1538244 L284.814325,63.9080683 C285.018943,69.2320683 282.055919,72.7971415 276.731919,72.7971415 C274.760504,72.7971415 272.78122,72.4429951 271.26626,71.6323935 L271.762065,69.6570439 C273.206195,70.3653366 274.898228,70.7863772 276.696504,70.7863772 C280.615724,70.7863772 282.591073,68.1066699 282.591073,64.2268 L282.591073,63.837239 C282.591073,62.8141496 281.95361,62.8849789 281.351561,63.1289463 C279.698878,63.7664098 278.321642,64.0851415 276.877512,64.0851415 C271.549577,64.0851415 268.586553,60.3115154 268.586553,55.3023122 C268.586553,50.3993528 271.828959,46.5194829 277.294618,46.5194829 L277.294618,46.5194829 Z" id="Fill-14" fill="#231F20"></path>
                                <path d="M303.676553,55.1972488 C303.676553,51.596761 301.134569,48.3897691 297.364878,48.3897691 C293.485008,48.3897691 291.120098,51.494452 291.120098,55.1972488 C291.120098,58.9393951 293.449593,62.1109724 297.364878,62.1109724 C301.173919,62.1109724 303.676553,59.1125333 303.676553,55.1972488 M305.970634,55.2287285 C305.970634,60.2733463 302.480325,64.082387 297.364878,64.082387 C292.35961,64.082387 288.829951,60.1671024 288.829951,55.2287285 C288.829951,50.3611837 292.391089,46.4183545 297.364878,46.4183545 C302.480325,46.4183545 305.970634,50.2195252 305.970634,55.2287285" id="Fill-15" fill="#231F20"></path>
                                <path d="M310.482065,42.3220618 L312.772211,42.3220618 L312.772211,46.8708748 L318.414943,46.8708748 L318.414943,49.0272325 L312.772211,49.0272325 L312.772211,58.5104846 C312.772211,60.6629073 313.86613,61.9299642 316.057902,61.9299642 C317.25413,61.9299642 318.560537,61.6151675 319.65052,61.2256065 L319.65052,63.208826 C318.525122,63.7321756 316.970813,63.980078 315.703756,63.980078 C312.386585,63.980078 310.482065,61.9693138 310.482065,58.6521431 L310.482065,42.3220618 Z" id="Fill-16" fill="#231F20"></path>
                                <path d="M203.811613,97.5688911 L203.811613,102.822062 C205.259678,103.849086 207.164198,104.797411 209.525174,104.797411 C213.688361,104.797411 215.699125,101.661249 215.699125,97.8128585 C215.699125,94.2202407 213.83002,91.2532813 209.87932,91.2532813 C206.455906,91.2532813 203.811613,93.795265 203.811613,97.5688911 M204.905532,105.611948 C204.165759,105.257802 203.811613,105.576533 203.811613,106.174647 L203.811613,106.528793 L201.623776,106.528793 L201.623776,81.4158829 L203.811613,81.4158829 L203.811613,92.1386472 C205.259678,90.1632976 207.478995,89.2110374 210.020979,89.2110374 C214.920003,89.2110374 218.024686,92.736761 218.024686,97.8128585 C218.024686,102.822062 214.746865,106.737346 209.702247,106.737346 C207.620654,106.737346 206.385076,106.316306 204.905532,105.611948" id="Fill-17" fill="#231F20"></path>
                                <path d="M223.70362,96.4045366 L234.949733,96.4045366 C234.564107,93.2998537 232.765831,91.0766016 229.484075,91.0766016 C226.347912,91.0766016 224.160075,93.4769268 223.70362,96.4045366 M230.050709,104.837154 C232.305441,104.837154 234.135197,104.128862 235.866579,102.85787 L236.925083,104.553837 C234.949733,106.072732 232.730416,106.847919 229.873636,106.847919 C224.404042,106.847919 221.263945,103.105772 221.263945,97.9903252 C221.263945,93.0165366 224.65588,89.1366667 229.484075,89.1366667 C234.072237,89.1366667 237.098221,92.2098699 237.350059,96.7193333 C237.350059,96.7193333 237.452367,98.0650894 237.452367,98.3484065 L223.628855,98.3484065 C223.735099,102.153512 225.993766,104.837154 230.050709,104.837154" id="Fill-18" fill="#231F20"></path>
                                <path d="M242.390741,85.0494244 L244.684823,85.0494244 L244.684823,89.5982374 L250.327554,89.5982374 L250.327554,91.7506602 L244.684823,91.7506602 L244.684823,101.233912 C244.684823,103.39027 245.774807,104.657327 247.958709,104.657327 C249.162807,104.657327 250.465278,104.34253 251.559197,103.952969 L251.559197,105.928319 C250.429863,106.451668 248.879489,106.703506 247.608498,106.703506 C244.299197,106.703506 242.390741,104.692741 242.390741,101.379506 L242.390741,85.0494244 Z" id="Fill-19" fill="#231F20"></path>
                                <path d="M256.10919,85.0494244 L258.399337,85.0494244 L258.399337,89.5982374 L264.042068,89.5982374 L264.042068,91.7506602 L258.399337,91.7506602 L258.399337,101.233912 C258.399337,103.39027 259.493255,104.657327 261.681093,104.657327 C262.881255,104.657327 264.187662,104.34253 265.277646,103.952969 L265.277646,105.928319 C264.144377,106.451668 262.597938,106.703506 261.326946,106.703506 C258.013711,106.703506 256.10919,104.692741 256.10919,101.379506 L256.10919,85.0494244 Z" id="Fill-20" fill="#231F20"></path>
                                <path d="M269.939392,96.4970081 L281.142221,96.4970081 C280.76053,93.408065 278.962254,91.1966179 275.700172,91.1966179 C272.567945,91.1966179 270.391912,93.5851382 269.939392,96.4970081 M276.258937,104.898146 C278.509733,104.898146 280.335554,104.193789 282.059067,102.926732 L283.109701,104.614829 C281.142221,106.125854 278.930774,106.901041 276.085798,106.901041 C270.64375,106.901041 267.511522,103.174634 267.511522,98.0827967 C267.511522,93.1286829 270.883782,89.2606179 275.700172,89.2606179 C280.26866,89.2606179 283.282839,92.3220163 283.534676,96.8157398 C283.534676,96.8157398 283.63305,98.1496911 283.63305,98.4290732 L269.864628,98.4290732 C269.970872,102.226309 272.221668,104.898146 276.258937,104.898146" id="Fill-21" fill="#231F20"></path>
                                <path d="M300.144927,91.374478 L298.456829,92.7438439 C297.685577,91.6892748 296.103724,91.3351285 294.876016,91.3351285 C293.963106,91.3351285 293.050195,91.4374374 292.204179,91.7915837 C291.043366,92.2873886 290.767919,92.8107382 290.767919,94.0030309 L290.767919,106.583096 L288.481707,106.583096 L288.481707,93.1609496 C288.481707,90.1113561 292.452081,89.3007545 294.876016,89.3007545 C296.804146,89.3007545 298.948699,89.6863805 300.144927,91.374478" id="Fill-22" fill="#231F20"></path>
                            </g>
                        </g>
                    </g>
                </g>
            </g>
        </g>
    </g>
</svg>