<?xml version="1.0" encoding="UTF-8"?>
<svg width="37px" height="37px" viewBox="0 0 37 37" version="1.1" xmlns="http://www.w3.org/2000/svg" xmlns:xlink="http://www.w3.org/1999/xlink">
    <!-- Generator: sketchtool 54.1 (76490) - https://sketchapp.com -->
    <title>7DF8E0A9-839B-4448-8D81-CAF350818D4F</title>
    <desc>Created with sketchtool.</desc>
    <defs>
        <path d="M18.141,23.4346953 L13.2506523,18.5448216 C13.1041986,18.3983821 12.8667617,18.3983936 12.7203222,18.5448473 C12.5738827,18.691301 12.5738942,18.9287379 12.7203479,19.0751774 L17.8758479,24.2301776 C18.0222915,24.376607 18.2597085,24.376607 18.4061522,24.2301776 L23.5616522,19.0751774 C23.7081059,18.9287379 23.7081174,18.691301 23.5616779,18.5448473 C23.4152384,18.3983936 23.1778015,18.3983821 23.0313478,18.5448216 L18.141,23.4346953 Z M17.7659998,9.02499961 L17.7659998,23.9649992 C17.7659998,24.172106 17.933893,24.3399992 18.1409998,24.3399992 C18.3481066,24.3399992 18.5159998,24.172106 18.5159998,23.9649992 L18.5159998,9.02499961 C18.5159998,8.81789283 18.3481066,8.64999962 18.1409998,8.64999962 C17.933893,8.64999962 17.7659998,8.81789283 17.7659998,9.02499961 Z M11.1875,27.4900002 L11.1875,24.3350001 C11.1875,24.1278933 11.0196068,23.96 10.8125,23.96 C10.6053932,23.96 10.4375,24.1278933 10.4375,24.3350001 L10.4375,27.8650002 C10.4375,28.072107 10.6053932,28.2400002 10.8125,28.2400002 L25.4689999,28.2400002 C25.6761066,28.2400002 25.8439999,28.072107 25.8439999,27.8650002 L25.8439999,24.3350001 C25.8439999,24.1278933 25.6761066,23.96 25.4689999,23.96 C25.2618931,23.96 25.0939999,24.1278933 25.0939999,24.3350001 L25.0939999,27.4900002 L11.1875,27.4900002 Z" id="path-1"></path>
    </defs>
    <g id="Homepage" stroke="none" stroke-width="1" fill="none" fill-rule="evenodd">
        <g id="Getting-started" transform="translate(-1134.000000, -1930.000000)">
            <g id="Group-8" transform="translate(300.000000, 0.000000)">
                <g id="Group-6" transform="translate(90.000000, 548.000000)">
                    <g id="Group-7" transform="translate(29.000000, 1300.000000)">
                        <g id="ICONS-/-DOWNLOAD_O2" transform="translate(715.000000, 82.000000)">
                            <g id="BACKGROUNDS-/-BLUE-FILLED-CIRCLE" transform="translate(0.500000, 0.500000)" fill="#FFFFFF">
                                <path d="M18.0002506,35.9995003 C8.05891607,35.9995003 0,27.9410851 0,17.9997501 C0,8.05891639 8.05891607,0 18.0002506,0 C27.9410839,0 36,8.05891639 36,17.9997501 C36,27.9410851 27.9410839,35.9995003 18.0002506,35.9995003 Z" id="CIRCLE-BACKGROUND-ICON"></path>
                            </g>
                            <mask id="mask-2" fill="white">
                                <use xlink:href="#path-1"></use>
                            </mask>
                            <use id="Stroke-116" fill="#FFFFFE" fill-rule="nonzero" xlink:href="#path-1"></use>
                            <g id="Tint-/-White" mask="url(#mask-2)" fill="#00549A">
                                <rect x="0" y="0" width="37" height="37"></rect>
                            </g>
                        </g>
                    </g>
                </g>
            </g>
        </g>
    </g>
</svg>