<?xml version="1.0" encoding="UTF-8"?>
<svg width="349px" height="60px" viewBox="0 0 349 60" version="1.1" xmlns="http://www.w3.org/2000/svg" xmlns:xlink="http://www.w3.org/1999/xlink">
    <!-- Generator: sketchtool 53.2 (72643) - https://sketchapp.com -->
    <title>1D683BB6-1826-4817-8178-DF5DAAD2BEA4</title>
    <desc>Created with sketchtool.</desc>
    <g id="Page-1" stroke="none" stroke-width="1" fill="none" fill-rule="evenodd">
        <g id="Logo-tagline" transform="translate(-939.000000, -1162.000000)">
            <g id="Group-2" transform="translate(300.000000, 0.000000)">
                <g id="Group-3" transform="translate(87.000000, 642.000000)">
                    <g id="logo" transform="translate(490.000000, 450.000000)">
                        <g id="logo-MTS_taglineEN" transform="translate(62.000000, 70.000000)">
                            <path d="M276.635571,2.19728571 L278.009143,2.19728571 L278.009143,4.92085714 L281.388429,4.92085714 L281.388429,6.21085714 L278.009143,6.21085714 L278.009143,11.8915714 C278.009143,13.1794286 278.662714,13.9401429 279.974143,13.9401429 C280.692,13.9401429 281.472,13.7515714 282.127714,13.518 L282.127714,14.7008571 C281.452714,15.018 280.520571,15.1658571 279.762,15.1658571 C277.775571,15.1658571 276.635571,13.9615714 276.635571,11.9772857 L276.635571,2.19728571 Z" id="Fill-1" fill="#231F20"></path>
                            <path d="M292.599214,9.90664286 C292.599214,7.75307143 291.079929,5.83092857 288.819214,5.83092857 C286.494214,5.83092857 285.079929,7.68878571 285.079929,9.90664286 C285.079929,12.1459286 286.474929,14.0466429 288.819214,14.0466429 C291.099214,14.0466429 292.599214,12.2509286 292.599214,9.90664286 M293.972786,9.92807143 C293.972786,12.9473571 291.881357,15.2295 288.819214,15.2295 C285.819214,15.2295 283.7085,12.8852143 283.7085,9.92807143 C283.7085,7.01378571 285.840643,4.64807143 288.819214,4.64807143 C291.881357,4.64807143 293.972786,6.92807143 293.972786,9.92807143" id="Fill-3" fill="#231F20"></path>
                            <path d="M301.526357,5.89392857 C299.139214,5.89392857 297.787071,7.66821429 297.787071,9.92678571 C297.787071,12.1660714 298.969929,14.0260714 301.462071,14.0260714 C302.962071,14.0260714 303.954214,13.5182143 304.800643,12.9053571 L304.800643,8.91321429 C304.800643,7.18178571 303.469929,5.89392857 301.526357,5.89392857 L301.526357,5.89392857 Z M306.172071,15.0610714 L304.905643,15.0610714 L304.905643,14.7867857 C304.905643,14.3217857 304.524214,14.4053571 304.230643,14.5317857 C303.4485,14.8917857 302.392071,15.1875 301.3785,15.1875 C298.1685,15.1875 296.4135,12.9482143 296.4135,9.95035714 C296.4135,6.99107143 298.442786,4.71107143 301.462071,4.71107143 C303.067071,4.71107143 304.144929,5.23821429 304.905643,5.99892857 L304.905643,0.00107142857 L306.172071,0.00107142857 L306.172071,15.0610714 Z" id="Fill-5" fill="#231F20"></path>
                            <path d="M314.550857,5.83007143 C311.953714,5.83007143 310.665857,7.75221429 310.665857,10.0557857 C310.665857,12.3786429 311.973,14.0265 314.488714,14.0265 C315.690857,14.0265 316.873714,13.5829286 317.698714,13.1179286 L317.698714,9.0615 C317.698714,7.03435714 316.260857,5.83007143 314.550857,5.83007143 L314.550857,5.83007143 Z M319.050857,4.9215 L319.050857,15.0615 L317.846571,15.0615 L317.825143,14.9757857 C317.739429,14.5322143 317.403,14.5322143 317.128714,14.6179286 C316.685143,14.7443571 316.260857,14.8922143 315.817286,15.0186429 C315.373714,15.1236429 314.908714,15.2072143 314.360143,15.2072143 C311.276571,15.2072143 309.270857,13.2229286 309.270857,10.0965 C309.270857,7.12007143 311.212286,4.64721429 314.488714,4.64721429 C315.943714,4.64721429 317.043,5.15507143 317.763,5.97792857 L317.763,4.9215 L319.050857,4.9215 Z" id="Fill-7" fill="#231F20"></path>
                            <path d="M330.3,13.3071429 L330.3,4.92214286 L331.652143,4.92214286 L331.652143,15.06 C331.652143,18.27 330.045,20.3828571 326.856429,20.3828571 C325.695,20.3828571 324.722143,20.1942857 323.815714,19.6864286 L324.109286,18.5035714 C324.977143,18.9471429 325.757143,19.1807143 326.835,19.1807143 C329.200714,19.1807143 330.3,17.5735714 330.3,15.2507143 L330.3,14.6164286 C329.434286,14.9978571 328.399286,15.2507143 327.152143,15.2507143 C324.426429,15.2507143 322.695,13.7721429 322.695,11.0057143 L322.695,4.92214286 L324.047143,4.92214286 L324.047143,10.9414286 C324.047143,12.6107143 324.912857,14.025 327.152143,14.025 C328.060714,14.025 329.265,13.815 330.3,13.3071429" id="Fill-9" fill="#231F20"></path>
                            <path d="M278.684143,22.6307143 C278.684143,22.0178571 278.388429,21.7221429 277.797,21.7221429 C277.184143,21.7221429 276.888429,22.0178571 276.888429,22.6307143 C276.888429,23.2435714 277.184143,23.5607143 277.797,23.5607143 C278.388429,23.5607143 278.684143,23.2435714 278.684143,22.6307143 L278.684143,22.6307143 Z M273.867,39.4028571 C277.036286,39.7607143 277.122,37.9435714 277.122,36.6771429 L277.122,25.5664286 L278.452714,25.5664286 L278.452714,36.7392857 C278.452714,38.9164286 277.565571,41.07 273.764143,40.6692857 L273.867,39.4028571 Z" id="Fill-11" fill="#231F20"></path>
                            <path d="M289.305429,34.3956429 L289.305429,25.5885 L290.679,25.5885 L290.679,35.3470714 C289.558286,35.7263571 288.227571,35.9577857 286.791857,35.9577857 C283.601143,35.9577857 282.103286,34.5006429 282.103286,31.8820714 L282.103286,25.5885 L283.455429,25.5885 L283.455429,31.8413571 C283.455429,33.5085 284.321143,34.7127857 286.854,34.7127857 C287.509714,34.7127857 288.692571,34.6077857 289.305429,34.3956429" id="Fill-13" fill="#231F20"></path>
                            <path d="M298.000286,29.8755 C299.879571,30.3833571 301.634571,31.1847857 301.634571,33.1497857 C301.634571,34.7547857 300.768857,35.9590714 297.408857,35.9590714 C295.677429,35.9590714 294.072429,35.5155 293.416714,34.1205 L294.599571,33.5312143 C295.107429,34.5019286 295.930286,34.8190714 297.513857,34.8190714 C299.648143,34.8190714 300.323143,34.1847857 300.323143,33.2976429 C300.323143,32.1790714 299.183143,31.5855 297.661714,31.1655 C295.296,30.5097857 293.881714,29.7276429 293.881714,27.9319286 C293.881714,26.1790714 295.319571,25.3562143 297.578143,25.3562143 C298.825286,25.3562143 300.513857,25.4397857 301.317429,27.0447857 L300.196714,27.6147857 C299.691,26.6869286 298.656,26.4747857 297.494571,26.4747857 C296.481,26.4747857 295.233857,26.7512143 295.233857,27.8269286 C295.233857,28.6283571 295.634571,29.2197857 298.000286,29.8755" id="Fill-15" fill="#231F20"></path>
                            <path d="M304.415143,22.8422143 L305.788714,22.8422143 L305.788714,25.5657857 L309.168,25.5657857 L309.168,26.8557857 L305.788714,26.8557857 L305.788714,32.5365 C305.788714,33.8243571 306.442286,34.5850714 307.753714,34.5850714 C308.471571,34.5850714 309.251571,34.3965 309.907286,34.1629286 L309.907286,35.3457857 C309.232286,35.6629286 308.300143,35.8107857 307.541571,35.8107857 C305.555143,35.8107857 304.415143,34.6065 304.415143,32.6222143 L304.415143,22.8422143 Z" id="Fill-17" fill="#231F20"></path>
                            <path d="M325.423071,29.4957857 C325.423071,27.6165 324.070929,26.5386429 322.191643,26.5386429 C319.847357,26.5386429 318.516643,28.3772143 318.516643,30.5950714 C318.516643,32.8343571 319.592357,34.6922143 322.191643,34.6922143 C323.4795,34.6922143 324.600214,34.2057857 325.423071,33.6979286 L325.423071,29.4957857 Z M322.296643,25.3557857 C325.170214,25.3557857 326.796643,27.0443571 326.796643,29.3265 L326.796643,35.7700714 C326.923071,38.9586429 325.148786,41.0929286 321.958071,41.0929286 C320.777357,41.0929286 319.592357,40.8807857 318.683786,40.3943571 L318.981643,39.2115 C319.847357,39.6336429 320.860929,39.8886429 321.938786,39.8886429 C324.283071,39.8886429 325.465929,38.2836429 325.465929,35.9586429 L325.465929,35.7272143 C325.465929,35.1143571 325.0845,35.1572143 324.726643,35.3029286 C323.732357,35.6843571 322.9095,35.8750714 322.043786,35.8750714 C318.855214,35.8750714 317.078786,33.6143571 317.078786,30.6143571 C317.078786,27.6786429 319.022357,25.3557857 322.296643,25.3557857 L322.296643,25.3557857 Z" id="Fill-19" fill="#231F20"></path>
                            <path d="M338.722929,30.5513571 C338.722929,28.3977857 337.2015,26.4756429 334.940786,26.4756429 C332.617929,26.4756429 331.2015,28.3335 331.2015,30.5513571 C331.2015,32.7906429 332.598643,34.6913571 334.940786,34.6913571 C337.222929,34.6913571 338.722929,32.8956429 338.722929,30.5513571 M340.0965,30.5727857 C340.0965,33.5920714 338.005071,35.8742143 334.940786,35.8742143 C331.942929,35.8742143 329.830071,33.5299286 329.830071,30.5727857 C329.830071,27.6585 331.964357,25.2927857 334.940786,25.2927857 C338.005071,25.2927857 340.0965,27.5727857 340.0965,30.5727857" id="Fill-21" fill="#231F20"></path>
                            <path d="M343.065,22.8422143 L344.438571,22.8422143 L344.438571,25.5657857 L347.817857,25.5657857 L347.817857,26.8557857 L344.438571,26.8557857 L344.438571,32.5365 C344.438571,33.8243571 345.092143,34.5850714 346.403571,34.5850714 C347.121429,34.5850714 347.901429,34.3965 348.557143,34.1629286 L348.557143,35.3457857 C347.88,35.6629286 346.95,35.8107857 346.191429,35.8107857 C344.205,35.8107857 343.065,34.6065 343.065,32.6222143 L343.065,22.8422143 Z" id="Fill-23" fill="#231F20"></path>
                            <path d="M277.9665,53.3078571 L277.9665,56.4557143 C278.832214,57.0685714 279.974357,57.6385714 281.388643,57.6385714 C283.880786,57.6385714 285.085071,55.7592857 285.085071,53.4557143 C285.085071,51.3021429 283.964357,49.5278571 281.598643,49.5278571 C279.550071,49.5278571 277.9665,51.0471429 277.9665,53.3078571 M278.622214,58.125 C278.178643,57.9128571 277.9665,58.1035714 277.9665,58.4614286 L277.9665,58.6735714 L276.657214,58.6735714 L276.657214,43.6328571 L277.9665,43.6328571 L277.9665,50.055 C278.832214,48.8721429 280.162929,48.3021429 281.684357,48.3021429 C284.620071,48.3021429 286.480071,50.415 286.480071,53.4557143 C286.480071,56.4557143 284.515071,58.8 281.493643,58.8 C280.2465,58.8 279.509357,58.5471429 278.622214,58.125" id="Fill-25" fill="#231F20"></path>
                            <path d="M289.871357,52.611 L296.610643,52.611 C296.377071,50.7531429 295.299214,49.4224286 293.336357,49.4224286 C291.454929,49.4224286 290.145643,50.8581429 289.871357,52.611 M293.672786,57.6595714 C295.024929,57.6595714 296.124214,57.2374286 297.159214,56.4767143 L297.7935,57.4902857 C296.610643,58.3988571 295.277786,58.8638571 293.567786,58.8638571 C290.2935,58.8638571 288.414214,56.6245714 288.414214,53.5624286 C288.414214,50.5838571 290.441357,48.261 293.336357,48.261 C296.081357,48.261 297.8985,50.0974286 298.046357,52.8017143 C298.046357,52.8017143 298.1085,53.6031429 298.1085,53.7724286 L289.8285,53.7724286 C289.892786,56.0545714 291.244929,57.6595714 293.672786,57.6595714" id="Fill-27" fill="#231F20"></path>
                            <path d="M301.059643,45.8097857 L302.433214,45.8097857 L302.433214,48.5333571 L305.8125,48.5333571 L305.8125,49.8233571 L302.433214,49.8233571 L302.433214,55.5040714 C302.433214,56.7919286 303.086786,57.5526429 304.398214,57.5526429 C305.116071,57.5526429 305.896071,57.3640714 306.551786,57.1305 L306.551786,58.3133571 C305.876786,58.6305 304.944643,58.7783571 304.186071,58.7783571 C302.199643,58.7783571 301.059643,57.5740714 301.059643,55.5897857 L301.059643,45.8097857 Z" id="Fill-29" fill="#231F20"></path>
                            <path d="M309.271071,45.8097857 L310.644643,45.8097857 L310.644643,48.5333571 L314.023929,48.5333571 L314.023929,49.8233571 L310.644643,49.8233571 L310.644643,55.5040714 C310.644643,56.7919286 311.298214,57.5526429 312.609643,57.5526429 C313.3275,57.5526429 314.1075,57.3640714 314.763214,57.1305 L314.763214,58.3133571 C314.088214,58.6305 313.156071,58.7783571 312.3975,58.7783571 C310.411071,58.7783571 309.271071,57.5740714 309.271071,55.5897857 L309.271071,45.8097857 Z" id="Fill-31" fill="#231F20"></path>
                            <path d="M317.8845,52.611 L324.623786,52.611 C324.390214,50.7531429 323.312357,49.4224286 321.3495,49.4224286 C319.468071,49.4224286 318.158786,50.8581429 317.8845,52.611 M321.685929,57.6595714 C323.038071,57.6595714 324.137357,57.2374286 325.172357,56.4767143 L325.8045,57.4902857 C324.623786,58.3988571 323.290929,58.8638571 321.580929,58.8638571 C318.306643,58.8638571 316.427357,56.6245714 316.427357,53.5624286 C316.427357,50.5838571 318.4545,48.261 321.3495,48.261 C324.0945,48.261 325.911643,50.0974286 326.0595,52.8017143 C326.0595,52.8017143 326.121643,53.6031429 326.121643,53.7724286 L317.841643,53.7724286 C317.905929,56.0545714 319.258071,57.6595714 321.685929,57.6595714" id="Fill-33" fill="#231F20"></path>
                            <path d="M336.042214,49.5274286 L335.0265,50.3502857 C334.563643,49.716 333.612214,49.506 332.872929,49.506 C332.324357,49.506 331.775786,49.5702857 331.267929,49.7802857 C330.5715,50.076 330.402214,50.3931429 330.402214,51.111 L330.402214,58.6731429 L329.030786,58.6731429 L329.030786,50.6031429 C329.030786,48.7667143 331.415786,48.2802857 332.872929,48.2802857 C334.034357,48.2802857 335.324357,48.5138571 336.042214,49.5274286" id="Fill-35" fill="#231F20"></path>
                            <path d="M250.201286,58.6879286 L250.201286,2.17435714" id="Stroke-37" stroke="#231F20" stroke-width="0.406"></path>
                            <path d="M49.0028571,36.6754286 C49.8642857,32.5397143 52.9264286,29.559 57.4371429,29.559 C61.95,29.559 64.9585714,32.2311429 65.7364286,36.6754286 L49.0028571,36.6754286 Z M17.8692857,50.6382857 L10.0414286,50.6382857 L10.0414286,32.1154286 L16.41,32.1154286 C18.42,32.1154286 20.6957143,32.3382857 21.9964286,32.679 C26.4621429,33.849 29.0292857,37.0482857 29.0292857,41.2868571 C29.0292857,46.4404286 25.7657143,50.6382857 17.8692857,50.6382857 L17.8692857,50.6382857 Z M10.0414286,9.56828571 L12.7607143,9.564 C15.3814286,9.564 17.4535714,9.849 18.945,10.4297143 C21.8892857,11.5697143 23.2928571,13.9075714 23.2928571,16.8325714 C23.2928571,19.3011429 22.35,23.184 17.145,24.2468571 C16.275,24.4247143 15.0192857,24.519 13.2492857,24.519 L10.0414286,24.519 L10.0414286,9.56828571 Z M74.9164286,2.18185714 L74.9164286,35.2054286 C74.385,32.6468571 73.3757143,30.5318571 71.9164286,28.6118571 C68.9207143,24.6668571 64.0692857,22.1725714 57.5121429,22.1725714 C47.31,22.1725714 41.0357143,29.0918571 39.1821429,36.384 C37.5128571,31.2411429 33.0492857,27.774 28.3328571,26.3082857 C31.8835714,23.7197143 33.7392857,20.0211429 33.7392857,15.8018571 C33.7392857,11.8868571 32.1064286,8.319 29.3742857,5.99614286 C25.3671429,2.59114286 19.8985714,1.89685714 13.1635714,1.89685714 L0,1.89685714 L0,58.6804286 C3.73285714,58.6804286 7.56214286,58.6654286 11.3014286,58.6804286 C14.6271429,58.6932857 17.8778571,58.674 20.9035714,58.554 C30.4885714,58.1704286 37.0478571,53.349 39.15,46.1125714 C39.87,49.3311429 41.2585714,51.954 43.0671429,53.9468571 C46.7592857,58.0054286 52.1121429,59.589 57.4992857,59.589 C64.1357143,59.589 68.9292857,57.6711429 72.2078571,54.7182857 L67.5171429,49.2154286 C65.1578571,50.9918571 62.1257143,52.0461429 58.7185714,52.0461429 C52.0328571,52.0182857 49.0885714,47.7925714 48.8228571,43.734 L74.9164286,43.734 L74.9164286,58.6804286 L84.6942857,58.6804286 L84.6942857,2.18185714 L74.9164286,2.18185714 Z" id="Fill-39" fill="#00549A"></path>
                            <polygon id="Fill-41" fill="#00549A" points="91.2128571 58.6806429 100.821429 58.6806429 100.821429 2.18207143 91.2128571 2.18207143"></polygon>
                            <path d="M148.393714,14.6642143 C148.393714,14.1799286 148.185857,13.7663571 147.978,13.7663571 C147.633,13.7663571 147.285857,13.9720714 146.801571,15.2170714 L132.746571,47.3770714 L128.593714,47.3770714 L114.538714,15.2170714 C114.262286,14.5956429 113.917286,13.7663571 113.433,13.7663571 C113.154429,13.7663571 112.946571,13.9720714 112.946571,14.5956429 L112.946571,58.6485 L108.446571,58.6485 L108.446571,14.5956429 C108.446571,11.6213571 110.454429,9.54492857 113.293714,9.54492857 C116.062286,9.54492857 117.723,11.2742143 118.833,13.9035 L130.670143,41.2892143 L142.509429,13.9035 C143.478,11.7606429 145.138714,9.54492857 148.185857,9.54492857 C151.301571,9.54492857 152.893714,11.7606429 152.893714,14.7327857 L152.893714,58.6485 L148.393714,58.6485 L148.393714,14.6642143 Z" id="Fill-43" fill="#00549A"></path>
                            <polygon id="Fill-44" fill="#00549A" points="176.014286 58.6482857 171.306429 58.6482857 171.306429 14.0425714 157.045714 14.0425714 157.045714 9.96042857 190.345714 9.96042857 190.345714 14.0425714 176.014286 14.0425714"></polygon>
                            <path d="M191.451643,51.1105714 L195.398786,48.4812857 C198.098786,53.1848571 202.043786,54.567 208.067357,54.567 C216.512357,54.567 219.628071,50.9027143 219.628071,45.9912857 C219.628071,32.5062857 193.806643,38.8684286 193.806643,21.027 C193.806643,14.5255714 198.375214,9.822 208.4145,9.822 C213.2595,9.822 219.422357,10.5141429 223.298786,17.0155714 L219.422357,19.4348571 C216.651643,14.9412857 212.498786,14.0412857 208.135929,14.0412857 C201.143786,14.0412857 198.443786,16.7391429 198.443786,20.8877143 C198.443786,25.107 200.035929,28.0791429 209.590929,31.1241429 C217.690929,33.6827143 224.338071,37.002 224.338071,45.6462857 C224.338071,52.6298571 219.906643,58.9234286 207.651643,58.9234286 C201.075214,58.9234286 194.635929,56.9884286 191.451643,51.1105714" id="Fill-45" fill="#00549A"></path>
                        </g>
                    </g>
                </g>
            </g>
        </g>
    </g>
</svg>