<?xml version="1.0" encoding="UTF-8"?>
<svg width="393px" height="106px" viewBox="0 0 393 106" version="1.1" xmlns="http://www.w3.org/2000/svg" xmlns:xlink="http://www.w3.org/1999/xlink">
    <!-- Generator: sketchtool 53.2 (72643) - https://sketchapp.com -->
    <title>412ACAB5-60B1-4C7A-AE1A-3932C003AC78</title>
    <desc>Created with sketchtool.</desc>
    <g id="Page-1" stroke="none" stroke-width="1" fill="none" fill-rule="evenodd">
        <g id="Logo-tagline" transform="translate(-671.000000, -1725.000000)">
            <g id="Group-2" transform="translate(300.000000, 0.000000)">
                <g id="Group-4-Copy" transform="translate(87.000000, 1596.000000)">
                    <g id="Group-6">
                        <g id="Group-13" transform="translate(0.000000, 54.000000)">
                            <g id="logo_taglineFR" transform="translate(284.000000, 74.000000)">
                                <polygon id="Fill-1" fill="#020303" points="0.484126984 105.308413 3.57984127 105.308413 3.57984127 71.4048413 0.484126984 71.4048413"></polygon>
                                <g id="Group-20" transform="translate(9.484127, 0.804484)">
                                    <path d="M22.4690357,81.6168571 L22.4690357,104.508643 L19.7583214,104.508643 L19.70725,104.316143 C19.51475,103.310429 18.7526071,103.310429 18.1318929,103.499 C17.1340357,103.793643 16.1715357,104.123643 15.1776071,104.410429 C14.1758214,104.650071 13.1268929,104.838643 11.8893929,104.838643 C4.92403571,104.838643 0.398321429,100.356143 0.398321429,93.2965 C0.398321429,86.5747143 4.78260714,80.9961429 12.17225,80.9961429 C15.4643929,80.9961429 17.9433214,82.1393571 19.5658214,84.0015 L19.5658214,81.6168571 L22.4690357,81.6168571 Z M12.3136786,83.6675714 C6.45617857,83.6675714 3.54117857,88.0047143 3.54117857,93.2022143 C3.54117857,98.4468571 6.50332143,102.167214 12.17225,102.167214 C14.8868929,102.167214 17.5583214,101.165429 19.4243929,100.1165 L19.4243929,90.9629286 C19.4243929,86.3861429 16.1715357,83.6675714 12.3136786,83.6675714 L12.3136786,83.6675714 Z" id="Fill-2" fill="#020303"></path>
                                    <path d="M51.0435,104.793071 C48.6588571,104.793071 47.7513571,102.930929 46.8949286,100.785929 L39.411,81.6184286 L42.7895714,81.6184286 L49.7549286,99.9295 C50.1831429,101.025571 50.6152857,101.976286 51.0435,101.976286 C51.5699286,101.976286 51.9470714,101.072714 52.3792143,99.9295 L59.0970714,81.6184286 L62.3420714,81.6184286 L55.1881429,100.833071 C54.4299286,102.785571 53.3770714,104.793071 51.0435,104.793071" id="Fill-4" fill="#020303"></path>
                                    <path d="M69.5965714,77.088 C68.2097857,77.088 67.5497857,76.373 67.5497857,74.9862143 C67.5497857,73.6033571 68.2097857,72.9394286 69.5965714,72.9394286 C70.9833571,72.9394286 71.6040714,73.6033571 71.6040714,74.9862143 C71.6040714,76.373 70.9833571,77.088 69.5965714,77.088 L69.5965714,77.088 Z M68.0212143,104.509429 L71.1247857,104.509429 L71.1247857,81.6176429 L68.0212143,81.6176429 L68.0212143,104.509429 Z" id="Fill-6" fill="#020303"></path>
                                    <path d="M89.6770714,102.218679 C92.7217143,102.218679 95.2045714,101.264036 97.5420714,99.5433214 L98.9720714,101.833679 C96.3045714,103.888321 93.2992143,104.933321 89.4335,104.933321 C82.0477857,104.933321 77.801,99.8811786 77.801,92.9629643 C77.801,86.2411786 82.3777857,80.9965357 88.9149286,80.9965357 C95.1102857,80.9965357 99.2117143,85.1451071 99.5456429,91.2501071 C99.5456429,91.2501071 99.6870714,93.0611786 99.6870714,93.44225 L80.991,93.44225 C81.1363571,98.5926071 84.1927857,102.218679 89.6770714,102.218679 M81.0852857,90.8218929 L96.3045714,90.8218929 C95.7781429,86.62225 93.3463571,83.6208214 88.9149286,83.6208214 C84.6681429,83.6208214 81.7138571,86.8579643 81.0852857,90.8218929" id="Fill-8" fill="#020303"></path>
                                    <path d="M129.545786,102.218679 C132.594357,102.218679 135.073286,101.264036 137.410786,99.5433214 L138.840786,101.833679 C136.173286,103.888321 133.171857,104.933321 129.306143,104.933321 C121.920429,104.933321 117.677571,99.8811786 117.677571,92.9629643 C117.677571,86.2411786 122.250429,80.9965357 128.787571,80.9965357 C134.982929,80.9965357 139.084357,85.1451071 139.418286,91.2501071 C139.418286,91.2501071 139.559714,93.0611786 139.559714,93.44225 L120.863643,93.44225 C121.009,98.5926071 124.0615,102.218679 129.545786,102.218679 M120.957929,90.8218929 L136.173286,90.8218929 C135.646857,86.62225 133.219,83.6208214 128.787571,83.6208214 C124.540786,83.6208214 121.5865,86.8579643 120.957929,90.8218929" id="Fill-10" fill="#020303"></path>
                                    <path d="M154.486714,91.3424286 C158.7335,92.4895714 162.689571,94.3006429 162.689571,98.736 C162.689571,102.358143 160.737071,105.080643 153.151,105.080643 C149.242071,105.080643 145.619929,104.071 144.138857,100.928143 L146.810286,99.5963571 C147.957429,101.7885 149.819571,102.507429 153.390643,102.507429 C158.207071,102.507429 159.735286,101.0735 159.735286,99.0699286 C159.735286,96.5399286 157.162071,95.2042143 153.724571,94.2535 C148.385643,92.7763571 145.191714,91.0124286 145.191714,86.9542143 C145.191714,83.0020714 148.428857,81.1399286 153.536,81.1399286 C156.348857,81.1399286 160.1635,81.3285 161.974571,84.9585 L159.4485,86.2392143 C158.301357,84.1413571 155.963857,83.666 153.339571,83.666 C151.053143,83.666 148.240286,84.2867143 148.240286,86.7185 C148.240286,88.5295714 149.147786,89.8652857 154.486714,91.3424286" id="Fill-12" fill="#020303"></path>
                                    <path d="M168.271286,75.4670714 L171.370929,75.4670714 L171.370929,81.6152857 L179.000214,81.6152857 L179.000214,84.5224286 L171.370929,84.5224286 L171.370929,97.3531429 C171.370929,100.260286 172.848071,101.977071 175.806286,101.977071 C177.428786,101.977071 179.188786,101.548857 180.669857,101.022429 L180.669857,103.693857 C179.1495,104.408857 177.043786,104.742786 175.330929,104.742786 C170.8445,104.742786 168.271286,102.024214 168.271286,97.5417143 L168.271286,75.4670714 Z" id="Fill-14" fill="#020303"></path>
                                    <path d="M335.373857,61.5214286 C334.411357,56.8582143 332.561,52.9925 329.8935,49.4803571 C324.436714,42.2714286 315.585643,37.7103571 303.611357,37.7103571 C285.001714,37.7103571 273.549929,50.3525 270.155643,63.6821429 C267.114929,54.285 258.971,47.9442857 250.359571,45.265 C256.845643,40.5467857 260.232071,33.7857143 260.232071,26.0817857 C260.232071,18.9239286 257.250286,12.4064286 252.268857,8.17142857 C244.942071,1.94464286 234.971357,0.679642857 222.682786,0.679642857 L198.655643,0.679642857 L198.655643,104.409643 C205.467786,104.409643 212.464571,104.382143 219.280643,104.409643 C225.350286,104.437143 231.282429,104.401786 236.806,104.181786 C254.296,103.478571 266.270286,94.6746429 270.100643,81.455 C271.420643,87.3282143 273.946714,92.1210714 277.250643,95.7589286 C283.988143,103.172143 293.750643,106.071429 303.587786,106.071429 C315.695643,106.071429 324.452429,102.559286 330.427786,97.1810714 L321.867429,87.12 C317.569571,90.365 312.030286,92.2821429 305.811357,92.2821429 C293.617071,92.2428571 288.238857,84.5271429 287.7635,77.1060714 L335.373857,77.1060714 L335.373857,104.409643 L353.205643,104.409643 L353.205643,1.19821429 L335.373857,1.19821429 L335.373857,61.5214286 Z M216.986357,14.6928571 L221.944214,14.6889286 C226.737071,14.6889286 230.512429,15.2035714 233.231,16.2603571 C238.605286,18.3464286 241.166714,22.6246429 241.166714,27.9596429 C241.170643,32.4696429 239.442071,39.5646429 229.942786,41.5014286 C228.3635,41.8275 226.069214,42.0082143 222.836,42.0082143 L216.986357,42.0082143 L216.986357,14.6928571 Z M237.151714,89.2296429 C234.920286,89.6264286 232.189929,89.7167857 229.974214,89.7167857 L216.986357,89.7167857 L216.986357,55.8760714 L228.607071,55.8760714 C232.276357,55.8760714 236.424929,56.2885714 238.801714,56.9092857 C246.949571,59.0503571 251.636357,64.8921429 251.636357,72.6314286 C251.636357,80.6457143 247.322786,87.395 237.151714,89.2296429 L237.151714,89.2296429 Z M288.085643,64.2125 C289.653143,56.6539286 295.239571,51.2167857 303.473857,51.2167857 C311.716,51.2167857 317.196357,56.0921429 318.614571,64.2125 L288.085643,64.2125 Z" id="Fill-16" fill="#00549A"></path>
                                    <polygon id="Fill-18" fill="#00549A" points="365.117857 104.405714 382.647143 104.405714 382.647143 1.19428571 365.117857 1.19428571"></polygon>
                                </g>
                            </g>
                        </g>
                    </g>
                </g>
            </g>
        </g>
    </g>
</svg>