<?xml version="1.0" encoding="UTF-8"?>
<svg width="242px" height="70px" viewBox="0 0 242 70" version="1.1" xmlns="http://www.w3.org/2000/svg" xmlns:xlink="http://www.w3.org/1999/xlink">
    <!-- Generator: sketchtool 53.2 (72643) - https://sketchapp.com -->
    <title>7F9CA967-D16E-4D3A-83C0-26C9A611A1D5</title>
    <desc>Created with sketchtool.</desc>
    <g id="Page-1" stroke="none" stroke-width="1" fill="none" fill-rule="evenodd">
        <g id="Logo-tagline" transform="translate(-991.000000, -1372.000000)">
            <g id="Group-2" transform="translate(300.000000, 0.000000)">
                <g id="Group-3" transform="translate(87.000000, 642.000000)">
                    <g id="Group-3-Copy-2" transform="translate(2.000000, 665.000000)">
                        <g id="logo" transform="translate(488.000000, 0.000000)">
                            <g id="logo_variable-tagline2EN" transform="translate(114.000000, 65.000000)">
                                <path d="M54.5444828,39.2593793 C55.5027586,34.6490345 58.9110345,31.330069 63.9317241,31.330069 C68.9572414,31.330069 72.297931,34.3014483 73.1668966,39.2593793 L54.5444828,39.2593793 Z M23.4789655,54.5121379 C22.1175862,54.7583448 20.452069,54.8114483 19.097931,54.8114483 L11.1782759,54.8114483 L11.1806897,34.1735172 L18.2675862,34.1735172 C20.5003448,34.1735172 23.0348276,34.4269655 24.4831034,34.8011034 C29.4555172,36.1045517 32.3110345,39.6745517 32.3110345,44.395931 C32.3110345,49.2790345 29.68,53.3921379 23.4789655,54.5121379 L23.4789655,54.5121379 Z M11.1806897,9.05075862 L14.2027586,9.04834483 C17.1210345,9.04834483 19.4286207,9.36213793 21.0868966,10.0066207 C24.3672414,11.2786897 25.9241379,13.8855862 25.9241379,17.1442069 C25.9289655,19.8983448 24.8741379,24.2238621 19.0834483,25.4066207 C18.1131034,25.6069655 16.717931,25.7155862 14.7458621,25.7155862 L11.1806897,25.7155862 L11.1806897,9.05075862 Z M83.3893103,37.6155862 C82.8003448,34.7721379 81.6731034,32.4138621 80.0437931,30.2655862 C76.7175862,25.870069 71.3203448,23.0942069 64.0162069,23.0942069 C52.6617241,23.0942069 45.6786207,30.8062759 43.6124138,38.9286897 C41.7562069,33.1983448 36.7837931,29.3362759 31.5362069,27.7045517 C35.4851724,24.8224828 37.5537931,20.7021379 37.5537931,15.9976552 C37.5537931,11.6311034 35.7386207,7.65558621 32.6948276,5.07041379 C28.2317241,1.28075862 22.1489655,0.503517241 14.6541379,0.503517241 L0,0.503517241 L0,63.7738621 C4.15413793,63.7738621 8.41931034,63.7545517 12.5806897,63.7738621 C16.2810345,63.7907586 19.8968966,63.7690345 23.2665517,63.6362759 C33.9331034,63.2114483 41.2372414,57.835931 43.5762069,49.7690345 C44.3775862,53.3607586 45.9224138,56.2862759 47.9355172,58.5021379 C52.0462069,63.0255862 58.0034483,64.790069 63.9993103,64.790069 C71.3855172,64.790069 76.7248276,62.6466207 80.3768966,59.3638621 L75.1534483,53.2255862 C72.5248276,55.2073103 69.147931,56.378 65.3558621,56.378 C57.9189655,56.3538621 54.6386207,51.6493793 54.3441379,47.125931 L83.3893103,47.125931 L83.3893103,63.7738621 L94.2682759,63.7738621 L94.2682759,0.819724138 L83.3893103,0.819724138 L83.3893103,37.6155862 Z" id="Fill-1" fill="#00549A"></path>
                                <polygon id="Fill-3" fill="#00549A" points="101.531379 63.775069 112.224483 63.775069 112.224483 0.820931034 101.531379 0.820931034"></polygon>
                                <path d="M125.595931,1.48255172 C124.113862,1.48255172 123.512828,2.49151724 123.512828,4.05806897 L123.512828,5.34703448 L127.162483,5.34703448 L127.162483,6.636 L123.512828,6.636 L123.512828,15.3111724 L122.136966,15.3111724 L122.136966,4.12324138 C122.136966,1.89048276 123.276276,0.23462069 125.530759,0.23462069 C126.303172,0.23462069 127.184207,0.449448276 128.084552,1.03117241 L127.635586,2.16806897 C126.604897,1.56703448 126.088345,1.48255172 125.595931,1.48255172" id="Fill-5" fill="#231F20"></path>
                                <path d="M130.021379,15.310931 L131.416552,15.310931 L131.416552,5.00403448 L130.021379,5.00403448 L130.021379,15.310931 Z M130.728621,2.96196552 C130.105862,2.96196552 129.806552,2.64093103 129.806552,2.01817241 C129.806552,1.39541379 130.105862,1.09610345 130.728621,1.09610345 C131.351379,1.09610345 131.631379,1.39541379 131.631379,2.01817241 C131.631379,2.64093103 131.351379,2.96196552 130.728621,2.96196552 L130.728621,2.96196552 Z" id="Fill-6" fill="#231F20"></path>
                                <path d="M142.860103,8.95493103 C142.860103,6.98044828 141.766655,6.03424138 139.661828,6.03424138 C138.609414,6.03424138 137.342172,6.44217241 136.69769,6.87182759 L136.69769,15.3104483 L135.302517,15.3104483 L135.302517,6.20562069 C136.504586,5.34631034 138.223207,4.78631034 139.724586,4.78631034 C142.582517,4.78631034 144.301138,5.9907931 144.301138,8.67493103 L144.301138,15.3104483 L142.860103,15.3104483 L142.860103,8.95493103 Z" id="Fill-7" fill="#231F20"></path>
                                <path d="M152.270276,5.992 C149.844414,5.992 148.470966,7.79510345 148.470966,10.0906207 C148.470966,12.3692414 149.673034,14.2592414 152.207517,14.2592414 C153.728207,14.2592414 154.739586,13.7426897 155.598897,13.119931 L155.598897,9.05993103 C155.598897,7.30027586 154.244759,5.992 152.270276,5.992 L152.270276,5.992 Z M156.994069,15.3092414 L155.707517,15.3092414 L155.707517,15.0316552 C155.707517,14.5585517 155.32131,14.6454483 155.019586,14.7733793 C154.225448,15.1378621 153.15131,15.4395862 152.120621,15.4395862 C148.857172,15.4395862 147.075793,13.1633793 147.075793,10.1147586 C147.075793,7.10717241 149.134759,4.78751724 152.207517,4.78751724 C153.836828,4.78751724 154.935103,5.3257931 155.707517,6.0982069 L155.707517,0.000965517242 L156.994069,0.000965517242 L156.994069,15.3092414 Z" id="Fill-8" fill="#231F20"></path>
                                <path d="M160.818966,15.310931 L162.214138,15.310931 L162.214138,5.00403448 L160.818966,5.00403448 L160.818966,15.310931 Z M161.526207,2.96196552 C160.905862,2.96196552 160.604138,2.64093103 160.604138,2.01817241 C160.604138,1.39541379 160.905862,1.09610345 161.526207,1.09610345 C162.151379,1.09610345 162.428966,1.39541379 162.428966,2.01817241 C162.428966,2.64093103 162.151379,2.96196552 161.526207,2.96196552 L161.526207,2.96196552 Z" id="Fill-9" fill="#231F20"></path>
                                <path d="M173.617138,8.95493103 C173.617138,6.98044828 172.52369,6.03424138 170.418862,6.03424138 C169.366448,6.03424138 168.099207,6.44217241 167.454724,6.87182759 L167.454724,15.3104483 L166.059552,15.3104483 L166.059552,6.20562069 C167.261621,5.34631034 168.980241,4.78631034 170.481621,4.78631034 C173.339552,4.78631034 175.058172,5.9907931 175.058172,8.67493103 L175.058172,15.3104483 L173.617138,15.3104483 L173.617138,8.95493103 Z" id="Fill-10" fill="#231F20"></path>
                                <path d="M186.162345,8.99741379 C186.162345,7.08568966 184.788897,5.99224138 182.877172,5.99224138 C180.492345,5.99224138 179.140621,7.85810345 179.140621,10.115 C179.140621,12.3887931 180.234069,14.2787931 182.877172,14.2787931 C184.187862,14.2787931 185.322345,13.7839655 186.162345,13.2722414 L186.162345,8.99741379 Z M182.983379,4.78775862 C185.904069,4.78775862 187.557517,6.50637931 187.557517,8.82603448 L187.557517,15.3746552 C187.685448,18.6163793 185.882345,20.7863793 182.640621,20.7863793 C181.438552,20.7863793 180.234069,20.5715517 179.312,20.0767241 L179.61131,18.8746552 C180.492345,19.3043103 181.523034,19.5625862 182.618897,19.5625862 C185.003724,19.5625862 186.205793,17.9284483 186.205793,15.5677586 L186.205793,15.3312069 C186.205793,14.7084483 185.817172,14.7518966 185.45269,14.9015517 C184.443724,15.2877586 183.606138,15.4832759 182.725103,15.4832759 C179.483379,15.4832759 177.677862,13.182931 177.677862,10.1367241 C177.677862,7.14844828 179.657172,4.78775862 182.983379,4.78775862 L182.983379,4.78775862 Z" id="Fill-11" fill="#231F20"></path>
                                <path d="M129.739931,37.7744138 L129.739931,29.2513103 L131.113379,29.2513103 L131.113379,39.5557931 C131.113379,42.8216552 129.481655,44.9675172 126.239931,44.9675172 C125.059586,44.9675172 124.069931,44.7744138 123.147862,44.2602759 L123.449586,43.0557931 C124.328207,43.5071724 125.122345,43.7437241 126.218207,43.7437241 C128.622345,43.7437241 129.739931,42.112 129.739931,39.7488966 L129.739931,39.1068276 C128.858897,39.4930345 127.806483,39.7488966 126.539241,39.7488966 C123.768207,39.7488966 122.008552,38.2451034 122.008552,35.4330345 L122.008552,29.2513103 L123.382,29.2513103 L123.382,35.3702759 C123.382,37.0647586 124.263034,38.5057931 126.539241,38.5057931 C127.463724,38.5057931 128.685103,38.2909655 129.739931,37.7744138" id="Fill-12" fill="#231F20"></path>
                                <path d="M143.032207,34.3161724 C143.032207,32.1268621 141.484966,30.1716897 139.189448,30.1716897 C136.828759,30.1716897 135.387724,32.0616897 135.387724,34.3161724 C135.387724,36.5923793 136.804621,38.5258276 139.189448,38.5258276 C141.50669,38.5258276 143.032207,36.6985862 143.032207,34.3161724 M144.427379,34.3378966 C144.427379,37.4082414 142.300828,39.7278966 139.189448,39.7278966 C136.140828,39.7278966 133.992552,37.3454828 133.992552,34.3378966 C133.992552,31.3737586 136.160138,28.9696207 139.189448,28.9696207 C142.300828,28.9696207 144.427379,31.2892759 144.427379,34.3378966" id="Fill-13" fill="#231F20"></path>
                                <path d="M154.523793,38.2245862 L154.523793,29.2718276 L155.918966,29.2718276 L155.918966,39.1901034 C154.779655,39.5787241 153.427931,39.8128621 151.967586,39.8128621 C148.728276,39.8128621 147.202759,38.3332069 147.202759,35.6683793 L147.202759,29.2718276 L148.576207,29.2718276 L148.576207,35.6273448 C148.576207,37.3242414 149.454828,38.5480345 152.032759,38.5480345 C152.698966,38.5480345 153.901034,38.4394138 154.523793,38.2245862" id="Fill-14" fill="#231F20"></path>
                                <path d="M166.614,30.2595517 L165.58331,31.0971379 C165.112621,30.4526552 164.147103,30.2378276 163.394,30.2378276 C162.836414,30.2378276 162.276414,30.303 161.762276,30.5154138 C161.052621,30.8147241 160.881241,31.1381724 160.881241,31.8695517 L160.881241,39.5574828 L159.486069,39.5574828 L159.486069,31.353 C159.486069,29.4871379 161.911931,28.9923103 163.394,28.9923103 C164.574345,28.9923103 165.885034,29.2264483 166.614,30.2595517" id="Fill-15" fill="#231F20"></path>
                                <path d="M171.535724,33.6304138 C173.447448,34.1445517 175.228828,34.9628276 175.228828,36.9590345 C175.228828,38.5907586 174.350207,39.8145517 170.93469,39.8145517 C169.172621,39.8145517 167.54331,39.3631724 166.87469,37.9462759 L168.079172,37.3452414 C168.59331,38.3324828 169.430897,38.6535172 171.04331,38.6535172 C173.210897,38.6535172 173.898828,38.0090345 173.898828,37.1086897 C173.898828,35.9717931 172.737793,35.3707586 171.190552,34.9386897 C168.786414,34.2748966 167.350207,33.4807586 167.350207,31.655931 C167.350207,29.8721379 168.808138,29.0345517 171.106069,29.0345517 C172.37331,29.0345517 174.091931,29.1214483 174.905379,30.7531724 L173.770897,31.3324828 C173.254345,30.3862759 172.201931,30.1714483 171.021586,30.1714483 C169.988483,30.1714483 168.723655,30.4538621 168.723655,31.5473103 C168.723655,32.3631724 169.131586,32.9642069 171.535724,33.6304138" id="Fill-16" fill="#231F20"></path>
                                <path d="M178.75369,33.3945862 L185.604034,33.3945862 C185.367483,31.5045862 184.271621,30.1504483 182.275414,30.1504483 C180.36369,30.1504483 179.03369,31.6132069 178.75369,33.3945862 M182.620586,38.5263103 C183.994034,38.5263103 185.109207,38.0966552 186.161621,37.3242414 L186.806103,38.354931 C185.604034,39.2794138 184.249897,39.7501034 182.511966,39.7501034 C179.183345,39.7501034 177.274034,37.4714828 177.274034,34.3601034 C177.274034,31.3332069 179.333,28.9701034 182.275414,28.9701034 C185.065759,28.9701034 186.914724,30.8383793 187.061966,33.5876897 C187.061966,33.5876897 187.129552,34.4035517 187.129552,34.574931 L178.710241,34.574931 C178.775414,36.8921724 180.148862,38.5263103 182.620586,38.5263103" id="Fill-17" fill="#231F20"></path>
                                <polygon id="Fill-18" fill="#231F20" points="190.052414 39.555069 191.447586 39.555069 191.447586 24.2878276 190.052414 24.2878276"></polygon>
                                <path d="M198.792276,25.7288621 C197.310207,25.7288621 196.709172,26.7378276 196.709172,28.3043793 L196.709172,29.5933448 L200.358828,29.5933448 L200.358828,30.8823103 L196.709172,30.8823103 L196.709172,39.5574828 L195.33331,39.5574828 L195.33331,28.3695517 C195.33331,26.1367931 196.472621,24.480931 198.727103,24.480931 C199.499517,24.480931 200.380552,24.6957586 201.280897,25.2774828 L200.831931,26.4143793 C199.801241,25.8133448 199.28469,25.7288621 198.792276,25.7288621" id="Fill-19" fill="#231F20"></path>
                                <path d="M210.368586,26.264 C210.368586,25.6412414 210.069276,25.341931 209.468241,25.341931 C208.845483,25.341931 208.543759,25.6412414 208.543759,26.264 C208.543759,26.8867586 208.845483,27.2102069 209.468241,27.2102069 C210.069276,27.2102069 210.368586,26.8867586 210.368586,26.264 L210.368586,26.264 Z M205.473414,43.3126207 C208.695828,43.6795172 208.78031,41.8329655 208.78031,40.544 L208.78031,29.2498621 L210.132034,29.2498621 L210.132034,40.6067586 C210.132034,42.8202069 209.23169,45.011931 205.367207,44.604 L205.473414,43.3126207 Z" id="Fill-20" fill="#231F20"></path>
                                <path d="M221.235483,38.2245862 L221.235483,29.2718276 L222.630655,29.2718276 L222.630655,39.1901034 C221.491345,39.5787241 220.139621,39.8128621 218.679276,39.8128621 C215.439966,39.8128621 213.914448,38.3332069 213.914448,35.6683793 L213.914448,29.2718276 L215.287897,29.2718276 L215.287897,35.6273448 C215.287897,37.3242414 216.166517,38.5480345 218.744448,38.5480345 C219.410655,38.5480345 220.612724,38.4394138 221.235483,38.2245862" id="Fill-21" fill="#231F20"></path>
                                <path d="M229.933586,33.6304138 C231.84531,34.1445517 233.62669,34.9628276 233.62669,36.9590345 C233.62669,38.5907586 232.748069,39.8145517 229.332552,39.8145517 C227.570483,39.8145517 225.941172,39.3631724 225.272552,37.9462759 L226.477034,37.3452414 C226.991172,38.3324828 227.828759,38.6535172 229.441172,38.6535172 C231.608759,38.6535172 232.29669,38.0090345 232.29669,37.1086897 C232.29669,35.9717931 231.135655,35.3707586 229.588414,34.9386897 C227.184276,34.2748966 225.748069,33.4807586 225.748069,31.655931 C225.748069,29.8721379 227.206,29.0345517 229.503931,29.0345517 C230.771172,29.0345517 232.489793,29.1214483 233.303241,30.7531724 L232.168759,31.3324828 C231.652207,30.3862759 230.599793,30.1714483 229.419448,30.1714483 C228.386345,30.1714483 227.121517,30.4538621 227.121517,31.5473103 C227.121517,32.3631724 227.529448,32.9642069 229.933586,33.6304138" id="Fill-22" fill="#231F20"></path>
                                <path d="M236.420655,26.4785862 L237.815828,26.4785862 L237.815828,29.2496207 L241.253069,29.2496207 L241.253069,30.5578966 L237.815828,30.5578966 L237.815828,36.3365172 C237.815828,37.6447931 238.482034,38.4172069 239.814448,38.4172069 C240.543414,38.4172069 241.337552,38.2241034 242.003759,37.9899655 L242.003759,39.1920345 C241.315828,39.513069 240.372034,39.6651379 239.597207,39.6651379 C237.579276,39.6651379 236.420655,38.438931 236.420655,36.421 L236.420655,26.4785862 Z" id="Fill-23" fill="#231F20"></path>
                                <path d="M129.933276,57.4924483 C129.933276,55.5807241 128.559828,54.4872759 126.648103,54.4872759 C124.263276,54.4872759 122.911552,56.3531379 122.911552,58.6100345 C122.911552,60.8838276 124.005,62.7738276 126.648103,62.7738276 C127.958793,62.7738276 129.093276,62.279 129.933276,61.7672759 L129.933276,57.4924483 Z M126.75431,53.2827931 C129.675,53.2827931 131.328448,55.0014138 131.328448,57.321069 L131.328448,63.8696897 C131.456379,67.1114138 129.653276,69.2814138 126.411552,69.2814138 C125.209483,69.2814138 124.005,69.0665862 123.082931,68.5717586 L123.382241,67.3696897 C124.263276,67.7993448 125.293966,68.0576207 126.389828,68.0576207 C128.774655,68.0576207 129.976724,66.4234828 129.976724,64.0627931 L129.976724,63.8262414 C129.976724,63.2034828 129.588103,63.246931 129.223621,63.3965862 C128.214655,63.7827931 127.377069,63.9783103 126.496034,63.9783103 C123.25431,63.9783103 121.448793,61.6779655 121.448793,58.6317586 C121.448793,55.6434828 123.428103,53.2827931 126.75431,53.2827931 L126.75431,53.2827931 Z" id="Fill-24" fill="#231F20"></path>
                                <path d="M143.31269,58.5648966 C143.31269,56.3755862 141.765448,54.4204138 139.469931,54.4204138 C137.109241,54.4204138 135.668207,56.3104138 135.668207,58.5648966 C135.668207,60.8411034 137.085103,62.7745517 139.469931,62.7745517 C141.787172,62.7745517 143.31269,60.9473103 143.31269,58.5648966 M144.707862,58.5866207 C144.707862,61.6569655 142.58131,63.9766207 139.469931,63.9766207 C136.42131,63.9766207 134.273034,61.5942069 134.273034,58.5866207 C134.273034,55.6224828 136.440621,53.2183448 139.469931,53.2183448 C142.58131,53.2183448 144.707862,55.538 144.707862,58.5866207" id="Fill-25" fill="#231F20"></path>
                                <path d="M147.609966,50.7273103 L149.005138,50.7273103 L149.005138,53.495931 L152.442379,53.495931 L152.442379,54.8066207 L149.005138,54.8066207 L149.005138,60.5852414 C149.005138,61.8935172 149.671345,62.665931 151.003759,62.665931 C151.732724,62.665931 152.526862,62.4728276 153.193069,62.2386897 L153.193069,63.4407586 C152.505138,63.7617931 151.561345,63.9138621 150.786517,63.9138621 C148.768586,63.9138621 147.609966,62.6876552 147.609966,60.6697241 L147.609966,50.7273103 Z" id="Fill-26" fill="#231F20"></path>
                                <path d="M162.170448,58.3505517 L162.170448,61.5512414 C163.051483,62.174 164.212517,62.7533103 165.648724,62.7533103 C168.183207,62.7533103 169.407,60.8415862 169.407,58.5002069 C169.407,56.3108966 168.26769,54.5077931 165.863552,54.5077931 C163.782862,54.5077931 162.170448,56.0550345 162.170448,58.3505517 M162.836655,63.2457241 C162.38769,63.0308966 162.170448,63.2264138 162.170448,63.5908966 L162.170448,63.8057241 L160.840448,63.8057241 L160.840448,48.5167586 L162.170448,48.5167586 L162.170448,55.0436552 C163.051483,53.8415862 164.405621,53.2622759 165.950448,53.2622759 C168.93631,53.2622759 170.823897,55.4081379 170.823897,58.5002069 C170.823897,61.5512414 168.82769,63.9336552 165.757345,63.9336552 C164.490103,63.9336552 163.737,63.6753793 162.836655,63.2457241" id="Fill-27" fill="#231F20"></path>
                                <path d="M174.692,57.6433103 L181.542345,57.6433103 C181.305793,55.7533103 180.209931,54.3991724 178.213724,54.3991724 C176.302,54.3991724 174.972,55.861931 174.692,57.6433103 M178.558897,62.7750345 C179.932345,62.7750345 181.047517,62.3453793 182.099931,61.5729655 L182.744414,62.6036552 C181.542345,63.5281379 180.188207,63.9988276 178.450276,63.9988276 C175.121655,63.9988276 173.212345,61.7202069 173.212345,58.6088276 C173.212345,55.581931 175.27131,53.2188276 178.213724,53.2188276 C181.004069,53.2188276 182.853034,55.0871034 183.000276,57.8364138 C183.000276,57.8364138 183.067862,58.6522759 183.067862,58.8236552 L174.648552,58.8236552 C174.713724,61.1408966 176.087172,62.7750345 178.558897,62.7750345" id="Fill-28" fill="#231F20"></path>
                                <path d="M185.863034,50.7273103 L187.258207,50.7273103 L187.258207,53.495931 L190.695448,53.495931 L190.695448,54.8066207 L187.258207,54.8066207 L187.258207,60.5852414 C187.258207,61.8935172 187.924414,62.665931 189.256828,62.665931 C189.985793,62.665931 190.779931,62.4728276 191.446138,62.2386897 L191.446138,63.4407586 C190.758207,63.7617931 189.814414,63.9138621 189.039586,63.9138621 C187.021655,63.9138621 185.863034,62.6876552 185.863034,60.6697241 L185.863034,50.7273103 Z" id="Fill-29" fill="#231F20"></path>
                                <path d="M193.637138,50.7273103 L195.03231,50.7273103 L195.03231,53.495931 L198.469552,53.495931 L198.469552,54.8066207 L195.03231,54.8066207 L195.03231,60.5852414 C195.03231,61.8935172 195.698517,62.665931 197.030931,62.665931 C197.759897,62.665931 198.554034,62.4728276 199.220241,62.2386897 L199.220241,63.4407586 C198.53231,63.7617931 197.588517,63.9138621 196.81369,63.9138621 C194.795759,63.9138621 193.637138,62.6876552 193.637138,60.6697241 L193.637138,50.7273103 Z" id="Fill-30" fill="#231F20"></path>
                                <path d="M202.250276,57.6433103 L209.100621,57.6433103 C208.864069,55.7533103 207.768207,54.3991724 205.772,54.3991724 C203.860276,54.3991724 202.530276,55.861931 202.250276,57.6433103 M206.117172,62.7750345 C207.490621,62.7750345 208.605793,62.3453793 209.658207,61.5729655 L210.30269,62.6036552 C209.100621,63.5281379 207.746483,63.9988276 206.008552,63.9988276 C202.679931,63.9988276 200.770621,61.7202069 200.770621,58.6088276 C200.770621,55.581931 202.829586,53.2188276 205.772,53.2188276 C208.562345,53.2188276 210.41131,55.0871034 210.558552,57.8364138 C210.558552,57.8364138 210.626138,58.6522759 210.626138,58.8236552 L202.206828,58.8236552 C202.272,61.1408966 203.645448,62.7750345 206.117172,62.7750345" id="Fill-31" fill="#231F20"></path>
                                <path d="M220.462345,54.5082759 L219.431655,55.3458621 C218.960966,54.7013793 217.995448,54.4865517 217.242345,54.4865517 C216.684759,54.4865517 216.124759,54.5517241 215.610621,54.7641379 C214.900966,55.0634483 214.729586,55.3868966 214.729586,56.1182759 L214.729586,63.8062069 L213.334414,63.8062069 L213.334414,55.6017241 C213.334414,53.7358621 215.760276,53.2410345 217.242345,53.2410345 C218.42269,53.2410345 219.733379,53.4751724 220.462345,54.5082759" id="Fill-32" fill="#231F20"></path>
                            </g>
                        </g>
                    </g>
                </g>
            </g>
        </g>
    </g>
</svg>