<?xml version="1.0" encoding="UTF-8"?>
<svg width="244px" height="70px" viewBox="0 0 244 70" version="1.1" xmlns="http://www.w3.org/2000/svg" xmlns:xlink="http://www.w3.org/1999/xlink">
    <!-- Generator: sketchtool 53.2 (72643) - https://sketchapp.com -->
    <title>779A358E-D989-4E9F-9AB9-6395309F77D2</title>
    <desc>Created with sketchtool.</desc>
    <g id="Page-1" stroke="none" stroke-width="1" fill="none" fill-rule="evenodd">
        <g id="Logo-tagline" transform="translate(-503.000000, -1372.000000)">
            <g id="Group-2" transform="translate(300.000000, 0.000000)">
                <g id="Group-3" transform="translate(87.000000, 642.000000)">
                    <g id="Group-3-Copy-2" transform="translate(2.000000, 665.000000)">
                        <g id="logo">
                            <g id="logo_variable-taglineEN" transform="translate(114.000000, 65.000000)">
                                <path d="M58.5848148,42.1169259 C59.6140741,37.1702593 63.2748148,33.6054444 68.6674074,33.6054444 C74.0651852,33.6054444 77.6585185,36.7969259 78.5866667,42.1169259 L58.5848148,42.1169259 Z M25.2181481,58.5047037 C23.7559259,58.7691481 21.967037,58.8261852 20.5151852,58.8261852 L12.0062963,58.8261852 L12.0088889,36.6595185 L19.6207407,36.6595185 C22.0214815,36.6595185 24.7411111,36.9317407 26.2966667,37.3335926 C31.6374074,38.7335926 34.7044444,42.568037 34.7044444,47.6365556 C34.7044444,52.883963 31.8759259,57.3017407 25.2181481,58.5047037 L25.2181481,58.5047037 Z M12.0088889,9.67581481 L15.2548148,9.67322222 C18.3944444,9.67322222 20.8677778,10.0102593 22.6514815,10.7050741 C26.1722222,12.0687778 27.8444444,14.8687778 27.8444444,18.3687778 C27.8496296,21.3217407 26.7166667,25.9702593 20.497037,27.2432222 C19.4548148,27.4558148 17.9562963,27.5724815 15.8407407,27.5724815 L12.0088889,27.5724815 L12.0088889,9.67581481 Z M89.5662963,40.3565556 C88.9311111,37.3024815 87.722963,34.7695185 85.9781481,32.4621111 C82.4003704,27.741 76.6033333,24.7595185 68.7581481,24.7595185 C56.5625926,24.7595185 49.0622222,33.0428519 46.842963,41.7669259 C44.8492593,35.6121111 39.5085185,31.463963 33.8722222,29.7113704 C38.1188889,26.6158148 40.3355556,22.1876667 40.3355556,17.1372963 C40.3355556,12.4498889 38.3859259,8.17988889 35.1192593,5.40322222 C30.3255556,1.33025926 23.7896296,0.495444444 15.7422222,0.495444444 L0,0.495444444 L0,68.4524815 C4.46185185,68.4524815 9.04296296,68.4317407 13.51,68.4524815 C17.487037,68.468037 21.3707407,68.4472963 24.99,68.3047037 C36.4466667,67.8458148 44.2918519,62.0747037 46.8040741,53.4102593 C47.6648148,57.2654444 49.3240741,60.4050741 51.4888889,62.7902593 C55.8988889,67.6487778 62.3025926,69.5413704 68.74,69.5413704 C76.6759259,69.5413704 82.4107407,67.2417407 86.3281481,63.7158148 L80.7177778,57.1228519 C77.8996296,59.2513704 74.27,60.5087778 70.197037,60.5087778 C62.2092593,60.4828519 58.6859259,55.4298889 58.3696296,50.5687778 L89.5662963,50.5687778 L89.5662963,68.4524815 L101.251111,68.4524815 L101.251111,0.835074074 L89.5662963,0.835074074 L89.5662963,40.3565556 Z" id="Fill-1" fill="#00549A"></path>
                                <polygon id="Fill-3" fill="#00549A" points="109.04963 68.4537778 120.534815 68.4537778 120.534815 0.83637037 109.04963 0.83637037"></polygon>
                                <path d="M128.300148,45.5248889 L128.414222,44.1404444" id="Fill-5" fill="#231F20"></path>
                                <path d="M139.092074,14.4845556 L139.092074,5.33011111 L140.567259,5.33011111 L140.567259,16.3978889 C140.567259,19.9056667 138.817259,22.2104815 135.332815,22.2104815 C134.065037,22.2104815 133.004667,22.0030741 132.011704,21.4508519 L132.335778,20.1571481 C133.279481,20.641963 134.132444,20.896037 135.309481,20.896037 C137.894296,20.896037 139.092074,19.1434444 139.092074,16.6052963 L139.092074,15.9156667 C138.145778,16.3304815 137.018,16.6052963 135.656889,16.6052963 C132.680593,16.6052963 130.790593,14.9901111 130.790593,11.9697407 L130.790593,5.33011111 L132.265778,5.33011111 L132.265778,11.9023333 C132.265778,13.7223333 133.212074,15.2701111 135.656889,15.2701111 C136.647259,15.2701111 137.961704,15.0393704 139.092074,14.4845556" id="Fill-6" fill="#231F20"></path>
                                <path d="M153.717148,10.7704074 C153.717148,8.41892593 152.057889,6.31892593 149.589741,6.31892593 C147.051593,6.31892593 145.506407,8.34892593 145.506407,10.7704074 C145.506407,13.2152222 147.028259,15.2918889 149.589741,15.2918889 C152.081222,15.2918889 153.717148,13.3292963 153.717148,10.7704074 M155.218259,10.7937407 C155.218259,14.0915185 152.934185,16.583 149.589741,16.583 C146.315296,16.583 144.007889,14.0241111 144.007889,10.7937407 C144.007889,7.61003704 146.336037,5.02781481 149.589741,5.02781481 C152.934185,5.02781481 155.218259,7.5192963 155.218259,10.7937407" id="Fill-7" fill="#231F20"></path>
                                <path d="M166.082519,14.9680741 L166.082519,5.35214815 L167.581037,5.35214815 L167.581037,16.0051111 C166.359926,16.4225185 164.905481,16.674 163.336963,16.674 C159.855111,16.674 158.216593,15.0847407 158.216593,12.2225185 L158.216593,5.35214815 L159.69437,5.35214815 L159.69437,12.1784444 C159.69437,14.001037 160.638074,15.3154815 163.406963,15.3154815 C164.122519,15.3154815 165.41363,15.1988148 166.082519,14.9680741" id="Fill-8" fill="#231F20"></path>
                                <path d="M179.048074,6.41303704 L177.941037,7.31266667 C177.432889,6.62044444 176.395852,6.3897037 175.589556,6.3897037 C174.988074,6.3897037 174.389185,6.4597037 173.83437,6.68785185 C173.074741,7.00933333 172.890667,7.35674074 172.890667,8.1422963 L172.890667,16.3997037 L171.389556,16.3997037 L171.389556,7.58748148 C171.389556,5.58340741 173.997704,5.05192593 175.589556,5.05192593 C176.857333,5.05192593 178.262519,5.30340741 179.048074,6.41303704" id="Fill-9" fill="#231F20"></path>
                                <path d="M194.849148,9.73233333 C194.849148,7.749 193.949519,6.41381481 191.872852,6.41381481 C189.912852,6.41381481 188.414333,7.65825926 188.414333,9.91640741 L188.414333,16.3978889 L186.892481,16.3978889 L186.892481,-0.000259259259 L188.414333,-0.000259259259 L188.414333,6.52788889 C189.197296,5.56085185 190.558407,5.05011111 191.966185,5.05011111 C194.779148,5.05011111 196.394333,6.8027037 196.394333,9.64159259 L196.394333,16.3978889 L194.849148,16.3978889 L194.849148,9.73233333 Z" id="Fill-10" fill="#231F20"></path>
                                <path d="M208.919926,10.7704074 C208.919926,8.41892593 207.260667,6.31892593 204.792519,6.31892593 C202.25437,6.31892593 200.709185,8.34892593 200.709185,10.7704074 C200.709185,13.2152222 202.231037,15.2918889 204.792519,15.2918889 C207.284,15.2918889 208.919926,13.3292963 208.919926,10.7704074 M210.421037,10.7937407 C210.421037,14.0915185 208.136963,16.583 204.792519,16.583 C201.518074,16.583 199.210667,14.0241111 199.210667,10.7937407 C199.210667,7.61003704 201.538815,5.02781481 204.792519,5.02781481 C208.136963,5.02781481 210.421037,7.5192963 210.421037,10.7937407" id="Fill-11" fill="#231F20"></path>
                                <path d="M228.412333,9.52466667 C228.412333,7.54133333 227.904185,6.45762963 225.643444,6.45762963 C223.890852,6.45762963 222.576407,7.35725926 222.576407,8.41762963 L222.576407,16.3976296 L221.054556,16.3976296 L221.054556,8.99577778 C221.054556,7.19651852 220.248259,6.45762963 218.218259,6.45762963 C217.111222,6.45762963 215.910852,6.89577778 215.174556,7.33392593 L215.174556,16.3976296 L213.673444,16.3976296 L213.673444,6.62096296 C215.013815,5.768 216.489,5.14577778 218.241593,5.14577778 C219.994185,5.14577778 221.215296,5.628 221.907519,6.52762963 C222.760481,5.69540741 224.121593,5.14577778 225.760111,5.14577778 C228.479741,5.14577778 229.957519,6.43688889 229.957519,9.34318519 L229.957519,16.3976296 L228.412333,16.3976296 L228.412333,9.52466667 Z" id="Fill-12" fill="#231F20"></path>
                                <path d="M234.552111,9.78055556 L241.909889,9.78055556 C241.655815,7.75055556 240.478778,6.29611111 238.334704,6.29611111 C236.28137,6.29611111 234.852852,7.86722222 234.552111,9.78055556 M238.705444,15.2924074 C240.18063,15.2924074 241.378407,14.8309259 242.508778,14.0012963 L243.201,15.1083333 C241.909889,16.1012963 240.455444,16.6068519 238.588778,16.6068519 C235.013593,16.6068519 232.960259,14.1594444 232.960259,10.8175926 C232.960259,7.56648148 235.174333,5.02833333 238.334704,5.02833333 C241.334333,5.02833333 243.315074,7.035 243.478407,9.98796296 C243.478407,9.98796296 243.548407,10.8642593 243.548407,11.0483333 L234.505444,11.0483333 C234.575444,13.5372222 236.05063,15.2924074 238.705444,15.2924074" id="Fill-13" fill="#231F20"></path>
                                <path d="M132.911852,28.1641111 C132.911852,27.4952222 132.587778,27.1737407 131.942222,27.1737407 C131.273333,27.1737407 130.951852,27.4952222 130.951852,28.1641111 C130.951852,28.833 131.273333,29.1804074 131.942222,29.1804074 C132.587778,29.1804074 132.911852,28.833 132.911852,28.1641111 L132.911852,28.1641111 Z M127.654074,46.4755926 C131.112593,46.8696667 131.205926,44.8863333 131.205926,43.5018889 L131.205926,31.3711481 L132.657778,31.3711481 L132.657778,43.5692963 C132.657778,45.9467037 131.688148,48.3007778 127.537407,47.8626296 L127.654074,46.4755926 Z" id="Fill-14" fill="#231F20"></path>
                                <path d="M144.374741,41.0106667 L144.374741,31.3947407 L145.873259,31.3947407 L145.873259,42.0477037 C144.652148,42.4651111 143.197704,42.7165926 141.629185,42.7165926 C138.147333,42.7165926 136.508815,41.1273333 136.508815,38.2651111 L136.508815,31.3947407 L137.986593,31.3947407 L137.986593,38.221037 C137.986593,40.0436296 138.930296,41.3580741 141.699185,41.3580741 C142.414741,41.3580741 143.705852,41.2414074 144.374741,41.0106667" id="Fill-15" fill="#231F20"></path>
                                <path d="M153.69563,36.0759259 C155.748963,36.6281481 157.662296,37.507037 157.662296,39.6511111 C157.662296,41.4037037 156.718593,42.7181481 153.050074,42.7181481 C151.157481,42.7181481 149.407481,42.2333333 148.691926,40.7114815 L149.983037,40.0659259 C150.535259,41.1262963 151.434889,41.4711111 153.164148,41.4711111 C155.494889,41.4711111 156.233778,40.7788889 156.233778,39.8118519 C156.233778,38.5907407 154.989333,37.9451852 153.327481,37.4811111 C150.742667,36.7681481 149.200074,35.9151852 149.200074,33.9551852 C149.200074,32.0392593 150.768593,31.1396296 153.234148,31.1396296 C154.595259,31.1396296 156.441185,31.232963 157.317481,32.9855556 L156.093778,33.6077778 C155.541556,32.5914815 154.411185,32.3607407 153.143407,32.3607407 C152.03637,32.3607407 150.675259,32.6640741 150.675259,33.8385185 C150.675259,34.7148148 151.113407,35.3603704 153.69563,36.0759259" id="Fill-16" fill="#231F20"></path>
                                <path d="M160.664519,28.3943333 L162.163037,28.3943333 L162.163037,31.3706296 L165.852296,31.3706296 L165.852296,32.7758148 L162.163037,32.7758148 L162.163037,38.9824815 C162.163037,40.3876667 162.878593,41.2172963 164.307111,41.2172963 C165.092667,41.2172963 165.94563,41.0098889 166.661185,40.7584074 L166.661185,42.0495185 C165.922296,42.3943333 164.908593,42.5576667 164.07637,42.5576667 C161.908963,42.5576667 160.664519,41.2406296 160.664519,39.0732222 L160.664519,28.3943333 Z" id="Fill-17" fill="#231F20"></path>
                                <path d="M183.292667,35.6608519 C183.292667,33.6075185 181.817481,32.4330741 179.764148,32.4330741 C177.205259,32.4330741 175.750815,34.4371481 175.750815,36.8612222 C175.750815,39.3034444 176.927852,41.3334444 179.764148,41.3334444 C181.171926,41.3334444 182.393037,40.801963 183.292667,40.2523333 L183.292667,35.6608519 Z M179.880815,31.1393704 C183.017852,31.1393704 184.793778,32.9852963 184.793778,35.4767778 L184.793778,42.5104815 C184.931185,45.9923333 182.991926,48.3230741 179.510074,48.3230741 C178.218963,48.3230741 176.927852,48.0923333 175.937481,47.5608519 L176.258963,46.2697407 C177.205259,46.7312222 178.312296,47.0086296 179.486741,47.0086296 C182.048222,47.0086296 183.339333,45.2534444 183.339333,42.7178889 L183.339333,42.4638148 C183.339333,41.7949259 182.924519,41.8415926 182.533037,42.0023333 C181.449333,42.4171481 180.547111,42.6271481 179.603407,42.6271481 C176.118963,42.6271481 174.182296,40.1564074 174.182296,36.8845556 C174.182296,33.6749259 176.30563,31.1393704 179.880815,31.1393704 L179.880815,31.1393704 Z" id="Fill-18" fill="#231F20"></path>
                                <path d="M197.432926,36.8127407 C197.432926,34.4612593 195.773667,32.3612593 193.305519,32.3612593 C190.76737,32.3612593 189.222185,34.3912593 189.222185,36.8127407 C189.222185,39.2575556 190.744037,41.3342222 193.305519,41.3342222 C195.797,41.3342222 197.432926,39.3716296 197.432926,36.8127407 M198.934037,36.8360741 C198.934037,40.1338519 196.649963,42.6253333 193.305519,42.6253333 C190.031074,42.6253333 187.723667,40.0664444 187.723667,36.8360741 C187.723667,33.6523704 190.051815,31.0701481 193.305519,31.0701481 C196.649963,31.0701481 198.934037,33.5616296 198.934037,36.8360741" id="Fill-19" fill="#231F20"></path>
                                <path d="M201.91163,28.3943333 L203.410148,28.3943333 L203.410148,31.3706296 L207.099407,31.3706296 L207.099407,32.7758148 L203.410148,32.7758148 L203.410148,38.9824815 C203.410148,40.3876667 204.125704,41.2172963 205.554222,41.2172963 C206.339778,41.2172963 207.192741,41.0098889 207.908296,40.7584074 L207.908296,42.0495185 C207.169407,42.3943333 206.155704,42.5576667 205.323481,42.5576667 C203.156074,42.5576667 201.91163,41.2406296 201.91163,39.0732222 L201.91163,28.3943333 Z" id="Fill-20" fill="#231F20"></path>
                                <path d="M132.288852,62.6271852 L132.288852,66.064963 C133.235148,66.7338519 134.479593,67.3560741 136.024778,67.3560741 C138.747,67.3560741 140.061444,65.3027407 140.061444,62.7879259 C140.061444,60.4364444 138.837741,58.4997778 136.255519,58.4997778 C134.018111,58.4997778 132.288852,60.1616296 132.288852,62.6271852 M133.004407,67.884963 C132.519593,67.6542222 132.288852,67.8642222 132.288852,68.2557037 L132.288852,68.4864444 L130.857741,68.4864444 L130.857741,52.064963 L132.288852,52.064963 L132.288852,59.0753333 C133.235148,57.7842222 134.687,57.162 136.346259,57.162 C139.553296,57.162 141.583296,59.4668148 141.583296,62.7879259 C141.583296,66.064963 139.439222,68.6238519 136.138852,68.6238519 C134.777741,68.6238519 133.971444,68.3464444 133.004407,67.884963" id="Fill-21" fill="#231F20"></path>
                                <path d="M145.368481,61.8678148 L152.726259,61.8678148 C152.472185,59.8378148 151.295148,58.3833704 149.151074,58.3833704 C147.097741,58.3833704 145.669222,59.9544815 145.368481,61.8678148 M149.521815,67.3796667 C150.997,67.3796667 152.194778,66.9181852 153.325148,66.0885556 L154.01737,67.1955926 C152.726259,68.1885556 151.271815,68.6941111 149.405148,68.6941111 C145.829963,68.6941111 143.77663,66.2467037 143.77663,62.9048519 C143.77663,59.6537407 145.990704,57.1155926 149.151074,57.1155926 C152.150704,57.1155926 154.131444,59.1222593 154.294778,62.0752222 C154.294778,62.0752222 154.364778,62.9515185 154.364778,63.1355926 L145.321815,63.1355926 C145.391815,65.6244815 146.867,67.3796667 149.521815,67.3796667" id="Fill-22" fill="#231F20"></path>
                                <path d="M157.665407,54.4392593 L159.163926,54.4392593 L159.163926,57.412963 L162.853185,57.412963 L162.853185,58.8207407 L159.163926,58.8207407 L159.163926,65.0274074 C159.163926,66.4325926 159.879481,67.2622222 161.308,67.2622222 C162.093556,67.2622222 162.946519,67.0548148 163.662074,66.8033333 L163.662074,68.0944444 C162.923185,68.4392593 161.909481,68.6025926 161.077259,68.6025926 C158.909852,68.6025926 157.665407,67.2855556 157.665407,65.1181481 L157.665407,54.4392593 Z" id="Fill-23" fill="#231F20"></path>
                                <path d="M166.362259,54.4392593 L167.860778,54.4392593 L167.860778,57.412963 L171.550037,57.412963 L171.550037,58.8207407 L167.860778,58.8207407 L167.860778,65.0274074 C167.860778,66.4325926 168.576333,67.2622222 170.004852,67.2622222 C170.790407,67.2622222 171.64337,67.0548148 172.358926,66.8033333 L172.358926,68.0944444 C171.620037,68.4392593 170.606333,68.6025926 169.774111,68.6025926 C167.606704,68.6025926 166.362259,67.2855556 166.362259,65.1181481 L166.362259,54.4392593 Z" id="Fill-24" fill="#231F20"></path>
                                <path d="M175.727481,61.8678148 L183.085259,61.8678148 C182.831185,59.8378148 181.654148,58.3833704 179.510074,58.3833704 C177.456741,58.3833704 176.028222,59.9544815 175.727481,61.8678148 M179.880815,67.3796667 C181.356,67.3796667 182.553778,66.9181852 183.684148,66.0885556 L184.37637,67.1955926 C183.085259,68.1885556 181.630815,68.6941111 179.764148,68.6941111 C176.188963,68.6941111 174.13563,66.2467037 174.13563,62.9048519 C174.13563,59.6537407 176.349704,57.1155926 179.510074,57.1155926 C182.509704,57.1155926 184.490444,59.1222593 184.653778,62.0752222 C184.653778,62.0752222 184.723778,62.9515185 184.723778,63.1355926 L175.680815,63.1355926 C175.750815,65.6244815 177.226,67.3796667 179.880815,67.3796667" id="Fill-25" fill="#231F20"></path>
                                <path d="M195.520111,58.5002963 L194.413074,59.3999259 C193.904926,58.7077037 192.867889,58.476963 192.061593,58.476963 C191.460111,58.476963 190.861222,58.546963 190.306407,58.7751111 C189.546778,59.0965926 189.362704,59.444 189.362704,60.2295556 L189.362704,68.486963 L187.861593,68.486963 L187.861593,59.6747407 C187.861593,57.6706667 190.469741,57.1391852 192.061593,57.1391852 C193.32937,57.1391852 194.734556,57.3906667 195.520111,58.5002963" id="Fill-26" fill="#231F20"></path>
                            </g>
                        </g>
                    </g>
                </g>
            </g>
        </g>
    </g>
</svg>